<svg xmlns="http://www.w3.org/2000/svg" data-name="Layer 1" viewBox="0 0 1200 1000" id="email-marketing"><g data-name="Email Marketing"><path fill="#199180" d="M400.304 323.348c-8.796-57.173-38.325-99.478-78.745-121.677s-91.938-24.294-144.923-.838c17.592 114.348 117.698 169.217 223.668 122.515Z"></path><path fill="#fff" d="M387.738 317.484 193.39 210.676c-.21 0-.21-.209-.21-.418s.21-.21.42-.21l194.767 105.97a.797.797 0 0 1-.629 1.466Z"></path><path fill="#fff" d="M275.904 255.284a55.524 55.524 0 0 0-17.592 2.095 47.24 47.24 0 0 0-8.167 3.141 55.858 55.858 0 0 0-7.54 4.607.9.9 0 1 1-1.047-1.466 36.763 36.763 0 0 1 7.958-4.398 59.22 59.22 0 0 1 8.587-2.932 56.962 56.962 0 0 1 17.801-1.466v.42ZM334.963 287.746a56.761 56.761 0 0 1-8.377-15.707 68.088 68.088 0 0 1-2.304-8.796 43.457 43.457 0 0 1-.628-9.006.838.838 0 1 1 1.675 0 41.198 41.198 0 0 0 .21 8.796 56.817 56.817 0 0 0 1.884 8.587 59.55 59.55 0 0 0 7.54 16.126c.21-.21.21 0 0 0ZM355.696 299.055a55.523 55.523 0 0 0-17.592 2.094 47.238 47.238 0 0 0-8.168 3.141 55.862 55.862 0 0 0-7.539 4.608.987.987 0 0 1-1.256-.21c-.42-.419-.21-.837.209-1.256a36.762 36.762 0 0 1 7.958-4.398 59.216 59.216 0 0 1 8.587-2.932 56.962 56.962 0 0 1 17.801-1.466v.419ZM245.747 238.95a56.761 56.761 0 0 1-8.377-15.708 68.084 68.084 0 0 1-2.304-8.796 43.457 43.457 0 0 1-.628-9.005.838.838 0 1 1 1.675 0 41.202 41.202 0 0 0 .21 8.796 56.818 56.818 0 0 0 1.884 8.586 66.56 66.56 0 0 0 7.54 16.126Z"></path><path fill="#2ab19f" d="M400.304 323.348c24.294-52.566 23.037-104.085 1.466-144.923s-63.456-70.996-120.42-80.63c-48.588 105.133 4.816 206.286 118.954 225.553Z"></path><path fill="#fff" d="M392.974 311.41 289.936 115.179c0-.21 0-.42.21-.42s.418 0 .418.21L394.65 310.783a.765.765 0 0 1-.418 1.047 1.007 1.007 0 0 1-1.257-.42Z"></path><path fill="#fff" d="M333.916 197.901a53.88 53.88 0 0 0-24.503-9.843 41.202 41.202 0 0 0-8.796-.21.838.838 0 0 1 0-1.675 43.457 43.457 0 0 1 9.005.629 45.448 45.448 0 0 1 8.796 2.303 53.992 53.992 0 0 1 15.498 8.796c.209.21 0 .21 0 0ZM365.33 257.588a57.137 57.137 0 0 1 1.675-17.801 41.562 41.562 0 0 1 2.932-8.587 43.572 43.572 0 0 1 4.607-7.958c.21-.419.838-.419 1.257-.21s.419.838.21 1.257a53.694 53.694 0 0 0-4.608 7.33 43.623 43.623 0 0 0-3.141 8.168 54.915 54.915 0 0 0-2.304 17.592c-.419.21-.419.21-.628.21ZM376.43 278.321a53.88 53.88 0 0 0-24.504-9.843 41.2 41.2 0 0 0-8.796-.21.838.838 0 0 1 0-1.675 43.457 43.457 0 0 1 9.006.629 45.448 45.448 0 0 1 8.796 2.303 53.992 53.992 0 0 1 15.497 8.796c.21.21 0 .21 0 0ZM318 167.744a57.137 57.137 0 0 1 1.675-17.801 41.563 41.563 0 0 1 2.932-8.587 43.573 43.573 0 0 1 4.607-7.958c.21-.42.838-.42 1.257-.21s.418.838.209 1.257a53.691 53.691 0 0 0-4.607 7.33 43.623 43.623 0 0 0-3.142 8.168 54.915 54.915 0 0 0-2.304 17.591c-.418.21-.418.21-.628.21Z"></path><path fill="#48dbc5" d="M400.095 323.139c-41.886-40-91.101-55.498-136.547-48.378-45.655 7.12-87.54 36.86-115.185 87.75 83.562 80.001 196.443 62.41 251.732-39.372Z"></path><path fill="#fff" d="M386.482 326.07 167.42 360.208c-.21 0-.419 0-.419-.209s0-.419.21-.419l218.851-34.974a1.152 1.152 0 0 1 1.047.628c0 .419-.21.838-.628.838Z"></path><path fill="#fff" d="M259.988 345.338a58.591 58.591 0 0 0-12.566 12.356 34.632 34.632 0 0 0-4.607 7.54 38.709 38.709 0 0 0-3.142 8.167.863.863 0 1 1-1.675-.419 59.175 59.175 0 0 1 3.56-8.377 47.222 47.222 0 0 1 5.026-7.539 47.91 47.91 0 0 1 13.404-11.728c-.21-.21 0-.21 0 0ZM326.376 334.867a52.194 52.194 0 0 1-16.335-7.33 60.221 60.221 0 0 1-7.12-5.655 36.646 36.646 0 0 1-5.865-6.91.9.9 0 1 1 1.466-1.048 43.42 43.42 0 0 0 12.147 12.566 62.927 62.927 0 0 0 15.917 7.958c0 .21 0 .21-.21.419ZM349.832 331.097a58.591 58.591 0 0 0-12.566 12.356 34.631 34.631 0 0 0-4.607 7.54 38.708 38.708 0 0 0-3.141 8.167 1.152 1.152 0 0 1-1.047.629c-.42 0-.629-.629-.629-1.048a59.175 59.175 0 0 1 3.56-8.377 47.224 47.224 0 0 1 5.027-7.54 55.679 55.679 0 0 1 13.403-11.727c-.21-.21 0-.21 0 0ZM226.06 350.574a52.193 52.193 0 0 1-16.335-7.33 60.222 60.222 0 0 1-7.12-5.655 36.647 36.647 0 0 1-5.864-6.91.9.9 0 1 1 1.466-1.048 43.42 43.42 0 0 0 12.147 12.566 62.929 62.929 0 0 0 15.916 7.958c0 .21 0 .419-.21.419Z"></path><path fill="#fd846d" d="M1010.365 502.199v373.2a8.68 8.68 0 0 1-.419 3.35 23.53 23.53 0 0 1-8.167 15.288 24.919 24.919 0 0 1-16.754 6.492H364.283a24.463 24.463 0 0 1-16.964-6.492 24.776 24.776 0 0 1-7.958-15.288 8.68 8.68 0 0 1-.42-3.35v-373.2Z"></path><path fill="#fd846d" d="M1010.156 878.54a23.53 23.53 0 0 1-8.168 15.288L737.482 705.343l14.24-10.68ZM597.794 694.663l14.24 10.68L347.32 893.828c-4.189-3.98-7.33-9.006-7.958-15.288Z"></path><path fill="#fd846d" d="m1010.575 502.199-54.032 40.21-204.82 152.254-14.241 10.68-62.619 46.703-62.828-46.703-14.241-10.68L392.974 542.2l-53.823-40.001 53.823-46.702 251.522-217.595 30.158-26.178 30.367 26.178 251.522 217.595 53.822 46.702h.21z"></path><path fill="#f0f4f9" d="M956.543 251.515v290.894l-204.61 152.463-14.242 10.68-62.828 46.703-62.828-46.702-14.241-10.681-204.82-152.463V251.515a13.586 13.586 0 0 1 13.613-13.613H942.93a13.586 13.586 0 0 1 13.613 13.613Z"></path><path fill="#fff" d="M947.118 256.332V549.11L674.654 751.836l-58.012-43.142-14.031-10.471-25.132-18.849-174.871-130.263V256.33a6.972 6.972 0 0 1 6.91-6.91h531.108a6.758 6.758 0 0 1 6.492 6.91Z"></path><path fill="#fd846d" d="M615.176 306.803V414.24a7.508 7.508 0 0 1-7.54 7.539H332.45a7.508 7.508 0 0 1-7.54-7.54V306.804a7.508 7.508 0 0 1 7.54-7.539h274.977a7.689 7.689 0 0 1 7.75 7.54Z"></path><path fill="#fff" d="M608.893 309.735v101.363a4.424 4.424 0 0 1-4.398 4.398H335.591a4.295 4.295 0 0 1-4.398-4.398V309.735a4.424 4.424 0 0 1 4.398-4.398h269.114a4.386 4.386 0 0 1 4.188 4.398Z"></path><path fill="#1a2e35" d="M331.612 414.868h.419v.419l-.419-.419zM332.031 305.966v.628l-.419-.209.419-.419z"></path><path fill="#3d84f2" d="m438.42 326.49-.42 68.692a1.877 1.877 0 0 1-1.884 1.885l-91.938-.42a1.877 1.877 0 0 1-1.885-1.884l.419-68.483a1.877 1.877 0 0 1 1.884-1.885l91.939.42a1.603 1.603 0 0 1 1.885 1.675Z"></path><path fill="#fff" d="m424.598 388.69-69.32-.42a1.108 1.108 0 0 1-.839-1.884l23.666-32.252a1.178 1.178 0 0 1 1.885 0l14.031 19.896a1.325 1.325 0 0 0 1.885.209l9.005-9.843c.42-.628 1.257-.419 1.885 0l18.64 22.409a1.128 1.128 0 0 1-.838 1.884ZM403.445 348.27a6.598 6.598 0 1 1-6.492-6.702 6.572 6.572 0 0 1 6.492 6.702Z"></path><path fill="#f0f4f9" d="M597.375 343.034a2.42 2.42 0 0 1-2.513 2.513H451.823a2.42 2.42 0 0 1-2.513-2.513 2.42 2.42 0 0 1 2.513-2.513h143.039a2.31 2.31 0 0 1 2.513 2.513ZM597.375 360.417a2.42 2.42 0 0 1-2.513 2.513H451.823a2.42 2.42 0 0 1-2.513-2.513 2.42 2.42 0 0 1 2.513-2.513h143.039a2.547 2.547 0 0 1 2.513 2.513ZM480.515 375.496h67.435a2.42 2.42 0 0 1 2.513 2.513 2.42 2.42 0 0 1-2.513 2.513h-96.127a2.42 2.42 0 0 1-2.513-2.513 2.42 2.42 0 0 1 2.513-2.513h28.692"></path><path fill="#ffbe9d" d="m760.519 570.472-85.656 181.364-58.22-43.142-14.032-10.471-25.132-18.849 156.024-138.012s11.727-72.88 51.728-40.629c39.791 32.252-24.712 69.74-24.712 69.74Z"></path><path fill="#292561" fill-rule="evenodd" d="m739.995 446.282-16.964 12.147a8.011 8.011 0 0 0-1.885 11.1l64.504 90.053a8.011 8.011 0 0 0 11.1 1.885l16.963-12.147a8.011 8.011 0 0 0 1.885-11.1l-64.504-90.053a8.011 8.011 0 0 0-11.1-1.885Z"></path><path fill="#fd846d" fill-rule="evenodd" d="M645.124 445.025c-3.56 2.514 1.466 15.498 11.31 29.11 9.633 13.614 20.314 22.41 23.874 19.896l58.85-36.44-20.315-28.273-20.315-28.272Z"></path><path fill="#f0f4f9" fill-rule="evenodd" d="M656.224 419.894c-5.236 3.77 2.304 22.828 16.545 42.723s29.948 32.88 34.974 29.32l86.493-53.613-29.948-41.676-29.738-41.467Z"></path><path fill="#fd846d" fill-rule="evenodd" d="M734.55 355.181s52.147-43.77 92.776-155.814l81.258 94.033 63.037 107.017c-119.373 2.513-177.385 37.697-177.385 37.697-5.235 3.77-22.618-11.937-38.953-34.765-16.545-23.037-25.76-44.608-20.733-48.168Z"></path><path fill="#f0f4f9" fill-rule="evenodd" d="M832.771 191.41c-18.01 12.774.628 69.529 41.467 126.493s88.378 92.776 106.389 80.001-.629-69.53-41.467-126.494-88.588-92.776-106.389-80Z"></path><path fill="#292561" fill-rule="evenodd" d="M841.776 200.833c-14.031 10.053 4.189 59.896 40.839 110.997s77.907 84.399 91.938 74.346-4.188-59.896-40.838-110.996c-36.44-51.1-77.697-84.4-91.939-74.347Z"></path><path fill="#fff" fill-rule="evenodd" d="m898.112 331.935 22.409-21.99-11.937-16.754-11.938-16.754-27.854 14.24a522.45 522.45 0 0 0 14.032 20.943c5.026 7.33 10.053 14.032 15.288 20.315Z"></path><path fill="#fd846d" fill-rule="evenodd" d="M896.437 276.855c-2.932 2.095 0 11.31 6.702 20.524s14.24 15.079 17.173 12.985 0-11.31-6.702-20.524-14.45-15.079-17.173-12.985Z"></path><path fill="#ffbe9d" d="M809.944 526.074c-11.938 8.586-29.74 4.398-39.792-9.425-9.843-13.822-8.377-32.042 3.77-40.628 11.937-8.796 48.168 41.466 36.022 50.053Z"></path><path fill="#fdd333" fill-rule="evenodd" d="m1052.25 291.096 40.001-10.68a2.225 2.225 0 0 1 1.676.21 2.12 2.12 0 0 1 .837 1.465l3.351 26.807a1.737 1.737 0 0 1-.628 1.675 2.378 2.378 0 0 1-1.675.628l-54.242-1.884a2.012 2.012 0 0 1-1.885-1.466l-2.722-8.796-33.3.628a2.04 2.04 0 0 1-2.094-1.675 1.98 1.98 0 0 1 1.257-2.304l43.351-16.336a2.312 2.312 0 0 1 1.676 0c.628.21.837.629 1.047 1.257ZM969.736 195.598l9.215-40.42a1.629 1.629 0 0 0-.419-1.675 2.12 2.12 0 0 0-1.466-.838l-26.806-2.304a2.162 2.162 0 0 0-2.304 2.304l3.98 54.032a2.012 2.012 0 0 0 1.465 1.885l8.796 2.304.628 33.299a2.227 2.227 0 0 0 1.885 2.094 2.038 2.038 0 0 0 2.304-1.466l14.87-43.56a1.64 1.64 0 0 0-.21-1.676c-.21-.629-.628-.838-1.257-1.047ZM1047.434 206.488l51.31-45.446a2.858 2.858 0 0 0 1.256-2.094 1.402 1.402 0 0 0-.838-1.466l-29.32-10.262a3.577 3.577 0 0 0-2.513.21 4.214 4.214 0 0 0-2.303 1.884l-49.844 65.132c-.838 1.047-.838 2.094 0 2.723l7.958 5.445-32.67 39.581c-1.047 1.257-1.047 2.514 0 2.932s2.722 0 4.188-1.047l61.362-47.54a3.541 3.541 0 0 0 1.466-2.094 1.629 1.629 0 0 0-.418-1.675Z"></path><path fill="none" d="m577.689 335.914.419.209"></path><path fill="#4a77f0" d="M294.753 897.388c-.21 1.466-.42 2.932-.629 3.77a1.395 1.395 0 0 1-1.466 1.047h-65.55a1.484 1.484 0 0 1-1.466-1.676l2.513-10.68 8.168-34.346 26.178 2.722s-1.885 15.498 18.639 21.362c12.566 3.35 14.032 12.146 13.613 17.801Z"></path><path fill="#2624bd" d="M269.83 874.142c-8.795-6.911-7.538-15.917-7.538-15.917l-26.179-2.722-4.398 18.639Z"></path><path fill="#4a77f0" d="M200.51 897.388c-.209 1.466-.418 2.932-.628 3.77a1.395 1.395 0 0 1-1.466 1.047h-65.76a1.484 1.484 0 0 1-1.466-1.676l2.513-10.68 8.168-34.346 26.178 2.722s-1.885 15.498 18.64 21.362c12.565 3.35 14.03 12.146 13.822 17.801Z"></path><path fill="#2624bd" d="M175.589 874.142c-8.796-6.911-7.54-15.917-7.54-15.917l-26.178-2.932-4.398 18.64h38.116Z"></path><path fill="#292561" d="M299.988 862.623h-92.566c-1.257-7.33-1.048-17.592.418-28.9.21-1.048.21-1.886.42-2.933a358.485 358.485 0 0 1 7.33-36.859.77.77 0 0 1 .209-.628c.21-1.047.419-1.885.628-2.932 4.817-22.2 2.513-53.195-.21-75.603-.209-1.676-.418-3.142-.628-4.817-.21-1.047-.21-2.095-.419-3.142-5.235-39.79-15.497-86.284-25.76-125.237-.209-1.047-.627-2.094-.837-3.141-3.35-12.776-5.654-20.524-5.654-20.524 8.586-.42-30.996 1.675 83.561-4.608 0 0 2.304 13.822 5.864 36.022 1.047 7.749 26.807 167.332 28.063 249.009v3.141c.21 7.749 0 14.87-.419 21.152Z"></path><path fill="#191937" d="M232.762 708.066c-1.256 12.984-.628 26.178-2.722 39.163-1.676 10.052-5.027 20.314-11.519 28.272 1.676-19.267 0-41.676-2.303-60.943 5.445-26.388 7.33-52.566 8.167-79.373.419-12.356.838-24.712 1.257-37.278.21-9.424-1.047-29.529-1.885-38.744 11.518 15.498 20.733 45.237 21.57 64.504 1.257 28.482-10.052 56.126-12.565 84.399Z"></path><path fill="#292561" d="M227.317 658.641c-5.026 23.665-22.2 113.09-33.508 170.055-.21 1.047-.419 2.094-.628 2.932-3.351 16.335-5.655 27.854-6.283 30.157 0 .21 0 .21-.21.42H105.64a91.49 91.49 0 0 1-3.98-14.032c-.209-1.048-.418-2.304-.627-3.56-4.189-27.017 4.816-52.986 18.848-76.442 2.094-3.56 4.398-9.214 6.911-16.544a17.69 17.69 0 0 0 1.047-3.56c7.54-23.666 15.498-59.897 20.524-84.19.628-3.351 5.236-24.713 10.262-54.242 1.885-11.309 3.56-21.571 5.026-29.948a16.428 16.428 0 0 0 .42-2.932c2.093-12.775 3.35-20.524 3.35-20.524l57.802-37.068c0 .21 4.188 29.529 5.654 64.713a15.851 15.851 0 0 0 .21 3.141c.838 22.2.838 50.472-3.77 71.624Z"></path><path fill="#4a77f0" d="M253.705 502.827s16.964 23.666 34.346 30.367c4.398 1.676 9.005 2.304 13.194 1.047 20.733-6.073 28.691-69.11 28.691-69.11l-11.727-6.074-21.362 30.157c-18.01-57.801-35.184-61.152-35.184-61.152l-2.303 21.57Z"></path><path fill="#2624bd" d="M253.705 502.827s16.964 23.666 34.346 30.367c1.675-2.304 2.723-5.026 2.094-7.749-1.047-4.816-6.492-7.539-9.633-11.518s-4.398-9.215-4.398-14.241 1.047-10.053 1.675-15.079a93.58 93.58 0 0 0 .838-15.288 91.42 91.42 0 0 0-4.608-27.016c-1.047-2.932-3.56-5.445-6.91-4.189-3.561 1.257-5.446 6.074-6.912 9.215-.21.628-.628 1.466-.838 2.094Z"></path><path fill="#4a77f0" d="M164.489 566.493c0 6.074 29.948 8.796 58.011 8.587 3.56 0 7.12-.21 10.472-.21a187.833 187.833 0 0 0 25.13-2.513c7.75-1.466 12.567-3.35 12.567-5.864-3.56-36.44 15.497-108.902-2.932-134.452-7.959-10.89-69.74-15.079-91.73-1.257-.209 0-.209.21-.418.21-.629.419-1.466 1.047-2.095 1.466a18.823 18.823 0 0 0-4.607 6.283c-14.87 29.738-4.398 127.75-4.398 127.75Z"></path><path fill="#2624bd" d="M164.489 566.493c0 6.074 29.948 8.796 58.011 8.587 3.56 0 7.12-.21 10.472-.21a187.833 187.833 0 0 0 25.13-2.513 9.928 9.928 0 0 0-4.397-3.35c-2.932-1.257-6.073-1.886-8.796-3.561-3.98-2.723-5.655-7.958-6.283-12.566-.628-4.817-.838-9.843-3.141-14.031-3.56-6.911-11.31-10.472-18.64-11.938-7.539-1.466-15.287-1.466-22.827-3.56-5.654-1.675-11.728-5.026-13.403-10.68-2.094-6.493 1.675-13.404 4.607-19.687 8.377-17.801 8.796-39.163 1.466-57.592-5.026 3.56-11.518 3.35-17.801 3.77-14.87 29.32-4.398 127.331-4.398 127.331Z"></path><path fill="#ffd1c4" d="m205.746 405.025 1.047 17.592c0 5.235 28.482 5.235 28.482 0v-14.241s11.938 2.932 18.22-3.142c4.608-4.398 9.844-59.058-14.45-63.456-30.367-5.655-47.959 14.87-49.634 23.037s16.335 40.21 16.335 40.21Z"></path><path fill="#292561" d="M205.746 405.025c3.56-9.006-5.445-12.985-9.215-19.477-.209-.21-.209-.419-.418-.838-.42-1.884-.21-5.235 1.466-6.701q1.256-1.257 3.77-.629c5.654 1.885 2.303 5.446 3.978 6.493 2.095 1.047 12.147-13.194.838-23.037 0 0 58.43 3.141 59.059-21.571s-25.55-32.88-38.116-25.97c-10.262 5.655-14.032 13.823-23.247 17.593a28.208 28.208 0 0 1-6.701 1.884c-.629 0-1.047.21-1.466.21-13.194 2.513-17.592 10.262-10.053 20.524 0 .21-22.2 10.89 20.105 51.519Z"></path><path d="m342.921 426.596.209.209v-.209h-.209z"></path><path fill="#dde3ea" d="m285.538 493.612 33.299-1.675a3.359 3.359 0 0 0 2.932-2.304l16.126-56.336a3.071 3.071 0 0 0-3.142-3.979l-33.09 1.466a3.359 3.359 0 0 0-2.931 2.304l-16.336 56.755c-.628 1.675.838 3.77 3.142 3.77Z"></path><path fill="#ffd1c4" d="M230.459 532.985s24.293-12.356 23.246 5.445-29.739 6.702-29.739 6.702Z"></path><path fill="#4a77f0" d="M181.871 427.852c-34.136 13.823-64.713 111.206-30.995 121.468 16.964 5.026 75.813-2.304 75.813-2.304l4.398-17.173-63.038-12.356c.21-.21 35.603-69.11 13.822-89.635Z"></path><path fill="#ffd1c4" d="M318 462.408c-1.257 6.701 2.722 13.194 9.214 14.45 6.283 1.257 11.1-23.037 4.817-24.293a12.068 12.068 0 0 0-14.032 9.843Z"></path></g></svg>