<svg xmlns="http://www.w3.org/2000/svg" data-name="3" viewBox="0 0 3200 3000" id="email-marketing"><defs><clipPath id="a"><path fill="#fff0" d="M2843.57258,1163.87939c128.5685,446.041-119.479,913.1316-558.7162,1063.30823-316.1929,108.10729-688.4292,97.91989-957.0426,27.17089-102.0202-26.85069-198.6275-64.92209-286.2946-112.41989-343.1579-186.008-549.0527-516.72893-405.4342-886.46383,266.2251-685.3429,920.7036-564.0443,1265.6557-442.7758,138.2664,48.5926,285.8382,66.0775,431.2511,47.7107C2633.32858,822.43729,2774.57578,924.50949,2843.57258,1163.87939Z"></path></clipPath><clipPath id="b"><polygon fill="#dce6e2" points="679.926 2080.25 1242.771 2413.201 2416.025 1805.434 1854.941 1493.623 679.926 2080.25"></polygon></clipPath><clipPath id="c"><polygon fill="none" points="679.926 2080.25 1242.771 2413.201 2416.025 1805.434 1854.941 1493.623 679.926 2080.25"></polygon></clipPath><clipPath id="d"><path fill="#fff" d="M1433.02158,795.56389s-3.5391.8847-9.6922,2.5256c-30.1566,8.0425-123.1016,34.2514-169.9235,63.5151-56.3754,35.2346-58.1371,163.841-52.8519,232.5485s137.1368,336.4906,115.2543,369.9635,122.5794,81.7136,230.0449,67.2827,209.646-86.6618,209.646-86.6618v-273.0683s146.2237,160.3175,218.4547,135.6533,8.8086-303.0177,8.8086-303.0177l-81.0396-36.9964s-49.3285-100.4186-103.9421-116.2742S1433.02158,795.56389,1433.02158,795.56389Z"></path></clipPath><clipPath id="e"><path fill="#FF6FAD" d="M1505.77128,891.554l28.0434,58.1371-8.1829,490.9775a6.7251,6.7251,0,0,0,1.3477,4.1519l63.0377,83.8905a6.72478,6.72478,0,0,0,11.8861-2.3536l21.7509-83.9757a6.72407,6.72407,0,0,0,.1802-2.3676l-51.5552-506.1786,13.5547-42.2815S1548.49078,873.741,1505.77128,891.554Z"></path></clipPath><clipPath id="f"><path fill="#931f1c" d="M1410.2,469.91309s23.4897-48.154,89.8482-70.4693,88.0866,34.0602,135.9469,23.4898,93.6654,46.9795,46.6859,93.959-170.3006,103.3548-170.3006,103.3548l-82.2142,42.2816S1251.64418,499.27529,1410.2,469.91309Z"></path></clipPath><clipPath id="g"><path fill="#fcdccd" d="M1669.76158,506.32219s12.9194,54.0264,5.8725,81.0396,10.5704,76.3417-14.0939,120.9722-10.5703,48.154-90.4355,49.3285c0,38.758,10.5704,57.5498,10.5704,57.5498l-38.7581,62.2479s-55.2009-68.1203-91.61-84.5631c5.8724-42.2816,0-96.308,0-96.308s-59.8988-16.4428-48.154-56.3754,43.4561-11.7448,43.4561-11.7448,27.0132-7.047,10.5703-48.154,0-71.6437,27.0133-68.1203,58.7243,23.4898,88.0865,12.9194-30.5367,7.0469-24.6642-18.7918S1655.66778,552.12719,1669.76158,506.32219Z"></path></clipPath><clipPath id="h"><path fill="#571e1e" d="M1613.97448,679.55909s-29.9504,1.1744-49.9167,4.1107,11.7449,39.3453,30.5367,34.6473S1613.97448,679.55909,1613.97448,679.55909Z"></path></clipPath><clipPath id="i"><path fill="#f6c1ac" d="M1207.12708,1037.277s14.2073-32.9722,0-76.4282-10.6838-65.7713-24.7777-92.7845-11.7448,65.7712-11.7448,65.7712-12.9194,37.5836-23.4898-11.7448-28.1877-78.6907-38.7581-71.0565,18.7918,58.1371,11.7449,82.8013-34.0601-45.805-55.2009-69.2947-36.4091-17.0663-21.1408,9.6714,29.3622,69.3429,29.3622,69.3429-32.8856-56.09-49.3285-59.918,22.3153,54.8964,31.7112,81.9096,29.6636,40.1797,65.3347,77.0525S1207.12708,1037.277,1207.12708,1037.277Z"></path></clipPath><clipPath id="j"><path fill="#fff" d="M1115.99088,1048.93529s34.2571,186.7435,36.5409,268.9576,54.8114,144.4619,116.4743,106.8783,68.5142-143.8166,54.8114-187.008-102.7714-218.1901-102.7714-218.1901S1154.81558,1041.00749,1115.99088,1048.93529Z"></path></clipPath><clipPath id="k"><path fill="#FF6FAD" d="M2330.50318,558.05559s-146.6642,152.6346-333.7163,131.6005c-60.4252,61.638-16.54,134.9705-16.54,134.9705s244.7385,53.7202,305.0412,164.4267S2330.50318,558.05559,2330.50318,558.05559Z"></path></clipPath><clipPath id="l"><ellipse cx="2356.125" cy="783.137" fill="#83b5b5" rx="235.721" ry="71.53" transform="rotate(-85.27 2356.125 783.137)"></ellipse></clipPath><clipPath id="m"><path fill="#fcdccd" d="M1934.02128,877.46019s-11.7449-8.2215-9.3959,38.758-23.4898,49.3285-19.9663,77.5162,32.8856,44.8999,58.7244,43.456,8.2214-35.2346,32.8856-62.2478,25.8387-31.7112,18.7918-72.8182S1934.02128,877.46019,1934.02128,877.46019Z"></path></clipPath><clipPath id="n"><polygon fill="#fdc530" points="1585.048 1397.173 1061.84 2229.549 1947.066 1748.62 1585.048 1397.173"></polygon></clipPath></defs><path fill="#c3d1cb" d="M1807.79948,2694.243q-40.40175,11.11229-74.8465.7658-34.4487-10.32465-58.2512-40.1023-29.8677-37.29733-31.4403-84.20769-1.58655-46.9548,23.4606-93.94062,25.07355-47.007,71.8739-84.50328,36.70425-29.3928,71.2262-38.3053,34.4955-8.8914,62.6405.3115a97.586,97.586,0,0,1,46.8996,32.5415,112.87174,112.87174,0,0,1,17.3142,111.948q-10.92255,28.65015-36.618,49.2085-24.0462,19.25625-41.1644,1.892a60.47963,60.47963,0,0,1-8.0765,28.8428,84.00979,84.00979,0,0,1-20.9763,24.1199q-22.41945,17.95335-47.1487,16.7568-24.69885-1.23975-42.5425-23.4679-16.0491-20.0415-18.2294-43.421a84.96892,84.96892,0,0,1,8.1588-45.1138,106.19292,106.19292,0,0,1,30.161-37.6449q15.59445-12.488,27.1925-14.6766a30.853,30.853,0,0,1,21.0589,2.9836l-8.0264-18.6979,30.5538-24.4674,40.2307,91.5522c2.3429,5.1486,4.3081,8.7412,5.9402,10.77928,2.3756,2.96662,4.8641,4.39332,7.457,4.324,2.6013-.11318,5.5065-1.47338,8.7603-4.079a56.51051,56.51051,0,0,0,20.7569-33.71928,90.65056,90.65056,0,0,0-1.1728-41.09772q-5.307-20.61537-16.4599-34.54248-24.72645-30.87735-63.2894-31.0501-38.56275-.17265-84.7067,36.7608-38.3709,30.72735-58.4698,69.90378-20.15265,39.16383-18.5681,78.09192a115.49052,115.49052,0,0,0,25.8626,69.2726q21.84315,27.27672,50.6537,35.92809,28.83765,8.6853,61.3755-.9428,32.58675-9.64845,65.7106-36.19269c24.4959-19.6164,64.4543-55.3209,77.5671-78.9047l2.0953,23.8083a277.6794,277.6794,0,0,1-65.5805,75.33789Q1848.232,2683.0875,1807.79948,2694.243Zm29.6774-146.19659a54.95236,54.95236,0,0,0-.3092-28.0371,66.58012,66.58012,0,0,0-12.0613-24.38712q-9.5751-11.95692-21.2737-13.55318-11.70765-1.60773-24.6872,8.805-18.8481,15.09345-20.6341,36.8546-1.8042,21.73845,13.3431,40.6808,9.5751,11.95695,22.5471,13.4627,12.93645,1.5156,26.5774-9.4266Q1833.994,2562.02291,1837.47688,2548.04641Z" opacity=".68"></path><polygon fill="#c3d1cb" points="2009.824 2329.858 2236.206 2453.179 2584.148 2238.248 2372.74 2121.093 2009.824 2329.858" opacity=".68"></polygon><path fill="#fff0" d="M2843.57258,1163.87939c128.5685,446.041-119.479,913.1316-558.7162,1063.30823-316.1929,108.10729-688.4292,97.91989-957.0426,27.17089-102.0202-26.85069-198.6275-64.92209-286.2946-112.41989-343.1579-186.008-549.0527-516.72893-405.4342-886.46383,266.2251-685.3429,920.7036-564.0443,1265.6557-442.7758,138.2664,48.5926,285.8382,66.0775,431.2511,47.7107C2633.32858,822.43729,2774.57578,924.50949,2843.57258,1163.87939Z"></path><circle cx="1785.451" cy="382.442" r="82.442" fill="#fff0" transform="rotate(-45 1785.451 382.442)"></circle><circle cx="2843.867" cy="714.794" r="45.859" fill="#fff0" transform="rotate(-82.982 2843.867 714.794)"></circle><circle cx="802.561" cy="766.53" r="47.891" fill="#fff0" transform="rotate(-71.565 802.561 766.53)"></circle><path fill="#fff0" d="M681.75178 818.64389a17.02624 17.02624 0 00-16.5552-.9355c-49.8725 23.2789-336.2937 173.8591-352.9453 568.6104-12.0787 286.3426 33.8198 383.1089 66.2208 415.8098 10.4655 10.5624 28.4255 2.6713 27.5898-12.1744-4.0844-72.5611-9.756-268.7537 33.898-436.2114C492.77438 1151.146 753.69078 866.177 681.75178 818.64389zM2843.57258 1163.87939c128.5685 446.041-119.479 913.1316-558.7162 1063.30823-316.1929 108.10729-688.4292 97.91989-957.0426 27.17089-102.0202-26.85069-198.6275-64.92209-286.2946-112.41989-343.1579-186.008-549.0527-516.72893-405.4342-886.46383 266.2251-685.3429 920.7036-564.0443 1265.6557-442.7758 138.2664 48.5926 285.8382 66.0775 431.2511 47.7107C2633.32858 822.43729 2774.57578 924.50949 2843.57258 1163.87939z"></path><g clip-path="url(#a)"><path fill="#fff0" d="M2543.42728,718.73489s229.9933,1290.7924-1849.222,1115.0101c-1492.4929-126.1793,801.691,868.65931,1542.0008,619.43392S3233.103,1019.57309,3233.103,1019.57309Z" opacity=".58"></path></g><path fill="#9ab5a9" d="M1979.132,1814.54709h-.0752c-2.8281,0-5.6768-.04-8.4649-.1186l.1133-3.9985c2.7754.0786,5.6182.1103,8.4258.1171q1.74165,0,3.4922-.021l.0469,3.9998Q1980.89753,1814.54719,1979.132,1814.54709Zm15.6094-.394-.1993-3.9949c3.917-.1948,7.9209-.467,11.9004-.8088l.3418,3.9853C2002.758,1813.68069,1998.70618,1813.95579,1994.74138,1814.15309Zm-36.2178-.3191c-4.0391-.2851-8.0889-.6611-12.0361-1.1182l.4589-3.9733c3.8897.4499,7.8789.8205,11.8584,1.1015Zm60.2666-1.74-.4785-3.9712c3.9004-.4702,7.8789-1.0168,11.8242-1.6242l.6094,3.9533C2026.756,1811.06589,2022.73448,1811.61839,2018.79018,1812.094Zm-84.2783-1.0486c-3.9991-.6555-7.9981-1.4128-11.8868-2.2514l.8438-3.9102c3.8242.8247,7.7568,1.5696,11.6895,2.2141Zm108.1259-2.6172-.7324-3.9326c3.877-.7221,7.8155-1.5175,11.7061-2.3637l.8496,3.9087C2050.53138,1806.89529,2046.55388,1807.69879,2042.63778,1808.42819Zm-131.7763-2.4948c-3.9121-1.0618-7.8145-2.2376-11.5977-3.4939l1.2617-3.7964c3.7129,1.2334,7.543,2.3874,11.3838,3.4304Zm155.3457-2.6282-.9629-3.8821c3.8232-.9485,7.7109-1.9709,11.5557-3.0393l1.0712,3.8538C2073.99038,1801.31589,2070.06658,1802.34819,2066.20718,1803.30519Zm-178.3242-5.0146c-3.7618-1.4971-7.503-3.1189-11.1192-4.8204l1.7031-3.6193c3.543,1.6669,7.209,3.2561,10.8956,4.7231Zm201.5605-1.4402-1.1758-3.8233c3.7754-1.1609,7.6035-2.393,11.377-3.6628l1.2754,3.7912C2097.11338,1794.43649,2093.25208,1795.67969,2089.44348,1796.85039Zm22.8516-7.6863-1.3731-3.7573c3.7051-1.3531,7.4649-2.7803,11.1758-4.2427l1.4668,3.7214C2119.82238,1786.36039,2116.03038,1787.79959,2112.29508,1789.16409Zm-246.333-1.1941c-3.5411-1.9473-7.0498-4.0266-10.4287-6.1804l2.1503-3.3731c3.3067,2.1079,6.7403,4.1426,10.2061,6.0481Zm268.7607-7.6414-1.5566-3.6843c3.6435-1.5403,7.3291-3.1516,10.9541-4.7891l1.6464,3.6453C2142.11248,1777.15159,2138.39658,1778.77589,2134.72278,1780.32859Zm-289.1924-5.3896c-3.2461-2.3843-6.4512-4.9075-9.5263-7.4993l2.5781-3.0583c3.0068,2.5346,6.1416,5.0019,9.3154,7.334Zm311.1592-4.5308-1.7324-3.605c3.582-1.7224,7.1972-3.5136,10.7451-5.3244l1.8184,3.5625C2163.94448,1766.86649,2160.30088,1768.67239,2156.68958,1770.40819Zm21.5234-10.9851-1.9023-3.5188c3.5019-1.8928,7.0234-3.8503,10.4678-5.8183l1.9843,3.4729C2185.29208,1755.54249,2181.74228,1757.51559,2178.213,1759.42309Zm-351.2148-.1035c-2.8926-2.7871-5.7344-5.7139-8.4473-8.699l2.961-2.6904c2.6533,2.9204,5.4336,5.7832,8.2617,8.5095Zm372.165-11.8674-2.0654-3.4253c3.4023-2.0513,6.8232-4.1695,10.168-6.2957l2.1465,3.3758C2206.04018,1743.25,2202.59288,1745.385,2199.16318,1747.45219Zm-388.4707-6.0603c-2.4961-3.1292-4.9365-6.395-7.2549-9.7068l3.2774-2.294c2.2705,3.2442,4.6601,6.4424,7.1045,9.5064Zm408.8067-6.8665-2.2246-3.3242c3.2968-2.2068,6.6084-4.4819,9.8427-6.7612l2.3047,3.2697C2226.16128,1730.00759,2222.82238,1732.30059,2219.49918,1734.52539Zm-422.7051-12.957c-2.0938-3.3599-4.2002-6.8208-6.2598-10.2869l3.4385-2.0439c2.0459,3.4421,4.1367,6.8789,6.2158,10.2155Zm442.375-.9058-2.3818-3.2136c3.1738-2.3525,6.3671-4.7813,9.4912-7.219l2.4609,3.1533C2245.589,1715.84159,2242.36928,1718.29059,2239.16908,1720.66259Zm18.9502-14.7883-2.5391-3.0908c3.0684-2.5203,6.1426-5.1123,9.1387-7.7039l2.6172,3.0252C2264.31458,1700.71849,2261.214,1703.33279,2258.11928,1705.87429Zm-473.6279-5.0093c-1.9454-3.4341-3.9063-6.979-5.8282-10.5366l3.5196-1.9009c1.9091,3.5337,3.8564,7.0549,5.789,10.4658Zm491.8574-10.7676-2.6953-2.9555c2.9355-2.6775,5.8691-5.4268,8.7187-8.1712l2.7754,2.8811C2282.27158,1684.62139,2279.31168,1687.39529,2276.34878,1690.09739Zm-503.2988-10.4201c-1.8311-3.5586-3.6495-7.1783-5.4034-10.7588l3.5918-1.7598c1.7432,3.5569,3.5489,7.1531,5.3682,10.6882Zm520.666-6.3098-2.8535-2.803c2.7978-2.8479,5.5722-5.7551,8.248-8.6414l2.9336,2.7195C2299.34188,1667.55689,2296.54018,1670.49219,2293.716,1673.36749Zm-531.2647-15.3081c-1.6875-3.616-3.3662-7.3018-4.9892-10.9556l3.6562-1.6236c1.6123,3.6307,3.2803,7.2937,4.958,10.8873Zm547.6621-2.3831-3.0136-2.6304c2.6308-3.0141,5.2265-6.0805,7.7138-9.1142l3.0938,2.5363C2315.39368,1649.53319,2312.77068,1652.63139,2310.11338,1655.67629Zm15.294-18.6609-3.1739-2.4351c2.4307-3.1674,4.8213-6.3935,7.1055-9.5878l3.2539,2.3269C2330.28238,1630.55009,2327.86438,1633.81229,2325.40738,1637.01539Zm-572.7178-.9307c-1.5488-3.6691-3.0869-7.405-4.5713-11.1045l3.7129-1.489c1.4746,3.677,3.0029,7.3904,4.5439,11.0371Zm-1106.8604-14.1071c-3.5009-.0005-7.0175-.0386-10.4531-.1133l.0879-3.999c3.4063.0742,6.8936.1118,10.3652.1123l1.5831-.0025.0136,4Zm13.6387-.1844-.1074-3.9987c3.916-.1048,7.9346-.2569,11.9443-.4527l.1953,3.9954C667.46008,1621.534,663.41228,1621.68749,659.46788,1621.79319Zm-36.1299-.3503c-4.038-.1963-8.0839-.4497-12.0244-.7539l.3076-3.988c3.9034.301,7.9102.5522,11.9102.7465Zm60.1817-.8181-.2774-3.9905c3.9161-.2727,7.9268-.5916,11.9229-.9475l.3555,3.9841C691.49918,1620.02929,687.46108,1620.35039,683.51968,1620.62479Zm-84.209-1.042c-4.0166-.4324-8.042-.9307-11.9648-1.4812l.5556-3.961c3.8809.5445,7.8633,1.0376,11.8369,1.4651Zm108.1865-1.0916-.4277-3.977c3.9131-.4212,7.9121-.8867,11.8867-1.3836l.4961,3.969C715.45518,1617.59959,711.43278,1618.06789,707.49718,1618.49119Zm1631.9453-1.1115-3.334-2.21c2.2081-3.3313,4.3643-6.7153,6.4082-10.0583l3.4122,2.0861C2343.85948,1610.58229,2341.67788,1614.00809,2339.44248,1617.37969Zm-1764.0117-1.156c-3.9805-.698-7.9658-1.4712-11.8457-2.2974l.834-3.9121c3.832.8161,7.7695,1.5798,11.7031,2.2698Zm155.9483-.7134-.5606-3.9607c3.9014-.5518,7.8848-1.1465,11.8399-1.7673l.621,3.9514C739.30388,1614.35789,735.3,1614.95559,731.37908,1615.51029Zm1012.3671-1.7154c-1.4189-3.7275-2.8232-7.5161-4.1738-11.2609l3.7617-1.3572c1.3438,3.7229,2.7403,7.4895,4.1504,11.1951Zm-988.5966-2.0124-.6768-3.9424c3.875-.6655,7.8408-1.3743,11.7881-2.1067l.7305,3.9329C763.02648,1610.40189,759.04208,1611.114,755.14958,1611.78249Zm-203.3204-.595c-3.9189-.9934-7.8359-2.07-11.6435-3.2004l1.1387-3.8345c3.7558,1.115,7.6211,2.1775,11.4873,3.1575Zm226.9727-3.7922-.7793-3.9234c3.8506-.7656,7.7988-1.5754,11.7344-2.4069l.8262,3.9135C786.633,1605.81349,782.66908,1606.62619,778.80188,1607.39529Zm-250.1143-3.0759c-3.8584-1.3023-7.6835-2.6482-11.3662-4.001l1.3789-3.7549c3.6504,1.3408,7.4405,2.675,11.2666,3.9658Zm273.6456-1.8951-.8711-3.9038q5.81685-1.29855,11.6787-2.6736l.914,3.8943Q808.17058,1601.12074,802.33318,1602.42429Zm23.413-5.4882-.9531-3.8851q5.79195-1.4205,11.625-2.9111l.9903,3.8757Q831.55478,1595.51049,825.74618,1596.93609Zm1526.2813-.1617-3.4912-1.9526c1.9433-3.4734,3.8291-7.0115,5.6054-10.5159l3.5684,1.8091C2355.90838,1589.66729,2353.99618,1593.25369,2352.02748,1596.77439Zm-1845.9609-.7746c-3.7881-1.5191-7.5284-3.0904-11.1192-4.6702l1.6113-3.6611c3.5498,1.5617,7.25,3.1159,10.9971,4.6191Zm1229.5283-4.7986c-1.2774-3.7412-2.5498-7.5764-3.7823-11.3999l3.8067-1.2275c1.2256,3.8017,2.4912,7.6157,3.7607,11.3352Zm-886.5547-.2146-1.0254-3.8662q5.767-1.5297,11.5732-3.1226l1.0586,3.8574Q854.82388,1589.453,849.04018,1590.98659Zm-365.0488-4.7163c-3.6827-1.7861-7.3008-3.6338-10.7559-5.4922l1.8945-3.5225c3.4053,1.8316,6.9746,3.6538,10.6075,5.4156Zm388.2324-1.6428-1.0899-3.8487q5.74365-1.6266,11.5215-3.311l1.1192,3.8401Q877.98248,1582.99689,872.22378,1584.62749Zm23.0771-6.7256-1.1484-3.8318q5.7216-1.71345,11.4746-3.48l1.1738,3.8237Q901.03533,1576.18409,895.30088,1577.90189Zm1467.6436-2.6765-3.6426-1.6548c1.6455-3.6206,3.2207-7.3035,4.6826-10.9466l3.7129,1.49C2366.213,1567.81229,2364.61338,1571.55059,2362.94448,1575.22539Zm-1900.2178-.4207c-3.5176-2.114-6.9492-4.3042-10.2012-6.509l2.2442-3.3111c3.1924,2.1643,6.5625,4.315,10.0176,6.3919Zm455.5488-3.956-1.1992-3.816q5.6997-1.79115,11.4287-3.6311l1.2227,3.8084Q923.98688,1569.05349,918.27548,1570.84869Zm809.9522-2.5108c-1.1553-3.8042-2.2969-7.6814-3.3926-11.5239l3.8457-1.0974c1.0908,3.821,2.2256,7.6762,3.375,11.4587Zm-787.0713-4.8357-1.2461-3.8012q5.67915-1.8612,11.3867-3.7664l1.2656,3.7944Q946.84533,1561.63729,941.15638,1563.50219Zm-498.4443-2.311c-3.2588-2.5213-6.3975-5.1316-9.3291-7.759l2.6699-2.9788c2.8603,2.5635,5.9248,5.1118,9.1064,7.5745Zm521.2363-5.2974-1.2871-3.7876q5.6601-1.92255,11.3457-3.8872l1.3066,3.7808Q969.61688,1553.967,963.94838,1555.89379Zm1407.9883-3.1015-3.7793-1.3125c1.3086-3.7676,2.5293-7.5787,3.6279-11.3272l3.8379,1.1245C2374.507,1545.08839,2373.26668,1548.96289,2371.93668,1552.79229Zm-1385.2783-4.7417-1.3243-3.7747q5.6427-1.97895,11.3106-3.9956l1.3398,3.7686Q992.30818,1546.068,986.65838,1548.05059Zm734.9775-2.8157c-1.0322-3.8589-2.0449-7.7727-3.0078-11.6314l3.8808-.9687c.958,3.8371,1.9639,7.729,2.9903,11.5669Zm-1296.9688-.272c-2.8339-2.9961-5.5078-6.0989-7.9492-9.2217l3.1524-2.4633c2.3632,3.0246,4.955,6.0312,7.7031,8.9365Zm584.627-4.9653-1.3574-3.763q5.62785-2.029,11.2763-4.0925l1.3711,3.7573Q1014.92833,1537.96519,1009.29408,1539.99759Zm22.5644-8.2407-1.3867-3.752q5.6133-2.0742,11.2451-4.1789l1.4004,3.7468Q1037.47773,1529.68,1031.85848,1531.75689Zm1346.8672-2.1687-3.8906-.9256c.918-3.8594,1.7383-7.772,2.4385-11.6286l3.9355.7148C2380.49618,1521.67559,2379.66028,1525.659,2378.72568,1529.58819Zm-1969.0107-3.8311a106.62271,106.62271,0,0,1-5.8711-10.7104l3.6133-1.7154a102.71091,102.71091,0,0,0,5.6504,10.3072Zm644.6455-2.4075-1.4121-3.7422q5.6001-2.1141,11.2178-4.2556l1.4238,3.7378Q1059.96648,1521.23264,1054.36048,1523.34959Zm661.4521-1.4262c-.8945-3.8538-1.7773-7.7984-2.624-11.7246l3.9102-.8428c.8418,3.9055,1.7197,7.8293,2.6103,11.6623Zm-639.0068-7.1287-1.4355-3.7334q5.5869-2.14935,11.1914-4.3232l1.4472,3.7295Q1082.39858,1512.64274,1076.80578,1514.79469Zm22.3916-8.6853-1.457-3.7256q5.57805-2.1804,11.1709-4.3826l1.4648,3.722Q1104.779,1503.927,1099.19738,1506.10939Zm1283.8438-.3198-3.9688-.4942c.4883-3.925.8682-7.8943,1.127-11.7968l3.9922.2651C2383.92588,1497.74269,2383.54018,1501.78879,2383.04118,1505.78959Zm-1983.7666-2.0823a100.20545,100.20545,0,0,1-3.1524-11.8157l3.9199-.7934a96.26207,96.26207,0,0,0,3.0274,11.342Zm1311.4834-5.2766c-.7735-3.9041-1.5274-7.8762-2.2413-11.8064l3.9356-.7146c.71,3.9092,1.46,7.8603,2.2295,11.7434Zm-589.2139-1.1206-1.4746-3.7185q5.56785-2.20755,11.1494-4.4343l1.4824,3.7148Q1127.11588,1495.10079,1121.54408,1497.31009Zm22.3057-8.8985-1.4903-3.7121q5.56065-2.2314,11.1338-4.4795l1.4961,3.7097Q1149.41268,1486.17939,1143.84978,1488.41159Zm1240.79-6.7426-4-.0308q.00585-.7533.0059-1.5066c0-3.447-.0918-6.9348-.2715-10.3672l3.9941-.2097c.1836,3.502.2774,7.0603.2774,10.5769Q2384.64568,1480.90034,2384.63978,1481.669Zm-1990.2188-1.8821c-.2324-2.8738-.3505-5.825-.3505-8.7715q-.0015-1.71525.0517-3.4368l3.9981.1214q-.0498,1.65855-.0498,3.3135c0,2.8413.1132,5.684.3369,8.4509Zm771.6993-.3587-1.503-3.7072q5.5533-2.2512,11.1182-4.5174l1.5078,3.7049Q1171.67543,1477.17559,1166.12028,1479.42819Zm540.3476-4.6464c-.6504-3.9473-1.2754-7.9424-1.8584-11.8736l3.9571-.5874c.58,3.9107,1.2021,7.8845,1.8486,11.8113Zm-518.1064-4.4082-1.5137-3.7027q5.5473-2.26785,11.1045-4.5481l1.5195,3.7007Q1193.91278,1468.10469,1188.36148,1470.37359Zm22.2138-9.1133-1.5224-3.6988q5.54445-2.2818,11.0967-4.5734l1.5263,3.6975Q1216.12123,1458.97834,1210.57528,1461.26029Zm1168.8184-3.3325c-.4443-3.9124-1.0146-7.8663-1.6963-11.7515l3.9395-.6909c.6953,3.9643,1.2773,7.9988,1.7314,11.9909Zm-1980.3154-1.971-3.9658-.5205c.5136-3.9207,1.2304-7.9485,2.1279-11.9719l3.9043.8713C400.27258,1448.24339,399.57728,1452.15329,399.07828,1455.95679Zm833.6924-3.8555-1.5293-3.6962,11.0449-4.5743,1.5312,3.6951Zm470.1709-1.0971c-.5166-3.9273-1.0137-7.9407-1.4756-11.9292l3.9746-.46c.459,3.9675.9521,7.96,1.4678,11.8665Zm-448.0743-8.0625-1.5332-3.6941,11.0528-4.5923,1.5351,3.6934Zm1120.4268-8.3938c-.9102-3.8216-1.9502-7.6792-3.0928-11.4656l3.8301-1.155c1.1641,3.8618,2.2256,7.7961,3.1533,11.6943Zm-1098.3154-.7991-1.5371-3.6929,11.0625-4.6049,1.5371,3.6923Zm-872.7979-.8511-3.8242-1.1723c1.1533-3.7625,2.4853-7.6211,3.96-11.4685l3.7343,1.4309C406.61048,1425.45069,405.30778,1429.22219,404.18078,1432.89769Zm1296.0039-5.7768c-.3926-3.9654-.7588-7.9934-1.0898-11.9724l3.9863-.3311c.3291,3.9583.6934,7.9651,1.084,11.9094Zm-401.0762-2.5862-1.5371-3.6924,11.0743-4.6123,1.5371,3.6929Zm22.1534-9.2253-1.5371-3.6929,11.0869-4.6138,1.5361,3.6931Zm1047.1806-3.4957c-1.3447-3.6777-2.8222-7.3925-4.3925-11.0402l3.6738-1.5816c1.5996,3.7163,3.1054,7.5005,4.4756,11.2478Zm-1955.8056-1.0866-3.6426-1.6509c1.623-3.5835,3.4033-7.2483,5.2891-10.8928l3.5527,1.8386C415.98158,1403.605,414.23258,1407.20659,412.63688,1410.72709Zm930.8047-4.6426-1.5352-3.6941,11.1035-4.6099,1.5332,3.6949Zm354.7578-2.9263c-.2657-3.997-.502-8.0361-.7002-12.0044l3.9941-.2002c.1983,3.9468.4326,7.9632.6983,11.9385Zm-332.5469-6.2876-1.5293-3.696,11.1221-4.6001,1.5273,3.6968Zm993.4043-6.884c-1.7383-3.5068-3.6074-7.0444-5.5557-10.5142l3.4883-1.958c1.9815,3.5291,3.8828,7.1277,5.6514,10.6953Zm-1935.4981-.4153-3.4628-2.0007c1.9677-3.4077,4.0751-6.8877,6.2617-10.3435l3.3808,2.1394C427.57918,1382.77659,425.50008,1386.21,423.55868,1389.57129Zm964.3428-1.8923-1.5234-3.6983q5.5707-2.29605,11.1416-4.5854l1.5215,3.6997Q1393.47183,1385.38339,1387.90148,1387.679Zm309.0899-8.5396c-.1358-4.0051-.2403-8.05-.3106-12.0224l4-.0703c.0693,3.9509.1729,7.9736.3086,11.957Zm-286.8018-.6181-1.5156-3.7017q5.55765-2.27565,11.1123-4.543l1.5117,3.7036Q1415.74483,1376.24639,1410.18958,1378.52129Zm22.2217-9.0672-1.5059-3.706q5.565-2.2611,11.127-4.5117l1.5,3.708Q1437.97323,1367.19394,1432.41128,1369.45409Zm-996.0987-.0554-3.3007-2.2602c2.2256-3.2488,4.583-6.5701,7.0078-9.8709l3.2246,2.3679C440.84488,1362.90109,438.51278,1366.18629,436.31258,1369.39869Zm1911.1114-.1528c-2.084-3.3184-4.291-6.6597-6.5615-9.9309l3.2851-2.281c2.3057,3.3217,4.5479,6.7148,6.6631,10.0852Zm-892.7637-8.7935-1.4941-3.7102q5.5722-2.2437,11.1425-4.4753l1.4873,3.7131Q1460.22963,1358.21019,1454.66028,1360.45239Zm245.9082-5.3694h-4v-.8225c0-3.7346.0293-7.5017.0859-11.197l4,.0618c-.0566,3.675-.0859,7.4214-.0859,11.1352Zm-223.6299-3.5542-1.4804-3.716q5.581-2.22375,11.1601-4.4322l1.4727,3.7195Q1482.51578,1349.30614,1476.93858,1351.52879Zm-1026.4707-1.425-3.1523-2.4627c2.4287-3.1086,4.9678-6.2697,7.5478-9.3952l3.085,2.5464C455.39168,1343.88989,452.87418,1347.02269,450.46788,1350.10379Zm1883.3906-.4177c-2.3779-3.1216-4.871-6.2601-7.4111-9.3282l3.0801-2.5512c2.5752,3.1096,5.1035,6.2912,7.5127,9.456Zm-834.6074-6.9908-1.4648-3.7224q5.59275-2.19975,11.1797-4.3828l1.455,3.7256Q1504.83993,1340.49684,1499.25108,1342.69529Zm22.3535-8.7309-1.4462-3.7295q5.60295-2.1735,11.2021-4.3267l1.4355,3.7329Q1527.20323,1331.793,1521.60458,1333.96439Zm-1055.9218-2.3057-3.0215-2.6216c2.5879-2.9826,5.2832-6.0173,8.0107-9.0193l2.961,2.69C470.92588,1325.68729,468.25108,1328.69879,465.68278,1331.65869Zm1852.9843-.3286c-2.6142-2.9185-5.3457-5.8567-8.1171-8.7327l2.8798-2.7758c2.8057,2.9108,5.5703,5.885,8.2159,8.8396Zm-617.7295-.1577-3.998-.1279c.1279-4.0061.292-8.0481.4863-12.0147l3.9942.1953C1701.22768,1323.16949,1701.06558,1327.189,1700.93758,1331.17239Zm-156.9394-5.8233-1.4258-3.7373q5.61765-2.143,11.2276-4.2639l1.414,3.7415Q1549.60953,1323.20829,1543.99818,1325.34909Zm22.4434-8.4851-1.4024-3.7456q5.63085-2.1093,11.2539-4.1941l1.3906,3.7508Q1572.066,1314.75694,1566.44158,1316.864Zm735.6845-2.7109c-2.8193-2.7314-5.748-5.478-8.7031-8.1633l2.6895-2.9605c2.9873,2.7139,5.9462,5.4898,8.7968,8.251Zm-1820.3447-.2222-2.9023-2.7524c2.7343-2.8836,5.5566-5.7993,8.3857-8.6672l2.8477,2.809C487.30088,1308.16969,484.49818,1311.06689,481.78138,1313.93089Zm1107.1572-5.407-1.3769-3.7556q5.6469-2.0712,11.2832-4.1154l1.3633,3.7602Q1594.58018,1306.45429,1588.93858,1308.52389Zm113.166-1.2373-3.9912-.2631c.2627-4.0003.5625-8.0357.8907-11.9934l3.9863.3303C1702.66418,1299.29569,1702.36638,1303.30839,1702.10458,1307.28659Zm-90.6123-6.9423-1.3496-3.7652q5.6646-2.03025,11.3155-4.0298l1.3339,3.771Q1617.14953,1298.31724,1611.49228,1300.34429Zm672.9746-2.2459c-2.9726-2.5427-6.0634-5.1096-9.1845-7.6286l2.5117-3.1128c3.1514,2.5429,6.2705,5.134,9.2725,7.7014Zm-1785.8584-1.228-2.7929-2.8628c2.8525-2.7839,5.7822-5.5913,8.706-8.3447l2.7422,2.9121C504.35658,1291.31229,501.44448,1294.10309,498.60848,1296.87039Zm1135.501-4.5281-1.3183-3.7766q5.68065-1.98375,11.3496-3.9348l1.3008,3.7822Q1639.78133,1290.36129,1634.10948,1292.34229Zm22.6807-7.8069-1.2852-3.7883q5.6997-1.9329,11.3858-3.8303l1.2656,3.7944Q1662.48008,1282.60494,1656.79018,1284.53539Zm47.291-1.0844-3.9805-.3987c.4004-3.9905.8379-8.0139,1.3028-11.9585l3.9726.4677C1704.91418,1275.48339,1704.47868,1279.48339,1704.08118,1283.451Zm561.8066-.3572c-2.6845-2.0515-5.4609-4.1253-8.2529-6.1636l-1.3301-.9658,2.3438-3.2422,1.3457.9775c2.8144,2.0552,5.6152,4.1465,8.3223,6.2159Zm-1749.8212-2.6629-2.6915-2.959c2.9395-2.6735,5.9649-5.3784,8.9922-8.04l2.6407,3.0042C521.99718,1275.08279,518.98838,1277.77249,516.06658,1280.43089Zm1163.4765-3.4875-1.2461-3.8006q5.72025-1.87755,11.4248-3.7153l1.2266,3.8071Q1685.25453,1275.06939,1679.54308,1276.94339Zm22.8281-7.356-1.205-3.8139q5.74065-1.81575,11.4658-3.5894l1.1836,3.8208Q1708.10268,1267.77519,1702.37118,1269.58739Zm544.1446-.4189c-3.2881-2.1922-6.6641-4.3535-10.0352-6.4231l2.0938-3.409c3.4131,2.096,6.832,4.2842,10.1601,6.5042Zm-1712.4287-4.5777-2.5899-3.0483c3.0694-2.6079,6.1865-5.2102,9.2666-7.7356l2.5371,3.093C540.23838,1259.41069,537.13878,1261.99809,534.08708,1264.59079Zm1191.1904-2.1008-1.1602-3.8279q5.7642-1.74825,11.5088-3.4511l1.1367,3.8349Q1731.02948,1260.74509,1725.27748,1262.49Zm-18.3994-2.7934-3.9639-.5376c.5381-3.9739,1.1172-7.9803,1.7197-11.9065l3.9532.6067C1707.98838,1251.76249,1707.41318,1255.74539,1706.87808,1259.69659Zm519.332-2.9969c-3.4394-1.9394-6.9687-3.844-10.4892-5.6616l1.8339-3.5547c3.5655,1.8401,7.1377,3.7688,10.6202,5.732Zm-477.9414-1.0234-1.1113-3.8425q5.7876-1.6743,11.5537-3.2998l1.0859,3.8501Q1754.04313,1254.00559,1748.26868,1255.67629Zm-1195.6152-6.2971-2.4746-3.1424c6.0117-4.7356,9.6201-7.3759,9.6562-7.4018l2.3594,3.23C562.15928,1242.09059,558.60168,1244.69339,552.65348,1249.37919Zm1218.6943-.2058-1.0576-3.8575q5.8125-1.5933,11.6015-3.1335l1.0274,3.8657Q1777.14468,1247.58439,1771.34778,1249.17339Zm433.6797-3.4102c-3.5713-1.6816-7.2324-3.3259-10.8809-4.8872l1.5743-3.6772c3.6914,1.5795,7.3955,3.2436,11.0097,4.9453Zm-410.5117-2.7512-.9981-3.8738q5.8389-1.50405,11.6504-2.9507l.9668,3.8816Q1800.33708,1241.51194,1794.51578,1243.012Zm23.2617-5.7879-.9336-3.8896q5.8653-1.40625,11.7012-2.7505l.8974,3.898Q1823.62413,1235.82194,1817.77748,1237.22409Zm365.3203-.8488c-3.6719-1.4217-7.4414-2.8064-11.2021-4.117l1.3164-3.7773c3.8037,1.3252,7.6152,2.7263,11.3291,4.164Zm-472.5918-.3206-3.9414-.6772c.6787-3.9534,1.3994-7.9366,2.1426-11.8391l3.9297.7482C1711.89858,1228.16529,1711.18178,1232.12479,1710.506,1236.05469Zm130.626-4.2075-.8613-3.9063q5.89155-1.29855,11.7519-2.5305l.8223,3.9146Q1847.00448,1230.55244,1841.132,1231.84719Zm319.4267-3.3289c-3.7587-1.1711-7.6132-2.3049-11.457-3.3689l1.0664-3.8549c3.8858,1.0754,7.7813,2.2211,11.5801,3.4052Zm-295.9765-1.5974-.7822-3.9228q5.918-1.18035,11.8017-2.2881l.7402,3.9306Q1870.47958,1225.74519,1864.58218,1226.92089Zm23.5439-4.4302-.6953-3.9392c3.9639-.7002,7.9522-1.3803,11.8535-2.0217l.6485,3.9468C1896.047,1221.11569,1892.07528,1221.79319,1888.12608,1222.49069Zm249.4131-.3486c-3.8262-.9326-7.7461-1.8259-11.6514-2.6553l.8311-3.9128c3.9443.8376,7.9033,1.7397,11.7676,2.6819Zm-225.7783-3.5359-.5996-3.9546c3.9785-.6042,7.9834-1.1853,11.9004-1.7275l.5488,3.9622C1919.71008,1217.42629,1915.72278,1218.00489,1911.76088,1218.60619Zm202.4004-1.4331c-3.8692-.7063-7.8321-1.373-11.7774-1.9819l.6094-3.9531c3.9824.614,7.9815,1.2873,11.8867,2Zm-178.6807-1.8501-.4951-3.9692c3.9873-.4973,8.0068-.9697,11.9463-1.4041l.4385,3.9759C1943.44938,1214.35789,1939.44938,1214.82809,1935.48058,1215.323Zm155.0742-1.7961c-3.9072-.4978-7.9023-.9553-11.8711-1.3596l.4053-3.9795c4.002.4079,8.0303.8691,11.9717,1.3711Zm-131.2793-.8247-.3789-3.982c4.0127-.3818,8.045-.7336,11.9844-1.0461l.3164,3.9875C1967.27748,1211.97219,1963.26668,1212.32249,1959.27548,1212.70219Zm-244.2959-.1428-3.915-.8196c.8213-3.9258,1.6865-7.8802,2.5723-11.7532l3.8984.8906C1716.65638,1204.72679,1715.796,1208.65749,1714.97958,1212.55939Zm351.8018-1.4588c-3.9258-.3047-7.9395-.5691-11.9277-.7866l.2177-3.9939c4.0196.219,8.0635.4856,12.0186.7925Zm-83.6494-.2881-.25-3.9922c4.0205-.2524,8.0635-.4716,12.0156-.6513l.1816,3.9961C1991.15048,1210.34349,1987.131,1210.56129,1983.132,1210.81249Zm59.7783-1.0171c-3.9365-.1279-7.958-.2163-11.9561-.2629l.0469-3.9998c4.0254.0469,8.0752.136,12.0391.2647Zm-35.875-.0673-.1094-3.9983c4.0283-.1101,8.0782-.1829,12.0362-.2156l.0332,3.9995C2015.06258,1209.54669,2011.03818,1209.61869,2007.03528,1209.72809Zm-286.7266-20.4815-3.8828-.9634c.9658-3.8921,1.9776-7.8113,3.0078-11.6494l3.8633,1.0366C1722.27358,1181.48419,1721.26868,1185.37919,1720.30868,1189.24659Zm6.1944-23.0928-3.8438-1.1093c1.1035-3.8208,2.2627-7.6983,3.4463-11.5247l3.8213,1.1821C1728.75108,1158.50469,1727.59878,1162.35739,1726.50308,1166.15379Zm1050.2178-17.5573-1.3194-3.7762c1.4111-.4931,2.832-1.0319,4.2207-1.6013l1.5166,3.7017C2779.68468,1147.51609,2778.19838,1148.08029,2776.72088,1148.59649Zm-1043.1475-5.2752-3.7969-1.2573c1.2549-3.7901,2.5635-7.6187,3.8916-11.3801l3.7715,1.331C1736.12118,1135.752,1734.82048,1139.55589,1733.57338,1143.32129Zm1058.5693-1.7759-1.9824-3.4748a100.52641,100.52641,0,0,0,9.8447-6.4217l2.375,3.2193A104.80279,104.80279,0,0,1,2792.14268,1141.54539Zm19.6533-14.436-2.6992-2.9519c2.8399-2.5969,5.6397-5.4148,8.3213-8.3748l2.9649,2.6861C2817.61728,1121.521,2814.72868,1124.42819,2811.796,1127.10939Zm-1070.2685-6.3198-3.7441-1.4055c1.4033-3.7408,2.8632-7.5135,4.3378-11.2137l3.7168,1.4807C1744.37218,1113.32689,1742.923,1117.07449,1741.52748,1120.78959Zm1086.6279-11.678-3.1797-2.4265c2.3448-3.0725,4.6368-6.332,6.8135-9.6882l3.3555,2.1765C2832.91318,1102.61479,2830.56168,1105.95849,2828.15538,1109.11159Zm-1077.7851-10.5076-3.6856-1.5561c1.5469-3.6614,3.1572-7.3704,4.7881-11.0242l3.6523,1.6301C1753.506,1091.28319,1751.90538,1094.96729,1750.37028,1098.604Zm1091.0156-9.8408-3.5-1.9372c1.8877-3.4097,3.707-6.9646,5.4082-10.5667l3.6172,1.7085C2845.173,1081.647,2843.31458,1085.27879,2841.38588,1088.76319Zm-1081.2803-11.9558-3.6181-1.7061c1.6904-3.5854,3.4521-7.2231,5.2363-10.8122l3.582,1.7805C1763.53428,1069.63409,1761.78428,1073.24689,1760.10558,1076.80739Zm1091.6475-9.9504-3.7129-1.4873c1.456-3.6348,2.8369-7.3877,4.1045-11.1556l3.791,1.2757C2854.64368,1059.32839,2853.23648,1063.15289,2851.75308,1066.857Zm-1081.0225-11.4095-3.543-1.8562c1.8448-3.521,3.7569-7.0793,5.6846-10.5766l3.5039,1.9306C1774.46208,1048.41819,1772.56258,1051.95169,1770.73058,1055.44749Zm1088.752-11.5344-3.8535-1.0688c1.0488-3.7854,2.0175-7.669,2.8798-11.543l3.9043.8684C2861.53628,1036.11059,2860.55088,1040.06149,2859.48258,1043.91309Zm-1077.2412-9.343-3.461-2.0064c1.9912-3.435,4.0537-6.9062,6.1299-10.3168l3.416,2.0798C1786.26578,1027.71289,1784.21788,1031.15939,1782.24138,1034.57009Zm1082.499-14.2752-3.9434-.6718c.6602-3.8721,1.2334-7.835,1.7071-11.7783l3.9707.476C2865.99528,1012.32939,2865.41128,1016.35819,2864.74038,1020.29489Zm-1070.086-6.1103-3.371-2.1536c2.1464-3.3589,4.3652-6.7483,6.5947-10.0744l3.3222,2.2273C1798.98748,1007.48559,1796.78428,1010.85059,1794.65438,1014.18459Zm1072.9698-17.9055-3.9903-.2842c.2803-3.9424.4698-7.9434.5635-11.8914l3.9981.094C2868.10168,988.20879,2867.90928,992.27369,2867.62418,996.27909Zm-1059.6592-1.9497-3.2725-2.3001c2.292-3.261,4.6582-6.5493,7.0332-9.7739l3.2207,2.3721C1812.589,987.82809,1810.24038,991.09259,1807.965,994.32939Zm14.1767-19.2459-3.1679-2.4436c2.4404-3.1631,4.9512-6.3428,7.4609-9.4509l3.1113,2.5132C1827.05478,968.78709,1824.56358,971.94389,1822.14168,975.08349Zm1042.0547-2.8847c-.0957-3.9512-.2861-7.9522-.5673-11.8919l3.9902-.2847c.2851,4.0022.4785,8.0664.5752,12.0804ZM1837.16028,956.489l-3.0547-2.5822c2.5742-3.0452,5.2246-6.1097,7.877-9.1075l2.9961,2.6504C1842.34588,950.42529,1839.715,953.46659,1837.16028,956.489Zm1025.3408-8.0334c-.4687-3.9351-1.0371-7.8999-1.6894-11.7837l3.9453-.6619c.6621,3.9458,1.2392,7.9742,1.7158,11.972Zm-1009.5029-9.8677-2.9356-2.7173c2.7051-2.9228,5.4903-5.8647,8.2764-8.7444l2.875,2.7815C1858.44738,932.76609,1855.68368,935.68649,1852.99818,938.58789Zm1005.5664-13.6055c-.8398-3.8674-1.7842-7.759-2.8047-11.5664l3.8633-1.0361c1.0381,3.8694,1.9971,7.8237,2.8496,11.7539Zm-988.9434-3.5678-2.8105-2.8455c2.8379-2.8035,5.751-5.6179,8.6602-8.365l2.746,2.908C1875.33018,915.83859,1872.43858,918.63209,1869.62118,921.41459Zm17.378-16.4114-2.6817-2.9688c2.96-2.673,5.9971-5.3547,9.0244-7.9704l2.6153,3.0273C1892.95128,899.68749,1889.93758,902.34959,1886.99918,905.00319Zm965.4013-3.0042c-1.205-3.7565-2.5205-7.5376-3.9091-11.2377l3.7441-1.4063c1.4121,3.7612,2.749,7.6045,3.9736,11.4229Zm-947.3125-12.6184-2.5468-3.0844c3.0673-2.533,6.2187-5.0777,9.3672-7.5638l2.4785,3.1395C1911.26188,884.33959,1908.133,886.866,1905.088,889.38059Zm938.9493-9.6513c-1.5674-3.6241-3.2471-7.2575-4.9903-10.7993l3.5879-1.7669c1.7735,3.6006,3.4795,7.2942,5.0742,10.9778Zm-920.1895-5.1604-2.4102-3.1933c3.1758-2.3956,6.4346-4.8006,9.6875-7.1472l2.3399,3.2438C1930.23548,869.80209,1927.00008,872.19,1923.84778,874.56889Zm19.3857-13.9845-2.2695-3.2935c3.2725-2.2558,6.6309-4.5187,9.9834-6.7259l2.1992,3.3409C1949.81848,856.09759,1946.48348,858.34439,1943.23348,860.58439Zm890.2959-2.1935c-1.9091-3.4406-3.9375-6.8899-6.0283-10.2528l3.3965-2.1122c2.126,3.4188,4.1875,6.9257,6.1299,10.4238Zm-870.3291-10.9524-2.1289-3.3864c3.3741-2.1212,6.8252-4.2408,10.2569-6.3002l2.0586,3.43C1969.97868,843.22679,1966.55088,845.33189,1963.20028,847.43849Zm857.7735-9.2435c-2.2432-3.2409-4.6016-6.4746-7.0078-9.611l3.1738-2.4349c2.4453,3.1878,4.8418,6.4747,7.123,9.7694Zm-837.2744-3.0591-1.9873-3.4712c3.4521-1.976,6.9863-3.9525,10.5048-5.874l1.918,3.5106C1990.63878,831.21039,1987.12808,833.17309,1983.69938,835.13589Zm20.9863-11.4588-1.8457-3.5483c3.5195-1.8313,7.1289-3.6648,10.7285-5.4497l1.7774,3.5834C2011.76968,820.03589,2008.18278,821.85779,2004.68568,823.67709Zm801.8144-4.3524c-2.5468-3.0063-5.206-5.9975-7.9042-8.8906l2.9257-2.7281c2.7412,2.9393,5.4434,5.9784,8.0303,9.033Zm-780.3896-6.2678-1.707-3.6178c3.5927-1.6951,7.2715-3.3876,10.9316-5.0304l1.6377,3.6494C2033.33508,809.69059,2029.68078,811.37249,2026.11048,813.05689Zm21.8184-9.7919-1.5684-3.6794c3.666-1.5631,7.4043-3.1168,11.1123-4.6174l1.5,3.7077C2055.28818,800.16749,2051.57238,801.71159,2047.92888,803.265Zm742.3505-1.3381c-2.8173-2.7504-5.7451-5.4803-8.7031-8.1141l2.6602-2.9872c3.0029,2.6744,5.9765,5.4463,8.8379,8.2388Zm-720.1796-7.6384-1.4336-3.7342c3.7129-1.4252,7.5048-2.8427,11.2714-4.2131l1.3672,3.7592C2077.55968,791.46249,2073.79018,792.87159,2070.09978,794.28849Zm22.4834-8.1791-1.3008-3.7825c3.1455-1.0825,6.3623-2.1634,9.5586-3.2129l1.8506-.6062,1.2421,3.8025-1.8457.6044C2098.91028,783.95819,2095.71208,785.03289,2092.58318,786.10939Zm679.9277-.0084c-3.043-2.475-6.2051-4.9329-9.3975-7.3051l2.3858-3.2105c3.2392,2.4068,6.4472,4.9006,9.5351,7.4124Zm-657.1729-7.4872-1.2226-3.8088q5.7495-1.84545,11.4463-3.6387l1.2011,3.8155Q2121.07628,776.77114,2115.338,778.61379Zm638.0713-6.7144c-3.2539-2.2103-6.6133-4.3938-9.9853-6.4891l2.1113-3.3975c3.418,2.1238,6.8232,4.3372,10.1221,6.5782Zm-615.2021-.4835-1.1787-3.8225q5.7729-1.77915,11.4892-3.5046l1.1563,3.8293Q2143.96843,769.63979,2138.20718,771.41589Zm22.9531-6.9259-1.1328-3.8365q5.79345-1.71,11.5312-3.3638l1.1075,3.8437Q2166.94158,762.78339,2161.16028,764.49Zm572.0234-5.1647c-3.416-1.9403-6.9375-3.8535-10.4697-5.6866l1.8418-3.5503c3.5772,1.8563,7.1445,3.7938,10.6035,5.7588Zm-548.9873-1.4749-1.083-3.8507q5.817-1.6359,11.5742-3.2144l1.0577,3.8578Q2190.00013,756.21764,2184.19638,757.85039Zm23.1192-6.3369-1.0313-3.8648q5.8404-1.558,11.6182-3.0565l1.0039,3.8718Q2213.14218,749.95889,2207.31558,751.51349Zm504.7207-3.1695c-3.5498-1.6811-7.2041-3.334-10.8613-4.9118l1.5839-3.6728c3.7002,1.5962,7.3975,3.2685,10.9903,4.9696Zm-481.5186-2.8468-.9765-3.879q5.86365-1.4757,11.6621-2.8892l.9472,3.886Q2236.36738,744.02544,2230.51768,745.49719Zm23.2871-5.6763-.9179-3.8934q5.8857-1.3875,11.706-2.7115l.8867,3.9006Q2259.67443,738.43659,2253.80478,739.82089Zm436.3428-.9284c-3.6553-1.4341-7.4141-2.8397-11.1728-4.1775l1.3418-3.7684c3.7978,1.3519,7.5976,2.7724,11.2919,4.2221Zm-412.9736-4.3872-.8555-3.9075q5.90925-1.2942,11.7481-2.5218l.8222,3.914Q2283.06758,733.21474,2277.174,734.50529Zm390.5019-3.6175c-3.747-1.2056-7.5869-2.3794-11.4131-3.4887l1.1133-3.8419c3.8633,1.1199,7.7412,2.3053,11.5244,3.5228Zm-367.0498-1.3137-.789-3.9212q5.9325-1.195,11.791-2.3207l.7549,3.9281Q2306.54108,728.383,2300.62608,729.57409Zm23.5303-4.522-.7188-3.9346q5.9547-1.0884,11.8321-2.1053l.6816,3.9416Q2330.092,723.96764,2324.15638,725.05209Zm320.5967-.8153c-3.8115-.9902-7.7129-1.9483-11.5957-2.8477l.9023-3.8969c3.918.9075,7.8535,1.874,11.6992,2.8731Zm-296.9864-3.2686-.6445-3.9479q5.9766-.97455,11.8721-1.875l.6035,3.9541Q2353.72378,719.997,2347.76668,720.96819Zm273.7227-2.1248c-3.8525-.7899-7.7988-1.5487-11.7295-2.2556l.707-3.9369c3.9629.7125,7.9415,1.4775,11.8252,2.2738Zm-250.04-1.4912-.5625-3.96q5.997-.8526,11.9101-1.6278l.5196,3.9662Q2377.42488,716.50309,2371.44938,717.35219Zm226.5263-2.741c-3.8818-.6056-7.8613-1.1809-11.8261-1.7093l.5293-3.965c3.9941.5325,8.0019,1.1118,11.914,1.7222Zm-202.7754-.3724-.4765-3.9716c3.9853-.4779,8.0049-.936,11.9453-1.3619l.4297,3.9766C2403.174,713.30649,2399.17008,713.76279,2395.20028,714.23879Zm23.8116-2.5735-.3828-3.9816c4.0019-.3846,8.0312-.7465,11.9755-1.0759l.3321,3.9862C2427.00988,710.92189,2422.99718,711.28249,2419.01188,711.66529Zm155.2734-.2162c-3.9062-.4372-7.9072-.8435-11.8916-1.2073l.3633-3.9834c4.0117.3663,8.04.7753,11.9736,1.2154Zm-131.4102-1.7754-.2812-3.99c4.002-.2824,8.0391-.5406,12.001-.7668l.2285,3.9934C2450.87908,709.13559,2446.85948,709.39249,2442.87508,709.67369Zm107.6016-.4034c-3.9258-.2821-7.9414-.5328-11.9346-.7453l.2129-3.9943c4.0176.2137,8.0576.4662,12.0088.75Zm-83.6982-.9606-.1729-3.9962c4.0156-.1735,8.0596-.3191,12.0195-.4329l.1153,3.9985C2474.799,707.99219,2470.77458,708.13719,2466.77848,708.30969Zm59.8164-.3131c-3.9375-.1394-7.96-.2476-11.9571-.3207l.0743-3.9994c4.0185.0738,8.0644.1823,12.0244.3225Zm-35.8867-.3719-.0547-3.9994c3.5127-.0481,7.0468-.0722,10.5058-.0722l1.5244.0016-.0078,4-1.5166-.0016C2497.71788,707.55309,2494.20228,707.57719,2490.70818,707.62469Z"></path><polygon fill="#c3d1cb" points="1888.487 1528.739 2543.427 1896.809 1204.088 2668.523 559.328 2263.344 1888.487 1528.739"></polygon><polygon fill="#4a77f0" points="561.015 2093.463 1890.174 1424.919 2521.723 1784.294 2521.723 1829.216 1205.775 2564.703 561.015 2159.524 561.015 2093.463"></polygon><polygon fill="#185359" points="1208.418 2497.76 561.015 2093.463 561.015 2159.524 1205.775 2564.703 2521.723 1829.216 2521.723 1784.294 1208.418 2497.76"></polygon><polygon fill="#dce6e2" points="679.926 2080.25 1242.771 2413.201 2416.025 1805.434 1854.941 1493.623 679.926 2080.25"></polygon><g clip-path="url(#b)"><polygon fill="#fff0f1" points="2119.324 1555.314 2148.517 2063.171 2543.427 1896.809 2521.723 1730.862 2119.324 1555.314" opacity=".63"></polygon></g><g clip-path="url(#c)"><polygon fill="#fff0f1" points="1307.246 1679.632 1245.838 2494.926 1032.773 2494.926 1136.022 1762.741 1307.246 1679.632" opacity=".63"></polygon></g><path fill="#fff" d="M2015.10848 1545.09789c-8.2011 0-14.625-4.1028-14.625-9.3403 0-5.2378 6.4239-9.3406 14.625-9.3406s14.626 4.1028 14.626 9.3406C2029.73448 1540.99509 2023.30968 1545.09789 2015.10848 1545.09789zm0-14.6809c-6.2617 0-10.625 2.8145-10.625 5.3406 0 2.5259 4.3633 5.3403 10.625 5.3403s10.626-2.8144 10.626-5.3403C2025.73448 1533.23149 2021.37028 1530.417 2015.10848 1530.417zM2258.81458 1681.63209c-8.2012 0-14.625-4.1028-14.625-9.3406 0-5.2375 6.4238-9.3403 14.625-9.3403s14.626 4.1028 14.626 9.3403C2273.44058 1677.52929 2267.01578 1681.63209 2258.81458 1681.63209zm0-14.6809c-6.2617 0-10.625 2.8144-10.625 5.3403 0 2.5262 4.3633 5.3406 10.625 5.3406s10.626-2.8144 10.626-5.3406C2269.44058 1669.76559 2265.07628 1666.95119 2258.81458 1666.95119zM2296.98548 1701.59839c-8.2012 0-14.625-4.1028-14.625-9.3406s6.4238-9.3405 14.625-9.3405 14.626 4.1027 14.626 9.3405S2305.18668 1701.59839 2296.98548 1701.59839zm0-14.6811c-6.2617 0-10.625 2.8144-10.625 5.3405s4.3633 5.3406 10.625 5.3406 10.626-2.8144 10.626-5.3406S2303.24718 1686.91729 2296.98548 1686.91729zM2229.56558 1661.95359a5.13335 5.13335 0 01-2.5742-.6909v-.0002l-177.0674-102.2302a5.17355 5.17355 0 01-1.8906-7.0579l2.4111-4.1777a5.17569 5.17569 0 017.0576-1.8909l177.0684 102.2302a5.17336 5.17336 0 011.8906 7.0579l-2.4111 4.1777A5.17212 5.17212 0 012229.56558 1661.95359zm-.5742-4.155a1.18418 1.18418 0 001.5947-.4272l2.4111-4.1778a1.175 1.175 0 00-.4267-1.5935l-177.0684-102.2304a1.17634 1.17634 0 00-1.5937.4272l-2.4112 4.1777a1.17487 1.17487 0 00.4268 1.5935z"></path><polygon fill="#4a77f0" points="1515.658 2068.681 1659.533 2159.117 2169.26 1878.414 2009.53 1804.421 1515.658 2068.681"></polygon><path fill="#4a77f0" d="M1653.95618 2100.63092a2.0006 2.0006 0 01-.9482-3.76273l418.4111-224.6206a2.00021 2.00021 0 011.8926 3.5244l-418.4112 224.62063A1.99378 1.99378 0 011653.95618 2100.63092zM1683.05578 2113.90162a2.00057 2.00057 0 01-.9482-3.7627l418.4111-224.62083a2.00021 2.00021 0 011.8926 3.5244l-418.4112 224.62093A1.99331 1.99331 0 011683.05578 2113.90162z"></path><path fill="#fff" d="M1624.09508 2084.07112l-20.5559-23.51623 3.338-2.9177 17.9235 5.3005a90.23326 90.23326 0 0110.888 3.9883l.0445-.104c-3.0195-2.8982-5.579-5.7174-8.7625-9.3593l-8.6167-9.8576 2.8579-2.4981 20.5559 23.5162-3.0852 2.6967-17.8936-5.3867a102.59043 102.59043 0 01-11.2558-4.0478l-.07.1263c2.7867 2.8211 5.3051 5.6162 8.7021 9.5024l8.7905 10.05643zM1643.95118 2056.41809c3.5459 4.2166 7.6917 3.7635 10.8596 1.1764a15.08068 15.08068 0 004.0847-4.8168l2.3829 1.7904a18.04949 18.04949 0 01-4.8877 5.8379c-5.3333 4.3556-11.4413 3.4201-15.6943-1.7876-4.296-5.2603-4.5515-11.8961.516-16.0346 5.6636-4.6253 11.2025-.8672 13.8111 2.327a9.88971 9.88971 0 011.0995 1.567zm7.3833-9.8148c-1.5908-2.0135-4.9843-4.4449-8.5262-1.5523-3.2205 2.6301-2.2145 6.6654-.6735 9.0654zM1657.96028 2031.46789l8.734 7.8741c1.9101 1.7448 3.6683 3.3951 5.308 5.0778l.0948-.0619c-.8168-2.1615-1.5283-4.6035-2.2125-7.0589l-3.1704-11.548 2.8717-1.8754 9.0464 7.4763c2.1222 1.7866 3.9748 3.4158 5.6589 5.0424l.0885-.0578c-.9008-2.1246-1.6837-4.4344-2.5234-7.045l-3.466-11.1658 3.3645-2.1972 6.1905 22.7211-3.0991 2.0239-8.6996-7.0899a69.30841 69.30841 0 01-5.7044-5.0983l-.0758.0495a65.76547 65.76547 0 012.3396 7.3363l2.8113 10.8948-3.1212 2.0383-17.9076-15.069zM1705.989 2017.02709c3.5459 4.2166 7.6917 3.7634 10.8596 1.1763a15.07963 15.07963 0 004.0847-4.8168l2.3829 1.7904a18.04949 18.04949 0 01-4.8877 5.8379c-5.3334 4.3556-11.4414 3.4201-15.6944-1.7876-4.2959-5.2603-4.5514-11.8961.516-16.0345 5.6636-4.6253 11.2026-.8673 13.8112 2.3269a9.90105 9.90105 0 011.0995 1.567zm7.3833-9.8149c-1.5908-2.0135-4.9843-4.4448-8.5262-1.5522-3.2205 2.63-2.2146 6.6654-.6735 9.0654zM1721.611 2000.25669c-1.3486-1.9115-2.4804-3.3849-3.6399-4.8387l2.895-2.0424 2.2551 2.8235.0925-.0653a7.73564 7.73564 0 013.4079-7.4419 6.591 6.591 0 017.7494.0278l.0771-.0543a9.05722 9.05722 0 01.3843-3.8406 7.62907 7.62907 0 013.1227-4.1284c2.4449-1.7249 7.1543-2.6877 11.648 3.682l7.6062 10.7816-3.2496 2.2926-7.3061-10.3562c-2.5035-3.5487-5.2919-4.726-7.9588-2.8446a5.32221 5.32221 0 00-1.8476 5.7917 6.67356 6.67356 0 00.9075 1.8625l7.9977 11.3366-3.2526 2.2947-7.752-10.9882c-2.0576-2.9167-4.8275-4.1071-7.3433-2.3322a5.64374 5.64374 0 00-1.8061 6.2565 6.47062 6.47062 0 00.9074 1.8163l7.7867 11.0376-3.2526 2.2947zM1773.45548 1984.08069l-2.0705-1.9627-.0935.0764a8.33289 8.33289 0 01-3.1978 6.9229c-3.5069 2.8639-7.3347 1.8394-9.3681-.6504-3.4344-4.2054-1.5937-9.557 5.1484-14.9852l-.3007-.3682c-1.1527-1.4116-3.6838-3.6996-7.2208-.777a10.88728 10.88728 0 00-3.4636 4.9868l-2.4349-1.5141a14.10661 14.10661 0 014.4897-6.1999c5.3042-4.3317 9.5606-1.7623 12.4007 1.7153l5.3031 6.4936a34.8301 34.8301 0 003.6544 3.9379zm-7.7296-8.4626c-3.4759 2.7169-6.8878 6.5263-4.1456 9.8841a3.58882 3.58882 0 005.4165.6137 5.605 5.605 0 001.854-6.3613 4.16506 4.16506 0 00-.6595-1.1177zM1769.65938 1955.24849a2.52611 2.52611 0 11-3.9131 3.1957 2.47872 2.47872 0 01.3576-3.5706A2.43935 2.43935 0 011769.65938 1955.24849zm14.6541 25.1435l-14.1743-17.3561 3.1416-2.5657 14.1742 17.3561zM1775.67958 1949.01139l3.1416-2.5656 20.8115 25.4833-3.1416 2.5656z"></path><polygon fill="#fdc530" points="2008.062 2256.305 2008.062 2271.28 2234.444 2394.601 2582.386 2198.168 2582.386 2179.67 2370.978 2062.515 2008.062 2256.305"></polygon><polygon fill="#fdc530" points="2008.062 2256.305 2237.087 2372.58 2582.386 2179.67 2582.386 2198.168 2234.444 2394.601 2008.062 2271.28 2008.062 2256.305"></polygon><polygon fill="#fdc530" points="2323.412 2221.952 2008.062 2256.305 2370.978 2062.515 2323.412 2221.952"></polygon><polygon fill="#fdc530" points="1245.838 2227.778 1245.838 2236.074 1371.25 2304.391 1564.004 2195.571 1564.004 2185.323 1446.888 2120.422 1245.838 2227.778"></polygon><polygon fill="#fdc530" points="1245.838 2227.778 1372.714 2292.192 1564.004 2185.323 1564.004 2195.571 1371.25 2304.391 1245.838 2236.074 1245.838 2227.778"></polygon><polygon fill="#fdc530" points="1420.536 2208.747 1245.838 2227.778 1446.888 2120.422 1420.536 2208.747"></polygon><ellipse cx="1460.164" cy="2114.486" fill="#FF6FAD" rx="38.758" ry="28.188"></ellipse><path fill="#fff" d="M1462.09788,2126.02852l4.4305-5.0498-16.2332-14.2423-3.5242,4.01677-1.8296-1.60517a17.72049,17.72049,0,0,0,2.4958-6.1096l1.9053-2.1717,19.6814,17.2676,3.9946-4.55313,2.3673,2.077-10.9206,12.44723Z"></path><path fill="#4a77f0" d="M1834.60488,2657.2137q-40.4019,11.1123-74.8465.7658-34.4487-10.32465-58.2512-40.10231-29.86785-37.29732-31.4403-84.20768-1.58655-46.9548,23.4605-93.9406,25.07355-47.007,71.874-84.5033,36.7041-29.3928,71.2262-38.3053,34.4955-8.8914,62.6405.3115a97.58707,97.58707,0,0,1,46.8996,32.54138,112.87265,112.87265,0,0,1,17.3142,111.94812q-10.9227,28.65015-36.6181,49.2085-24.0462,19.25625-41.1643,1.892a60.48,60.48,0,0,1-8.0766,28.8428,84.00647,84.00647,0,0,1-20.9763,24.1199q-22.4193,17.95335-47.1487,16.7568-24.6987-1.23975-42.5424-23.4679-16.04925-20.0415-18.2294-43.421a84.96874,84.96874,0,0,1,8.1588-45.1138,106.19292,106.19292,0,0,1,30.161-37.6449q15.5943-12.488,27.1925-14.6767a30.85369,30.85369,0,0,1,21.0589,2.9837l-8.0264-18.6979,30.5537-24.4674,40.2308,91.5522c2.3429,5.14858,4.3081,8.7412,5.9402,10.7793,2.3756,2.9666,4.8641,4.39328,7.457,4.324,2.6012-.1132,5.5065-1.4734,8.7602-4.079a56.51023,56.51023,0,0,0,20.757-33.7193,90.65187,90.65187,0,0,0-1.1728-41.0977q-5.30715-20.6154-16.4599-34.5425-24.7266-30.8775-63.2894-31.0501t-84.7068,36.7608q-38.37075,30.72735-58.4698,69.9038-20.15265,39.1638-18.5681,78.0919a115.49126,115.49126,0,0,0,25.8627,69.2726q21.84315,27.27675,50.6536,35.9281,28.83765,8.6853,61.3756-.9428,32.5866-9.64845,65.7106-36.1927c24.4959-19.6164,64.4543-55.3209,77.5671-78.9047l2.0953,23.8083a277.67959,277.67959,0,0,1-65.5805,75.3379Q1875.03738,2646.05821,1834.60488,2657.2137Zm29.6773-146.19659a54.95345,54.95345,0,0,0-.3091-28.0371,66.58,66.58,0,0,0-12.0614-24.3871q-9.5751-11.95695-21.2736-13.5532-11.70765-1.6077-24.6872,8.8049-18.8481,15.0936-20.6342,36.8547-1.804,21.73845,13.3432,40.6808,9.5751,11.957,22.5471,13.4627,12.93645,1.51557,26.5774-9.42662Q1860.79943,2524.99362,1864.28218,2511.01711Z"></path><path fill="#4a77f0" d="M1832.84318,2632.27851q-40.4019,11.11245-74.8465.7658-34.44885-10.32468-58.2513-40.1023-29.8677-37.29735-31.4402-84.2076-1.58655-46.955,23.4605-93.9407,25.07355-47.007,71.8739-84.5033,36.70425-29.39265,71.2262-38.3053,34.4955-8.89125,62.6405.3115a97.58677,97.58677,0,0,1,46.8996,32.5415,112.87172,112.87172,0,0,1,17.3142,111.948q-10.92255,28.6503-36.618,49.2085-24.0462,19.25625-41.1643,1.8921a60.47961,60.47961,0,0,1-8.0766,28.8427,84.00647,84.00647,0,0,1-20.9763,24.1199q-22.4193,17.95332-47.1487,16.7568-24.6987-1.23975-42.5425-23.46792-16.0491-20.04132-18.2293-43.42088a84.96831,84.96831,0,0,1,8.1588-45.1139,106.19063,106.19063,0,0,1,30.161-37.6448q15.5943-12.488,27.1925-14.6767a30.85312,30.85312,0,0,1,21.0589,2.9837l-8.0265-18.6979,30.5538-24.46752,40.2308,91.55232c2.3428,5.1486,4.308,8.7412,5.9401,10.7793,2.3757,2.9666,4.8641,4.3933,7.4571,4.3239,2.6012-.1132,5.5064-1.4733,8.7602-4.0789a56.50955,56.50955,0,0,0,20.7569-33.7194,90.65188,90.65188,0,0,0-1.1727-41.0977q-5.30715-20.6154-16.4599-34.54252-24.7266-30.87732-63.2894-31.05t-84.7068,36.76082q-38.37075,30.7272-58.4698,69.9038-20.15265,39.16365-18.5681,78.0919a115.49,115.49,0,0,0,25.8627,69.2726q21.84315,27.27675,50.6536,35.9281,28.83765,8.6853,61.3756-.9428,32.5866-9.64863,65.7105-36.1928,36.744-29.42445,56.4264-64.8108l23.2361,9.7145a277.67917,277.67917,0,0,1-65.5805,75.3378Q1873.27568,2621.12313,1832.84318,2632.27851Zm29.6773-146.1965a54.95274,54.95274,0,0,0-.3092-28.0372,66.57864,66.57864,0,0,0-12.0613-24.387q-9.5751-11.957-21.2736-13.5533-11.70765-1.6077-24.6873,8.805-18.8481,15.0936-20.6341,36.8546-1.8042,21.73845,13.3432,40.6808,9.5751,11.95692,22.547,13.4627,12.93645,1.5156,26.5774-9.4266Q1859.03778,2500.05856,1862.52048,2486.082Z"></path><polygon fill="#4a77f0" points="573.132 1087.984 938.398 969.361 477.999 1016.34 573.132 1087.984"></polygon><polygon fill="#4a77f0" points="588.4 1165.5 573.132 1087.984 944.27 969.361 588.4 1165.5"></polygon><polygon points="588.4 1165.5 611.89 1127.642 718.768 1095.031 588.4 1165.5"></polygon><polygon fill="#4a77f0" points="611.89 1127.642 710.547 1176.071 932.525 975.233 611.89 1127.642"></polygon><polygon fill="#4a77f0" points="2738.887 1253 2729.491 1188.99 2468.201 1361.64 2738.887 1253"></polygon><polygon fill="#4a77f0" points="2461.708 1361.64 2647.277 1146.709 2729.491 1188.99 2461.708 1361.64"></polygon><polygon fill="#4a77f0" points="2877.476 1239.493 2454.661 1368.687 2770.598 1204.258 2877.476 1239.493"></polygon><polygon fill="#dd8300" points="1003.706 1505.514 1418.573 757.696 1947.066 1196.345 1947.066 1748.62 1064.483 2229.549 1003.706 2203.124 1003.706 1505.514"></polygon><polygon fill="#ffa631" points="1584.044 1945.844 1947.066 1196.345 1947.066 1748.62 1584.044 1945.844"></polygon><polygon fill="#1b1b25" points="1344.559 1451.055 1273.844 1710.016 1613.974 1785.005 1775.912 1601.675 1736.275 1416.703 1344.559 1451.055"></polygon><path fill="#fff" d="M1433.02158,795.56389s-3.5391.8847-9.6922,2.5256c-30.1566,8.0425-123.1016,34.2514-169.9235,63.5151-56.3754,35.2346-58.1371,163.841-52.8519,232.5485s137.1368,336.4906,115.2543,369.9635,122.5794,81.7136,230.0449,67.2827,209.646-86.6618,209.646-86.6618v-273.0683s146.2237,160.3175,218.4547,135.6533,8.8086-303.0177,8.8086-303.0177l-81.0396-36.9964s-49.3285-100.4186-103.9421-116.2742S1433.02158,795.56389,1433.02158,795.56389Z"></path><g clip-path="url(#d)"><path fill="#dce6e2" d="M1893.56818 976.22349s-2.6166 117.7296-6.5264 156.498-13.6019 81.6906-13.6019 81.6906-5.5383-47.5851 0-79.176-17.9996 19.1084-31.8454 40.8347C1824.97938 1125.79859 1869.29148 1127.07649 1893.56818 976.22349zM1824.85208 1238.09839s-69.102-156.6065-76.0249-189.8366-3.271 98.7344 6.672 179.5182 26.5581 156.9361-42.6712 180.4741-73.383 38.8507-27.6917 27.7328 36.2135 47.0348-81.5834 62.2652-221.5973 5.9815-273.8053-30.4608-55.9036 37.4882-55.9036 37.4882l94.2222 107.8932 283.84-42.0778 186.0504-92.227 16.0991-150.78z"></path><polygon fill="#dce6e2" points="1497.539 899.309 1524.878 955.745 1514.832 1444.253 1607.987 1543.098 1613.974 1479.753 1564.82 940.295 1570.309 883.637 1497.539 899.309"></polygon><path fill="#dce6e2" d="M1222.86918,874.21219s-17.4405,102.9531,29.2636,183.5004,77.6148,138.6329,77.6148,138.6329,52.1644-13.6829,63.2411,69.2963c6.4102,48.021-4.745,11.0766-39.064-23.538s15.5261,67.8447-24.1771,112.6845c-20.9509,23.6613-5.9882-109.9153-40.6028-140.3762s-106.6131-184.1499-105.2285-232.6104S1222.86918,874.21219,1222.86918,874.21219Z"></path></g><path fill="#FF6FAD" d="M1505.77128,891.554l28.0434,58.1371-8.1829,490.9775a6.7251,6.7251,0,0,0,1.3477,4.1519l63.0377,83.8905a6.72478,6.72478,0,0,0,11.8861-2.3536l21.7509-83.9757a6.72407,6.72407,0,0,0,.1802-2.3676l-51.5552-506.1786,13.5547-42.2815S1548.49078,873.741,1505.77128,891.554Z"></path><g clip-path="url(#e)"><path fill="#d3480b" d="M1516.21678,864.11189s-1.3846,52.6143,42.9222,60.9218,6.9229-23.4758,38.7684,15.2615-67.3854-42.9532-56.5384,6.8919,5.1345,214.6107,6.6062,297.6859,33.3172,143.9969,49.9322,213.2262,44.5048,79.2255,6.3297,112.9957-122.6349-65.5811-122.6349-65.5811l-29.0763-277.7338-30.5811-337.361Z"></path></g><polygon fill="#dce6e2" points="1469.068 774.692 1418.373 808.165 1469.068 940.295 1547.928 901.537 1631.169 927.963 1611.734 822.259 1469.068 774.692"></polygon><polygon fill="#fff" points="1471.86 768.233 1424.294 801.706 1471.86 933.835 1545.853 895.077 1623.957 921.503 1605.721 815.8 1471.86 768.233"></polygon><path fill="none" d="M1410.2,469.91309s23.4897-48.154,89.8482-70.4693,88.0866,34.0602,135.9469,23.4898,93.6654,46.9795,46.6859,93.959-170.3006,103.3548-170.3006,103.3548l-82.2142,42.2816S1251.64418,499.27529,1410.2,469.91309Z"></path><path fill="#931f1c" d="M1410.2,469.91309s23.4897-48.154,89.8482-70.4693,88.0866,34.0602,135.9469,23.4898,93.6654,46.9795,46.6859,93.959-170.3006,103.3548-170.3006,103.3548l-82.2142,42.2816S1251.64418,499.27529,1410.2,469.91309Z"></path><g clip-path="url(#f)"><path fill="#7f1616" d="M1437.74958,506.01429s20.4463-41.9149,78.2071-61.3389,76.6737,29.6471,118.3331,20.4463,81.5296,40.8926,40.637,81.7852-148.2358,89.9638-148.2358,89.9638l-71.562,36.8034S1299.737,531.57219,1437.74958,506.01429Z"></path></g><path fill="#fcdccd" d="M1669.76158,506.32219s12.9194,54.0264,5.8725,81.0396,10.5704,76.3417-14.0939,120.9722-10.5703,48.154-90.4355,49.3285c0,38.758,10.5704,57.5498,10.5704,57.5498l-38.7581,62.2479s-55.2009-68.1203-91.61-84.5631c5.8724-42.2816,0-96.308,0-96.308s-59.8988-16.4428-48.154-56.3754,43.4561-11.7448,43.4561-11.7448,27.0132-7.047,10.5703-48.154,0-71.6437,27.0133-68.1203,58.7243,23.4898,88.0865,12.9194-30.5367,7.0469-24.6642-18.7918S1655.66778,552.12719,1669.76158,506.32219Z"></path><g clip-path="url(#g)"><path fill="#f6c1ac" d="M1448.51548 659.18309a23.80324 23.80324 0 00-7.8488-16.1746c-6.7111-6.1503-17.4294-13.6472-20.6786-2.5072C1415.68048 655.27019 1449.66268 680.85249 1448.51548 659.18309zM1571.10468 757.66249s-46.0103-7.7789-65.3334-18.8556-10.1876 49.8231 32.6667 56.757 59.9651-13.8348 59.9651-13.8348z"></path></g><path fill="#faab92" d="M1591.08408,655.13359a2.00037,2.00037,0,0,1-.5918-3.9107c4.8145-1.4959,12.6553-5.2319,13.2002-8.8888.291-1.9555-1.8857-3.8878-3.7636-5.1644-15.8262-10.7627-9.6055-26.8992-9.5411-27.0609a2.00023,2.00023,0,0,1,3.7159,1.4818c-.2246.5746-5.0274,13.3615,8.0752,22.2714,4.1103,2.7951,5.9502,5.8451,5.4687,9.0649-1.0918,7.3076-14.4512,11.646-15.9707,12.1167A2.00624,2.00624,0,0,1,1591.08408,655.13359Z"></path><path fill="#571e1e" d="M1551.13838 563.87209s-30.5366-29.3622-51.0902 2.9362zM1613.97428 564.458l51.0903-2.9362S1634.528 532.15969 1613.97428 564.458z"></path><ellipse cx="1533.815" cy="602.336" fill="#571e1e" rx="12.039" ry="17.911"></ellipse><ellipse cx="1635.995" cy="598.813" fill="#571e1e" rx="12.039" ry="17.911"></ellipse><path d="M1613.97448,679.55909s-29.9504,1.1744-49.9167,4.1107,11.7449,39.3453,30.5367,34.6473S1613.97448,679.55909,1613.97448,679.55909Z"></path><path fill="#571e1e" d="M1613.97448,679.55909s-29.9504,1.1744-49.9167,4.1107,11.7449,39.3453,30.5367,34.6473S1613.97448,679.55909,1613.97448,679.55909Z"></path><g clip-path="url(#h)"><ellipse cx="1582.556" cy="718.73" fill="#fff" rx="31.418" ry="22.153"></ellipse></g><ellipse cx="1505.771" cy="648.729" fill="#faab92" rx="33.911" ry="13.8"></ellipse><path fill="#f6c1ac" d="M1116.60968,1031.61159s-27.0448-15.8556-53.4707-29.9494-22.0217-19.3791-32.5921-35.2346,17.6174-21.1408,32.5921,0S1116.60968,1031.61159,1116.60968,1031.61159Z"></path><path fill="#fc9c54" d="M1207.12708,1037.277s14.2073-32.9722,0-76.4282-10.6838-65.7713-24.7777-92.7845-11.7448,65.7712-11.7448,65.7712-12.9194,37.5836-23.4898-11.7448-28.1877-78.6907-38.7581-71.0565,18.7918,58.1371,11.7449,82.8013-34.0601-45.805-55.2009-69.2947-36.4091-17.0663-21.1408,9.6714,29.3622,69.3429,29.3622,69.3429-32.8856-56.09-49.3285-59.918,22.3153,54.8964,31.7112,81.9096,29.6636,40.1797,65.3347,77.0525S1207.12708,1037.277,1207.12708,1037.277Z"></path><path fill="#f6c1ac" d="M1207.12708,1037.277s14.2073-32.9722,0-76.4282-10.6838-65.7713-24.7777-92.7845-11.7448,65.7712-11.7448,65.7712-12.9194,37.5836-23.4898-11.7448-28.1877-78.6907-38.7581-71.0565,18.7918,58.1371,11.7449,82.8013-34.0601-45.805-55.2009-69.2947-36.4091-17.0663-21.1408,9.6714,29.3622,69.3429,29.3622,69.3429-32.8856-56.09-49.3285-59.918,22.3153,54.8964,31.7112,81.9096,29.6636,40.1797,65.3347,77.0525S1207.12708,1037.277,1207.12708,1037.277Z"></path><g clip-path="url(#i)"><path fill="#fcdccd" d="M1202.281,1038.47789s14.2073-32.9722,0-76.4283-10.6838-65.7712-24.7776-92.7845c-12.0364-23.0697-8.178,48.0767-6.795,69.3407a13.24787,13.24787,0,0,1-6.707,12.5822c-6.2764,3.3867-15.3904,1.7006-21.7326-27.8964-10.5704-49.3285-28.1877-78.6907-38.7581-71.0565s25.8384,67.5186,18.7915,92.1828-41.1068-55.1865-62.2476-78.6762-36.4091-17.0663-21.1407,9.6714,37.0047,75.5816,37.0047,75.5816-40.5282-62.3288-56.971-66.1567,22.3153,54.8964,31.7112,81.9096,29.6635,40.1797,65.3347,77.0525S1202.281,1038.47789,1202.281,1038.47789Z"></path></g><path fill="#fff" d="M1115.99088,1048.93529s34.2571,186.7435,36.5409,268.9576,54.8114,144.4619,116.4743,106.8783,68.5142-143.8166,54.8114-187.008-102.7714-218.1901-102.7714-218.1901S1154.81558,1041.00749,1115.99088,1048.93529Z"></path><g clip-path="url(#j)"><path fill="#dce6e2" d="M1125.21828,1164.79419s-30.3303,186.7467,62.3033,219.357,157.0375-43.6122,157.0375-43.6122l-70.7151,153.0837-125.7812,11.8911-51.9193-143.8741Z"></path></g><path fill="#185359" d="M1919.99378,861.78059l-2.9447,87.5538a26.01065,26.01065,0,0,0,29.1323,26.6953l10.2544-1.2455a26.01078,26.01078,0,0,0,22.8074-27.6901l-6.1972-86.0119a26.01094,26.01094,0,0,0-19.2457-23.2644l-1.1126-.2964A26.01073,26.01073,0,0,0,1919.99378,861.78059Z"></path><path fill="#4a77f0" d="M1921.48518,812.08249l-11.0951,40.4991a13.71161,13.71161,0,0,0,9.6013,16.8472l39.3284,10.7744a13.7122,13.7122,0,0,0,8.7781-.5188l7.4231-3.0119a13.71188,13.71188,0,0,0,7.4794-7.3788l14.5484-34.5076a13.71149,13.71149,0,0,0-9.0116-18.5509l-50.2048-13.7541A13.71155,13.71155,0,0,0,1921.48518,812.08249Z"></path><ellipse cx="1909.155" cy="750.06" fill="#FF6FAD" rx="53.989" ry="34.279" transform="rotate(-85.27 1909.155 750.06)"></ellipse><path fill="#FF6FAD" d="M2330.50318,558.05559s-146.6642,152.6346-333.7163,131.6005c-60.4252,61.638-16.54,134.9705-16.54,134.9705s244.7385,53.7202,305.0412,164.4267S2330.50318,558.05559,2330.50318,558.05559Z"></path><g clip-path="url(#k)"><path fill="#FF6FAD" d="M1928.82348,750.06039c88.8717,40.2393,225.347,5.5868,290.855-66.7048,38.5339-42.5242,79.9288-80.5918,104.8346-134.0553,97.098-208.4327-20.0055,465.2699-20.0055,465.2699l-166.1503-10.5972-159.0459-142.6303-50.488-111.2824Z"></path></g><ellipse cx="2355.825" cy="786.762" fill="#4a77f0" rx="277.015" ry="94.939" transform="rotate(-85.27 2355.825 786.762)"></ellipse><ellipse cx="2356.125" cy="783.137" fill="#83b5b5" rx="235.721" ry="71.53" transform="rotate(-85.27 2356.125 783.137)"></ellipse><g clip-path="url(#l)"><ellipse cx="2316.668" cy="774.693" fill="#4a77f0" rx="235.721" ry="71.53" transform="rotate(-85.27 2316.668 774.693)"></ellipse></g><ellipse cx="2355.43" cy="783.283" fill="#fff" rx="39.666" ry="22.109" transform="rotate(-85.27 2355.43 783.283)"></ellipse><path fill="#185359" d="M1927.06348,683.35989l63.8721,2.8072a4.38389,4.38389,0,0,1,2.9319,7.4623c-14.8097,14.8111-42.1692,54.0316-15.614,125.402a4.38988,4.38988,0,0,1-4.5672,5.8983c-40.401-4.2165-56.5818-5.6555-61.7463-6.0846a4.38558,4.38558,0,0,1-3.2926-1.9524c-6.8286-10.2785-37.3191-63.7134,14.7485-131.831A4.37376,4.37376,0,0,1,1927.06348,683.35989Z"></path><ellipse cx="1910.532" cy="906.619" fill="#f6c1ac" rx="23.49" ry="49.125"></ellipse><path fill="#f8c89a" d="M1934.02128,877.46019s-11.7449-8.2215-9.3959,38.758-23.4898,49.3285-19.9663,77.5162,32.8856,44.8999,58.7244,43.456,8.2214-35.2346,32.8856-62.2478,25.8387-31.7112,18.7918-72.8182S1934.02128,877.46019,1934.02128,877.46019Z"></path><path fill="#fcdccd" d="M1934.02128,877.46019s-11.7449-8.2215-9.3959,38.758-23.4898,49.3285-19.9663,77.5162,32.8856,44.8999,58.7244,43.456,8.2214-35.2346,32.8856-62.2478,25.8387-31.7112,18.7918-72.8182S1934.02128,877.46019,1934.02128,877.46019Z"></path><g clip-path="url(#m)"><path fill="#f6c1ac" d="M1919.35778,880.69039s-9.2264,29.8051,19.1577,29.1128,52.3308,13.1536,23.0501,13.8459-47.1569,27.6917-52.4108,4.846S1919.35778,880.69039,1919.35778,880.69039Z"></path><path fill="#f6c1ac" d="M1902.97678 917.48889s-16.5889 26.4249 11.0164 33.0637 47.1802 26.1833 18.7083 19.3136-52.6966 14.6172-51.8916-8.811S1902.97678 917.48889 1902.97678 917.48889zM1893.56818 990.10919s13.1018 7.6152 34.5629 8.9998-4.3201 9.6443-20.0657 16.615S1893.56818 990.10919 1893.56818 990.10919z"></path></g><polygon fill="#fdc530" points="1003.706 1505.514 1061.84 1516.084 1061.84 2229.549 1003.706 2203.124 1003.706 1505.514"></polygon><polygon fill="#ffa631" points="1061.84 1516.084 1646.009 1905.398 1061.84 2229.549 1061.84 1516.084"></polygon><polygon fill="#fdc530" points="1585.048 1397.173 1061.84 2229.549 1947.066 1748.62 1585.048 1397.173"></polygon><polygon fill="#fdc530" points="1585.048 1397.173 1061.84 2229.549 1947.066 1748.62 1585.048 1397.173"></polygon><g clip-path="url(#n)"><polygon fill="#fdc530" points="1048.227 2268.082 1603.539 1386.101 1551.378 1377.793 1032.773 2174.499 1048.227 2268.082"></polygon></g></svg>