<svg xmlns="http://www.w3.org/2000/svg" viewBox="0 0 800 800" id="email-marketing"><defs><linearGradient id="a" x1="580.59" x2="198.06" y1="585.75" y2="203.22" gradientUnits="userSpaceOnUse"><stop offset="0" stop-color="#362e94"></stop><stop offset="1" stop-color="#5652cc"></stop></linearGradient></defs><g data-name="Secondary shapes"><path fill="#e9edf7" d="M503.63 677.24c0-6.89 48.65-12.47 108.66-12.47s108.65 5.58 108.65 12.47-48.64 12.48-108.65 12.48S503.63 684.13 503.63 677.24zM170.74 652.23c0-3.8 97.86-6.88 218.59-6.88s218.58 3.08 218.58 6.88-97.86 6.89-218.58 6.89S170.74 656 170.74 652.23zM57.76 677.24c0-5 81.59-9 182.24-9s182.24 4 182.24 9-81.59 9-182.24 9S57.76 682.23 57.76 677.24z"></path><path fill="#6b67e9" d="M122.52,611.58c-26.15-13.67-49.42,1.2-61.09,33.93C87.5,653.13,121.07,643.8,122.52,611.58Z"></path><path fill="none" stroke="#5652cc" stroke-linecap="round" stroke-linejoin="round" stroke-width="2" d="M122.52,611.58C112,618.21,84.72,631,68.72,641"></path><path fill="none" stroke="#e9edf7" stroke-linecap="round" stroke-linejoin="round" stroke-width="2" d="M671.94,377c-9.5,30,5.65,38.51,15.28,37.21,3.69,11.52,20.43,17.93,37.94,4.26"></path><path fill="none" stroke="#e9edf7" stroke-linecap="round" stroke-linejoin="round" stroke-width="2" d="M684,373.14c-13.18,17.78-8.53,35.89,4,40,5.42,7.72,23.19,12.48,39.9-5.54"></path><path fill="none" stroke="#e9edf7" stroke-linecap="round" stroke-linejoin="round" stroke-width="2" d="M701.27,373c-6.34,3-27.75,27.77-12.21,38.51,5.05,7.82,27.9,2.34,39.64-13.85"></path><path fill="none" stroke="#e9edf7" stroke-linecap="round" stroke-linejoin="round" stroke-width="2" d="M718.66 401.79c-3.55 3-19.33 8.85-29.6 9.7.28-9.24 8.35-24.49 12.78-28.15M689.06 411.49c9.23-3.72 19.27-7.87 30.71-19.24M718.78 382.5c-7.56 2.84-24 19.62-27.46 28.07M687.22 414.23c-6.22 5.11-36.66 44.79-46.24 63"></path><path fill="#bbc0e6" d="M256.76,365.17c-32.34,7.24-41.51,36.86-27.79,73.4C256.85,426.2,278.87,393.86,256.76,365.17Z"></path><path fill="#dde2f8" d="M262.21,341.73c-37.38-15.27-67.17,8-78.87,54C219.82,402.82,264.35,385.81,262.21,341.73Z"></path><path fill="none" stroke="#bbc0e6" stroke-linecap="round" stroke-linejoin="round" stroke-width="2" d="M262.21,341.73c-13.44,10.38-49,31.26-69.53,47"></path><path fill="#ced3f8" d="M636.83,562.17C673.72,534.82,713.09,552,739,599.53,700.74,617.56,646.88,611.35,636.83,562.17Z"></path><path fill="none" stroke="#bbc0e6" stroke-linecap="round" stroke-linejoin="round" stroke-width="2" d="M636.83,562.17c17.73,7.66,62.82,20.65,89.85,32.2"></path><path fill="#e9edf7" d="M628.14,552.31c5.45-60.74,57.29-84.59,127.24-68.33C739.52,537.81,685.81,585.76,628.14,552.31Z"></path><path fill="none" stroke="#fff" stroke-linecap="round" stroke-linejoin="round" stroke-width="2" d="M628.14,552.31c23.25-10.82,76-44.07,111.27-60.7"></path><path fill="#807dfb" d="M122.52,608.3c.5-39.71-31.5-58.6-77.9-52.71C51.33,591.52,82.94,626.15,122.52,608.3Z"></path><path fill="none" stroke="#6b67e9" stroke-linecap="round" stroke-linejoin="round" stroke-width="2" d="M122.52,608.3c-14.35-8.55-46.28-33.59-68.06-46.7"></path><path fill="#e9edf7" d="M280.26,334.84c-3.2,5.31-61.47,12.66-63.59,1.71-1.65-8.52,7.45-10.47,10.8-10.92,5.29-.71,18.12-1.6,17-5.39-2.06-6.87-34.23-.52-42.16.54s-23.63,1-29.34-5.68-7.25-10.05,6.73-11.16,41.79.13,34.47-7-29.14-3.07-42.49-5.31-38-11-30.86-18.22c6.35-6.44,44.4,5.68,43.47-1.18-.73-5.49-12.3-4.87-29.52-9.39s-33.43-8.95-31.64-19.35c1.44-8.35,11.85-3.14,21.16-.83s22.42,5.07,20.35.06-48.74-12-49.45-26c-.47-9.25,9-4.63,20-2.53s15,2,14.72-.27-14.68-7.5-22.64-10.16-18.47-9.16-16.21-16.61,14.58-1.88,18.64,1.22,9.28,4.34,10.21,3.13-11.76-12.39-4.9-18,17.92,6.28,19.09,15,3,20.4,6.26,20,1.85-10.5.78-18.43.34-11.33,2.48-11.62c7.12-1,14.5,8.56,15.28,14.35s.88,38.86,5.6,38.23,3.38-13,2.52-19.44-2.87-21.35,5.06-22.42S207,207.72,207.84,220s.78,32.35,4.44,31.86,6.47-16.56,5.43-24.33-6.88-21.13,2.88-22.44,13.34,10.3,15.4,25.57c.85,6.38,2.82,22.2-1.45,31.49-4.86,10.59-5.52,16.65-3.1,17.88,4.83,2.46,7.85-7.42,8.4-14.95s.8-31,12.35-28.21,6.48,21.64,5.2,29.42-8.21,34.8-2.26,36.33,5.77-13.66,6.23-18.38,4.53-14.2,8.08-11.49S286,325.37,280.26,334.84Z"></path><path fill="none" stroke="#bbc0e6" stroke-linecap="round" stroke-linejoin="round" stroke-width="2" d="M550.83 205.42c-19.34-5.82-31.71-30.53-31.71-57.08s12.37-51.27 31.71-57.08M550.83 205.42c19.35-5.82 31.71-30.53 31.71-57.08s-12.36-51.27-31.71-57.08"></path><line x1="550.83" x2="550.83" y1="91.26" y2="205.42" fill="none" stroke="#bbc0e6" stroke-linecap="round" stroke-linejoin="round" stroke-width="2"></line><line x1="493.75" x2="607.91" y1="148.34" y2="148.34" fill="none" stroke="#bbc0e6" stroke-linecap="round" stroke-linejoin="round" stroke-width="2"></line><path fill="none" stroke="#bbc0e6" stroke-linecap="round" stroke-linejoin="round" stroke-width="2" d="M588.52 105.48a47.42 47.42 0 01-75.38 0M588.52 191.19a47.44 47.44 0 00-75.38 0"></path><path fill="none" stroke="#bbc0e6" stroke-linecap="round" stroke-linejoin="round" stroke-width="2" d="M493.75,148.34a57.08,57.08,0,1,1,57.08,57.08A57.08,57.08,0,0,1,493.75,148.34Z"></path><rect width="279.95" height="515.5" x="249.35" y="136.74" fill="url(#a)" rx="25.86"></rect><rect width="254.09" height="442.14" x="262.28" y="165.26" fill="#fff"></rect><line x1="364.01" x2="414.64" y1="153.18" y2="153.18" fill="none" stroke="#131147" stroke-linecap="round" stroke-linejoin="round" stroke-width="4"></line><path fill="none" stroke="#807dfb" stroke-linecap="round" stroke-linejoin="round" stroke-width="3" d="M375.22,629.24a14.11,14.11,0,1,1,14.11,14.11A14.11,14.11,0,0,1,375.22,629.24Z"></path><rect width="221.43" height="221.43" x="278.61" y="369.64" fill="#e9edf7"></rect><polygon fill="#dde2f8" points="500.04 424.7 463.46 433.01 450.51 369.64 442.44 369.64 455.76 434.76 339.19 461.22 278.61 430.45 278.61 448.17 315.08 466.7 278.61 474.98 278.61 491.18 337.12 477.89 338.5 478.6 339.09 477.45 418.14 459.5 490.48 496.25 330.91 591.08 361.84 591.08 451.08 538.04 478.16 591.08 487.03 591.08 457.89 534 500.04 508.95 500.04 483.38 442.25 454.02 500.04 440.9 500.04 424.7"></polygon><polygon fill="#fcba06" points="358.06 677.24 110.73 677.24 110.73 539.51 358.06 539.5 358.06 677.24"></polygon><polygon fill="#ffd03e" points="110.73 539.51 234.4 608.38 358.06 539.5 110.73 539.51"></polygon><polygon fill="#ed9f00" points="110.73 539.51 234.4 643.44 358.06 539.5 234.4 608.38 110.73 539.51"></polygon><circle cx="144.63" cy="471.82" r="45.9" fill="#bbc0e6"></circle><path fill="#fff" d="M158.5,449.38a23,23,0,0,1,9.33,8.74,24.33,24.33,0,0,1,3.33,12.66q0,7.29-2.86,11.4a9.07,9.07,0,0,1-7.9,4.12,7.84,7.84,0,0,1-4.53-1.26,6.53,6.53,0,0,1-2.58-3.61q-3.36,4.88-10.08,4.87a13.31,13.31,0,0,1-6.89-1.82,12.66,12.66,0,0,1-4.82-5.07,15.42,15.42,0,0,1-1.74-7.39,15.17,15.17,0,0,1,1.74-7.32,12.84,12.84,0,0,1,4.82-5,13.31,13.31,0,0,1,6.89-1.82,13.64,13.64,0,0,1,5.35,1,10.34,10.34,0,0,1,4,3v-3.64h6.22v19.05a4.29,4.29,0,0,0,.81,2.91,2.69,2.69,0,0,0,2.1.89c1.53,0,2.7-.86,3.51-2.6a18.64,18.64,0,0,0,1.2-7.54,20,20,0,0,0-2.72-10.47,18.56,18.56,0,0,0-7.59-7.06,24,24,0,0,0-11.2-2.52,23.51,23.51,0,0,0-11.32,2.66,18.78,18.78,0,0,0-7.62,7.42,21.65,21.65,0,0,0-2.69,10.81,22.09,22.09,0,0,0,2.66,10.93,18.77,18.77,0,0,0,7.54,7.42,22.92,22.92,0,0,0,11.2,2.66,26.26,26.26,0,0,0,5.58-.61,22.54,22.54,0,0,0,5.29-1.85l1.51,4.48a21.74,21.74,0,0,1-5.79,2,33.2,33.2,0,0,1-6.59.67,28.35,28.35,0,0,1-13.86-3.3,23.7,23.7,0,0,1-9.36-9.13,26.21,26.21,0,0,1-3.33-13.23,25.63,25.63,0,0,1,3.36-13.08,23.84,23.84,0,0,1,9.44-9.1,31.12,31.12,0,0,1,27.59-.17Zm-8.15,29.11a8.87,8.87,0,0,0,2.32-6.47,8.7,8.7,0,0,0-2.32-6.39,8,8,0,0,0-6-2.35,7.94,7.94,0,0,0-6,2.38,8.76,8.76,0,0,0-2.3,6.36,9,9,0,0,0,2.3,6.44,7.92,7.92,0,0,0,6,2.41A8,8,0,0,0,150.35,478.49Z"></path><path fill="#20196f" d="M636.66,673c-1.86,0-4.17,2.06-4.47,4.24H628.8a18.55,18.55,0,0,1-1.57-12.84c1.11-4.54,2.28-3.45,3.46-2.27,2.7,2.19,13.69,2.91,14.55-.79,2.84.43,32,8.84,32,11.54,0,4.37-3.43,4.36-5.77,4.36C643.89,677.24,647.55,675.54,636.66,673Z"></path><path fill="#f0ccc0" d="M642.25,656.7c-.94-4.16-13-7.28-12.36,0a9.88,9.88,0,0,1-.63,4.64h0c2.7,2.19,27.86,10,32,4.57C658.37,664.36,642.25,661.12,642.25,656.7Z"></path><path fill="#20196f" d="M570,673c-1.86,0-4.17,2.06-4.46,4.24h-3.39a18.55,18.55,0,0,1-1.57-12.84c1.1-4.54,2.27-3.45,3.46-2.27,2.69,2.19,13.68,2.91,14.54-.79,2.84.43,32,8.84,32,11.54,0,4.37-3.43,4.36-5.76,4.36C577.22,677.24,580.88,675.54,570,673Z"></path><path fill="#f0ccc0" d="M575.59,656.7c-1-4.16-13-7.28-12.37,0a9.88,9.88,0,0,1-.63,4.64h0c2.7,2.19,27.86,10,32,4.57C591.7,664.36,575.59,661.12,575.59,656.7Z"></path><path fill="#20196f" d="M591.12,407c-2.84,44.53,14.65,99.86,29.74,142.71-10.38,34.89,2.65,75,8.17,107h14.18c.1-35.64,15.92-209.48-1-248.72C630.49,408,591.12,407,591.12,407Z"></path><path fill="#423eaf" d="M584.42,407c-17.62,27.18-13.86,84.1-8,139.81-19.94,35.3-12.74,89.16-13.84,109.87h14.2c8-25.24,12.51-46.09,26.64-97.62,4.93-18,27.82-91.42,29.28-151.29C620.76,407.79,584.42,407,584.42,407Z"></path><path fill="#e19100" d="M679.17,373.05c-1.88,7.2-33,17.64-37.12,16.08s-22.71-82-22.71-82c20.86,5.88,28.24,47.12,30.88,62.36,9.4-3.92,24-5.14,24-5.14s4.95,3.84,4.95,8.73"></path><path fill="#f0c9c0" d="M685,365.28c1.8,1.25,4.18,3.37,3,4.52a4,4,0,0,1-2.6,1.16c0,.8-3.06,2.54-5.54,1.5a7.83,7.83,0,0,1-2.42,1.5c-1.51-.35-4.74-4-4-6.41s1.55-7.33,2.48-9.17,2.36-6.29,4.44-5.89a30.79,30.79,0,0,1,5.87,2.41l-5,8.55Z"></path><path fill="#f8d8d0" d="M693.12,357.5c1.6-.85,9-5.33,8.12-6.22s-2.71-.75-5.36.92-2.92,5.5-2.92,5.5"></path><path fill="#423eaf" d="M699.11,350.41c-.29.44-10.77,13.06-12,14.27-1.67,1.67-4.64.93-6.86.36-1-.25-4.35-.69-3.26-2.16s11-13.53,12.31-14.18,8.91-.38,9.3,0S699.65,349.59,699.11,350.41Z"></path><path fill="#f8d8d0" d="M691,363.7c-1.07-.56-11-3.34-11.43-2.33-.88,2.06,3.16,4.24,6.28,5.1s6.07,1.66,6.53.39A2.41,2.41,0,0,0,691,363.7Z"></path><path fill="#f8d8d0" d="M688.06 367.38c-.9-.66-9.6-4.54-10.13-3.67-1.08 1.76 2.32 4.29 5.05 5.5s5.33 2.34 5.92 1.24A2.22 2.22 0 00688.06 367.38zM689.9 363.28c1.69.2 3.73.77 4.68-.88s-.76-3.92-2-5.1-2.64-1.56-3.59-.61.7 3 1.58 3.84l-2 2.37z"></path><path fill="#fcba06" d="M584.42,407a608.64,608.64,0,0,0-4.65-74.75c-1.26-10.57,3.5-29.27,13.26-31.6A29.46,29.46,0,0,1,620,307.55c11,9.85,29.55,35.32,28.62,40.45-1.68,9.39-10.29,12.32-9.09,34.72S642.25,408,642.25,408,595.75,407,584.42,407Z"></path><path fill="#f7d3c9" d="M619.34,307.1c-4-4.36-3.32-13.06-1.27-15.32s9.84.72,12.3-2.77c3.32-4.71,6.48-14.32,7.16-22.55,1-12-1.62-20.54-15-21.39-10.6-.68-19.14,6.07-21.06,16.84-2.15,12,2.44,25.12,1.07,29.21a7.82,7.82,0,0,1-4.69,5.08S599.47,307.1,619.34,307.1Z"></path><path fill="#f8d8d0" d="M614.26,348.44c2.66-1.2,16.18-6.44,16.69-8.55a7.68,7.68,0,0,0,0-3.72,4.19,4.19,0,0,0,1.35-3.68c.61-.61,2.74-2.83,1.22-5.24,1.06-.21,13.07-.27,13.07-2.39-1.38-1.38-10.41-1.62-12.35-1.62s-8.79-.23-12.28,1-5.75,7.44-7.44,9.13-5.8,5.24-5.8,5.24Z"></path><path fill="#ed9f00" d="M575.59,322.09c5.5-9.87,12.49-16.28,14.7-17.2,5.34-2.22,20.22,7.45,3.17,31.28-7.87,11-11.64,15.51-13.45,17.36l0,.28c10.25-6.35,24.22-14.69,28-16.51,0,0,4.75,8.52,7,12.38-21.82,19.41-24.6,21.05-35.53,29-9.46,6.89-19.1,5.72-20.67,2.65C552.64,372.27,564.39,342.2,575.59,322.09Z"></path><path fill="#362e93" d="M595.53,270.63C595.66,281,580.14,283,568.59,292c-9.08,7.06-26,22.46-32.33,47.73-2.8,11.74.79,18.27,12.42,17.35,11.31-.9,11.53,5.64,20,9,31.08,5.18,3.11-27.57,3.17-49.32s19.4-12.6,29.84-21.39c7.33-6.18,2-11.92,7-18.87,4.42-6.06,8.85-8.33,16.25-8.71,6.87-.35,11.29-6,12.82-12.08a3.46,3.46,0,0,0-.26-3.15C632.05,234.53,595.05,234.19,595.53,270.63Z"></path><path fill="#1f196f" d="M623.34,265.66c-10.84-5-11.89,10.4-16.28,9.94-8.59-.91,2,13.62-5.38,19.8-10.47,8.82-29.77-.36-29.86,21.41s24.9,50.46-3.23,49.28c7.37,2.58,13.24,2.93,19-4.36,14.32-18.15-15.86-39.05,2.35-49,16.48-9,22.68-13.19,21.55-26.36-1-11.77,3.66-6.44,8.12-13.86,2-3.28,7,1.05,10.8-1.86a19.25,19.25,0,0,0,7.5-15.62C636.11,261.31,629.71,268.6,623.34,265.66Z"></path><path fill="#6b67e9" d="M368.65,489.85l20.67,20.68L410,489.85a29.24,29.24,0,1,0-41.35,0Zm10.1-20.67a10.58,10.58,0,1,1,10.57,10.57A10.57,10.57,0,0,1,378.75,469.18Z"></path><path fill="none" stroke="#ced3f8" stroke-linecap="round" stroke-linejoin="round" stroke-width="2" d="M297.44,280C291.06,278.11,287,270,287,261.2s4.08-16.92,10.46-18.84"></path><path fill="none" stroke="#ced3f8" stroke-linecap="round" stroke-linejoin="round" stroke-width="2" d="M297.44,280c6.39-1.92,10.47-10.07,10.47-18.83s-4.08-16.92-10.47-18.84"></path><line x1="297.44" x2="297.44" y1="242.36" y2="280.03" fill="none" stroke="#ced3f8" stroke-linecap="round" stroke-linejoin="round" stroke-width="2"></line><line x1="278.61" x2="316.28" y1="261.2" y2="261.2" fill="none" stroke="#ced3f8" stroke-linecap="round" stroke-linejoin="round" stroke-width="2"></line><path fill="none" stroke="#ced3f8" stroke-linecap="round" stroke-linejoin="round" stroke-width="2" d="M309.88 247.06a15.65 15.65 0 01-24.87 0M309.88 275.34a15.65 15.65 0 00-24.87 0"></path><path fill="none" stroke="#ced3f8" stroke-linecap="round" stroke-linejoin="round" stroke-width="2" d="M278.61,261.2A18.84,18.84,0,1,1,297.44,280,18.83,18.83,0,0,1,278.61,261.2Z"></path><path fill="#ced3f8" d="M290.42,193.23c-.53-1.27-.93-1.32-1.74-1.36-.31,0-.61,0-.92,0a4,4,0,0,0-2.81,1,8.78,8.78,0,0,0-2.8,6.68c0,3.93,2.87,7.74,3.25,8.27s5.6,8.73,13.67,12.07c6.31,2.61,8.18,2.37,9.61,2.06,2.1-.45,4.73-2,5.39-3.87a6.85,6.85,0,0,0,.47-3.8c-.19-.34-.73-.54-1.53-.94s-4.73-2.34-5.47-2.6a1.53,1.53,0,0,0-2,.6,31.36,31.36,0,0,1-2.15,2.84,1.72,1.72,0,0,1-1.93.3,20.27,20.27,0,0,1-6.44-4,24.66,24.66,0,0,1-4.45-5.54c-.47-.8-.05-1.27.32-1.71s.79-.85,1.19-1.32a4.73,4.73,0,0,0,.89-1.26,1.62,1.62,0,0,0-.11-1.48c-.19-.41-1.81-4.34-2.47-5.94Z"></path><rect width="32.02" height="8.01" x="328.1" y="202.97" fill="#9f9cff"></rect><rect width="93.02" height="8.01" x="328.1" y="257.2" fill="#9f9cff"></rect><rect width="61.31" height="8.01" x="278.61" y="348.5" fill="#9f9cff"></rect><rect width="103.63" height="8.01" x="278.61" y="331.73" fill="#9f9cff"></rect><rect width="42.63" height="15.78" x="278.61" y="306.42" fill="#5652cc"></rect><rect width="32.02" height="8.01" x="369.27" y="202.97" fill="#9f9cff"></rect><rect width="32.02" height="8.01" x="410.45" y="202.97" fill="#9f9cff"></rect><rect width="32.02" height="8.01" x="451.62" y="202.97" fill="#9f9cff"></rect><path fill="#ffd03e" d="M70.2,313.55l7.06-13.88a3.25,3.25,0,0,1,4.38-1.43l13.88,7.06A3.27,3.27,0,0,1,97,309.68l-7.07,13.89A3.25,3.25,0,0,1,85.5,325l-13.88-7.06A3.26,3.26,0,0,1,70.2,313.55Z"></path><path fill="#807dfb" d="M666,71.36l6.87,18.17a2.74,2.74,0,0,0,4.68.76l12.29-15a2.73,2.73,0,0,0-1.67-4.43L669,67.69A2.74,2.74,0,0,0,666,71.36Z"></path><path fill="#ffd03e" d="M453.44,709.16l-13.27,14.18a2.73,2.73,0,0,0,1.37,4.53l18.92,4.4a2.74,2.74,0,0,0,3.24-3.46l-5.65-18.58A2.73,2.73,0,0,0,453.44,709.16Z"></path></g></svg>