<svg xmlns="http://www.w3.org/2000/svg" viewBox="0 0 1600 1200" id="money-wallet"><defs><clipPath id="a"><rect width="475.9" height="442.34" x="625.79" y="211.11" fill="none"></rect></clipPath><clipPath id="b"><polygon fill="none" points="969.85 362.94 603.93 362.94 650.47 653.46 969.85 653.46 969.85 362.94"></polygon></clipPath><clipPath id="c"><path fill="none" d="M871.72,523.91V653.45H983.36A13.68,13.68,0,0,1,997,667.13v50.38h90.11V523.91Z"></path></clipPath><linearGradient id="d" x1="272.76" x2="137.58" y1="737.8" y2="865.05" gradientUnits="userSpaceOnUse"><stop offset="0" stop-color="#20196f"></stop><stop offset=".33" stop-color="#2c2483"></stop><stop offset=".68" stop-color="#332b90"></stop><stop offset="1" stop-color="#362e94"></stop></linearGradient></defs><g data-name="Secondary shapes"><polygon points="691.54 647.13 797.62 647.13 799.56 653.46 695.48 653.46 691.54 647.13" style="mix-blend-mode:multiply" fill="#dde2f8"></polygon><path fill="#e9efff" d="M1253.29 900.69c0-7-49.15-12.64-109.77-12.64s-109.77 5.66-109.77 12.64 49.14 12.65 109.77 12.65S1253.29 907.68 1253.29 900.69zM439.37 936.92c0-8.23-74.4-14.9-166.17-14.9S107 928.69 107 936.92s74.39 14.9 166.16 14.9S439.37 945.15 439.37 936.92zM1503.5 954.25c0-7-49.15-12.64-109.77-12.64S1284 947.27 1284 954.25s49.14 12.64 109.77 12.64S1503.5 961.24 1503.5 954.25z"></path><path fill="#dde2f8" d="M1011.41,756.67c35.69-12.41,42.22-47.15,21.92-86.75C1003.36,687.56,982.62,727.05,1011.41,756.67Z"></path><path fill="#5652cc" d="M620.77,638.07V907.48c0,8.49,16,15.38,35.74,15.38H983.36A13.67,13.67,0,0,0,997,909.19V667.13a13.68,13.68,0,0,0-13.67-13.68H656.51C636.77,653.45,620.77,646.57,620.77,638.07Z"></path><path fill="#20196f" d="M620.77,638.07c0,8.5,16,15.38,35.74,15.38H968.77V636.36a13.68,13.68,0,0,0-13.67-13.68H656.51C636.77,622.68,620.77,629.57,620.77,638.07Z"></path><path fill="#362e94" d="M945.41,640.8H656.49c-11.86,0-22.37,2.5-28.87,6.32,6.49,3.84,17,6.33,28.87,6.33H959A13.67,13.67,0,0,0,945.41,640.8Z"></path><path fill="#20196f" d="M997,726.62v22.2c9,0,16.34-3.65,16.34-8.16S1006.05,732.09,997,726.62Z"></path><path fill="#807dfb" d="M997,748.82H936.71a42.42,42.42,0,0,0,0,84.83H997c9,0,16.34-3.66,16.34-8.17V740.66C1013.37,745.17,1006.05,748.82,997,748.82Z"></path><path d="M919.49,795.34a21.33,21.33,0,1,1,21.33,21.33A21.33,21.33,0,0,1,919.49,795.34Z" style="mix-blend-mode:multiply" fill="#c4cae9"></path><path fill="#e9edf7" d="M915.38,791.24a21.33,21.33,0,1,1,21.33,21.32A21.34,21.34,0,0,1,915.38,791.24Z"></path><path fill="#fff" d="M921.05,787.72c-1.69-1.7-.34-5.78,3-9.13s7.44-4.7,9.13-3-2.23,3.21-5.57,6.56S922.75,789.41,921.05,787.72Z"></path><path fill="#ffd03e" d="M974.77 682.86H959a3.85 3.85 0 110-7.7h15.77a3.85 3.85 0 010 7.7zm-39.44 0H919.56a3.85 3.85 0 110-7.7h15.77a3.85 3.85 0 110 7.7zm-39.43 0H880.12a3.85 3.85 0 110-7.7H895.9a3.85 3.85 0 110 7.7zm-39.44 0H840.68a3.85 3.85 0 110-7.7h15.78a3.85 3.85 0 010 7.7zm-39.44 0H801.24a3.85 3.85 0 010-7.7H817a3.85 3.85 0 010 7.7zm-39.44 0H761.81a3.85 3.85 0 110-7.7h15.77a3.85 3.85 0 010 7.7zm-39.44 0H722.37a3.85 3.85 0 110-7.7h15.77a3.85 3.85 0 110 7.7zm-39.44 0H682.93a3.85 3.85 0 110-7.7H698.7a3.85 3.85 0 110 7.7zm-39.43 0h-1.72a3.85 3.85 0 110-7.7h1.72a3.85 3.85 0 010 7.7zM974.77 901.16H959a3.86 3.86 0 110-7.71h15.77a3.86 3.86 0 010 7.71zm-39.44 0H919.56a3.86 3.86 0 010-7.71h15.77a3.86 3.86 0 110 7.71zm-39.43 0H880.12a3.86 3.86 0 010-7.71H895.9a3.86 3.86 0 010 7.71zm-39.44 0H840.68a3.86 3.86 0 010-7.71h15.78a3.86 3.86 0 010 7.71zm-39.44 0H801.24a3.86 3.86 0 010-7.71H817a3.86 3.86 0 010 7.71zm-39.44 0H761.81a3.86 3.86 0 110-7.71h15.77a3.86 3.86 0 010 7.71zm-39.44 0H722.37a3.86 3.86 0 010-7.71h15.77a3.86 3.86 0 010 7.71zm-39.44 0H682.93a3.86 3.86 0 010-7.71H698.7a3.86 3.86 0 110 7.71zm-39.43 0h-1.72a3.86 3.86 0 010-7.71h1.72a3.86 3.86 0 010 7.71z"></path><g clip-path="url(#a)"><rect width="408.46" height="193.84" x="632.76" y="534.54" fill="#5652cc" transform="rotate(-72.11 836.924 631.462)"></rect><path fill="#fff" d="M932.39,462.2,858.6,438.38c-8.93,27.65-35.05,44-58.33,36.45L715.6,737c23.29,7.52,34.93,36,26,63.68l73.79,23.82c8.93-27.65,35-44,58.33-36.45l84.66-262.21C935.1,518.37,923.45,489.85,932.39,462.2Z"></path><path fill="#e9edf7" d="M818.64,688.29a59.72,59.72,0,1,1,75.19-38.47A59.71,59.71,0,0,1,818.64,688.29Z"></path><path fill="#bbc0e6" d="M832.32,641.16a19.32,19.32,0,0,1-18.1,3.34,23.05,23.05,0,0,1-8.5-4.44c-6.09.08-5.85-9.41-5.33-19.31.31-6,1.54-27.46,12.61-12.75a19.39,19.39,0,0,1,25.88,12.87c10.87-17.54,24.91-14.29,40.7-9.2L860,672.42C844.18,667.32,831.13,661,832.32,641.16Z"></path><path fill="#807dfb" d="M795.94 761.5a2.8 2.8 0 01-.89-.14 2.89 2.89 0 01-1.86-3.64l19.51-60.43a2.89 2.89 0 115.5 1.77L798.69 759.5A2.9 2.9 0 01795.94 761.5zM780.44 741.9a3 3 0 01-.88-.14 2.89 2.89 0 01-1.86-3.64l11-34a2.89 2.89 0 015.5 1.77l-11 34A2.88 2.88 0 01780.44 741.9zM820 754.66a2.76 2.76 0 01-.89-.14 2.88 2.88 0 01-1.86-3.63l11-34a2.89 2.89 0 015.5 1.78l-11 34A2.9 2.9 0 01820 754.66z"></path><path fill="#5652cc" d="M858.53 567.63a2.7 2.7 0 01-.88-.14 2.89 2.89 0 01-1.87-3.63l19.52-60.44a2.89 2.89 0 015.5 1.78l-19.52 60.43A2.89 2.89 0 01858.53 567.63zM843 548a3 3 0 01-.89-.13 2.89 2.89 0 01-1.86-3.64l11-34a2.87 2.87 0 013.63-1.86 2.9 2.9 0 011.87 3.64l-11 34A2.89 2.89 0 01843 548zM882.57 560.79a2.76 2.76 0 01-.89-.14 2.88 2.88 0 01-1.86-3.63l11-34a2.89 2.89 0 015.5 1.78l-11 34A2.89 2.89 0 01882.57 560.79z"></path></g><g clip-path="url(#b)"><rect width="193.84" height="408.46" x="660.57" y="407.11" fill="#807dfb" transform="rotate(-8.46 757.404 611.284)"></rect><path fill="#fff" d="M767.84,417.33l-76.7,11.4c4.28,28.75-11.88,55-36.08,58.57l40.53,272.53c24.2-3.6,47.29,16.78,51.57,45.53L823.85,794c-4.28-28.75,11.88-55,36.08-58.57L819.41,462.85C795.2,466.45,772.11,446.07,767.84,417.33Z"></path><path fill="#e9edf7" d="M766.28,670.41a59.72,59.72,0,1,1,50.29-67.86A59.72,59.72,0,0,1,766.28,670.41Z"></path><path fill="#bbc0e6" d="M757.62,622.1c-1.12,9.1-21.54,11.6-24.33,10.83-5.42,2.78-9.42-5.83-13.35-14.94-2.39-5.52-10.8-25.29,5.64-17,2.91-3.25,21.85-9.65,28.9,0,2-20.54,16-23.86,32.39-26.3l9.39,63.14C779.86,640.28,765.35,640.42,757.62,622.1Z"></path><path fill="#807dfb" d="M777.15 746.39a2.9 2.9 0 01-2.86-2.46L765 681.11a2.89 2.89 0 015.72-.85L780 743.08a2.9 2.9 0 01-2.43 3.28zM754.56 735.71a2.89 2.89 0 01-2.85-2.47l-5.26-35.33a2.89 2.89 0 015.72-.85l5.25 35.33a2.89 2.89 0 01-2.43 3.29A3.11 3.11 0 01754.56 735.71zM795.65 729.59a2.89 2.89 0 01-2.86-2.46l-5.25-35.33a2.89 2.89 0 015.71-.85l5.26 35.33a2.89 2.89 0 01-2.44 3.28A2 2 0 01795.65 729.59zM747.18 544.89a2.88 2.88 0 01-2.85-2.47L735 479.61a2.89 2.89 0 015.72-.85L750 541.57a2.88 2.88 0 01-2.43 3.28A2.15 2.15 0 01747.18 544.89zM724.59 534.2a2.88 2.88 0 01-2.85-2.46l-5.26-35.33a2.89 2.89 0 115.72-.85l5.25 35.33a2.88 2.88 0 01-2.43 3.28zM765.68 528.09a2.9 2.9 0 01-2.86-2.46l-5.25-35.34a2.89 2.89 0 015.72-.85l5.25 35.34a2.9 2.9 0 01-2.43 3.28z"></path></g><path fill="#e19100" d="M675.65,926.2c-16.62-9.71-43.57-9.71-60.07,0-8.21,4.83-12.32,11.16-12.33,17.5l0,14.41c0-6.35,4.13-12.68,12.34-17.51,16.5-9.71,43.45-9.71,60.07,0,8.36,4.89,12.54,11.33,12.52,17.75,0-4.32,0-10.08,0-14.4C688.19,937.53,684,931.09,675.65,926.2Z"></path><path fill="#fbba05" d="M675.65,931c16.62,9.72,16.71,25.52.21,35.23s-43.48,9.72-60.1,0-16.69-25.51-.18-35.23S659,921.3,675.65,931ZM645.75,944a4,4,0,0,1,2.3-3.29,12.21,12.21,0,0,1,11.22,0c3.1,1.81,3.12,4.76,0,6.58l5.12,3c5-2.94,5.71-7.46,2.16-10.87l4-2.35-5.1-3-4,2.36c-5.84-2.08-13.53-1.64-18.53,1.3-2.84,1.68-4.41,3.91-4.39,6.28s1.6,4.59,4.46,6.27c3.11,1.81,3.11,4.76,0,6.57a12.21,12.21,0,0,1-11.22,0c-3.1-1.81-3.12-4.76,0-6.57l-5.11-3c-5,2.94-5.72,7.45-2.17,10.87l-3.69,2.17,5.1,3,3.7-2.17c5.82,2.07,13.53,1.63,18.53-1.31,5.88-3.46,5.83-9.09-.08-12.54-1.5-.89-2.35-2-2.34-3.29Z"></path><path fill="#e19100" d="M698,944l0,14.4c0,7.8-5.09,15.59-15.2,21.53-20.35,12-53.46,12-74,0-10.3-6-15.45-13.93-15.43-21.83l0-14.4c0,7.89,5.13,15.81,15.44,21.83,20.48,12,53.59,12,73.95,0C692.91,959.55,698,951.77,698,944Z"></path><path fill="#ffd03e" d="M682.56,922.13c20.49,12,20.6,31.4.25,43.37s-53.47,12-73.95,0-20.59-31.4-.24-43.37S662.08,910.15,682.56,922.13Zm-66.8,39.3c16.62,9.72,43.58,9.72,60.1,0s16.41-25.51-.21-35.23-43.57-9.71-60.07,0-16.44,25.52.18,35.23Z"></path><path fill="#ffd03e" d="M670.57,933.16l-4,2.35c3.55,3.41,2.84,7.93-2.16,10.87l-5.12-3c3.09-1.82,3.07-4.76,0-6.58a12.24,12.24,0,0,0-11.22,0,4,4,0,0,0-2.3,3.29c0,1.24.84,2.41,2.34,3.29,5.91,3.46,6,9.09.08,12.55-5,2.94-12.71,3.37-18.53,1.3l-3.7,2.17-5.1-3,3.69-2.17c-3.55-3.42-2.83-7.93,2.17-10.87l5.11,3c-3.09,1.82-3.07,4.77,0,6.58a12.21,12.21,0,0,0,11.22,0c3.07-1.81,3.07-4.76,0-6.58-2.86-1.67-4.45-3.9-4.46-6.27s1.55-4.6,4.39-6.27c5-2.94,12.69-3.38,18.53-1.31l4-2.35Z"></path><path fill="#e19100" d="M643,950.22a5.45,5.45,0,0,1,1.61,1.38c1.32-1.72.81-3.81-1.61-5.22-2.72-1.59-4.28-3.69-4.43-5.93,0,0,0,3.38,0,3.5C638.57,946.32,640.16,948.54,643,950.22Zm-20.35,5.14,1.86-1.09a6.44,6.44,0,0,1-2.2-4.66s0,3.87,0,3.87A5.69,5.69,0,0,0,622.67,955.36Zm25.5.59c-5,2.94-12.71,3.37-18.53,1.3l-3.7,2.17-5.1-3v3.84l5.1,3,3.7-2.17c5.82,2.07,13.53,1.63,18.53-1.31,3-1.73,4.41-4,4.38-6.3v-3.8C652.56,952,651.1,954.22,648.17,956Zm-17.94-4.37a5.39,5.39,0,0,1,1.58-1.36v-3.84C629.41,947.79,628.9,949.88,630.23,951.58Zm36.35-16.07a7.35,7.35,0,0,1,1.86,2.74l2.13-1.25v-3.84Zm-2.16,10.87-5.12-3v3.84l5.12,3c2.94-1.73,4.38-4,4.36-6.28,0,0,0-3.74,0-3.74C668.77,942.44,667.32,944.68,664.42,946.38ZM660.88,942c1.33-1.71.81-3.8-1.61-5.22a12.24,12.24,0,0,0-11.22,0,4,4,0,0,0-2.3,3.29,3.11,3.11,0,0,0,.72,1.91,5.5,5.5,0,0,1,1.58-1.36,12.21,12.21,0,0,1,11.22,0A5.58,5.58,0,0,1,660.88,942Z"></path><path fill="#362e94" d="M1167.93,667.26c-3.4,31-28,75-38.34,113.32,5.94,26.1.08,59.24.23,99.93h-10.06c-6.34-23.77-11.56-51.67-20.81-96-3.17-15.19-2-79.62,17.71-112.21C1126.29,671.43,1167.93,667.26,1167.93,667.26Z"></path><path fill="#f0ccc0" d="M1131.34,884.19a9.41,9.41,0,0,1-1.52-3.68h-10.06a8.8,8.8,0,0,1,.35,6.7C1122.73,888.21,1126.56,885.62,1131.34,884.19Z"></path><path fill="#20196f" d="M1131.34,884.19c-4.78,1.43-8.61,4-11.23,3-1.38,1-21.8,8.35-23.88,9.77s-1.82,3.71.44,3.71c3.29,0,30.4-1.19,30.4-1.19.55.6,1,1.19,1,1.19h6.19C1136.11,897.49,1135.61,887.88,1131.34,884.19Z"></path><path fill="#5652cc" d="M1177.09,666c5.62,32.38,1,75.09-8.37,113.39,9.46,24,10.69,55,16.3,101.11H1175c-11.61-28.33-22.79-55-39.85-96-6-14.33-20.49-93.46-7.61-131.8Z"></path><path fill="#f0ccc0" d="M1186.53,884.19a9.48,9.48,0,0,1-1.51-3.68H1175a8.76,8.76,0,0,1,.36,6.7C1177.93,888.21,1181.76,885.62,1186.53,884.19Z"></path><path fill="#20196f" d="M1186.53,884.19c-4.77,1.43-8.6,4-11.22,3-1.38,1-21.8,8.35-23.88,9.77s-1.82,3.71.43,3.71c3.3,0,30.41-1.19,30.41-1.19.55.6,1,1.19,1,1.19h6.19C1191.31,897.49,1190.81,887.88,1186.53,884.19Z"></path><path fill="#bbc0e6" d="M1124.87,566.36c5.83,7.21-13.43,57.41-54.79,66.21-26.86,5.72-65.15,3.34-65.15,3.34.72-4,1.49-10,1.49-10,7.27,1.08,43.16-9.83,56.62-14.71C1082.48,604.14,1111.11,549.36,1124.87,566.36Z"></path><path fill="#ced3f8" d="M1134.11,553.37c8.08,7.16,20.09,11.82,28.06,36.42S1177.09,666,1177.09,666c-4.11.71-60.43,6.32-60.43,6.32-5.13-14.8-13.66-43-12.63-67.52s10.17-41.15,13.31-45.61C1128.46,557.28,1134.11,553.37,1134.11,553.37Z"></path><path fill="#f8d8d0" d="M1128.85,536.06c.45,3.59,3.4,16,7.3,19-1.72,2.15-9.4,5-21.12,7.91,1.24-2.68,3.46-5.91.16-9.28-3.58-3.66-6.36,3.19-11.49-3-6-7.22-11.25-23.11-8.51-28.6,3.07-6.14,10.19-14.5,23.64-10.57C1129.81,514.72,1127.93,528.77,1128.85,536.06Z"></path><path fill="#362e94" d="M1118,530.34c-2.64.71-3-6.61-5.42-7.78-2.8-1.38-10.81-.57-18.09,2.14s-14.41-5.88-10.65-11.14,9.53-.77,12.8-2.86c3.81-2.44,1.79-7.33,8.11-8.35,5.83-1,4.58,5,8.44,5s8.23-6.32,14.28-1.61c4.48,3.5,0,7.32,1.79,12,1.1,2.94,10.87,10,3.71,15.78s-7.38-2.94-7.81-6.47-2.56-5.4-4.29-5S1121.81,529.33,1118,530.34Z"></path><g clip-path="url(#c)"><path fill="#fcba06" d="M911.57,574a83.53,83.53,0,1,1,20.37,116.36A83.55,83.55,0,0,1,911.57,574Z"></path><path fill="#e19100" d="M918.67,579A74.86,74.86,0,1,0,1023,560.73,74.93,74.93,0,0,0,918.67,579Z"></path><path fill="#ed9f00" d="M923.74,582.53a68.67,68.67,0,1,0,95.66-16.73A68.75,68.75,0,0,0,923.74,582.53Z"></path><path fill="#fcba06" d="M983,617.57a12.67,12.67,0,0,1,14.57-20.74,12.68,12.68,0,0,1,3.08,17.65l9.42,6.61a24.17,24.17,0,0,0-1.61-29.77l5.21-7.43-9.4-6.61-5.22,7.43A24.15,24.15,0,0,0,976.44,627a12.67,12.67,0,1,1-17.65,3.1l-9.41-6.61a24.18,24.18,0,0,0,1.6,29.77l-4.81,6.85,9.41,6.61,4.81-6.86A24.14,24.14,0,0,0,983,617.57Z"></path></g><path fill="#dde2f8" d="M1142.55,568.19c6.39,6.72-8.8,58.3-49.32,70.38-26.31,7.85-73.28,4.76-73.28,4.76.4-4.07.69-10.07.69-10.07,7.32.49,50.84-9.48,63.86-15.43C1103.32,609.24,1127.47,552.34,1142.55,568.19Z"></path><path fill="#f8d8d0" d="M1020.64,633.26c-2.76.07-2.48-2.32-5.42-3.89s-4.1-5.18-5-4.61.9,4.73,1.58,5.53c-1.78-.48-10.81-3.71-11.72-1.65-.74,1.68-2.41,2-2,4.15s3,6,7.21,7.28,7,2.15,9.41,1.75a16.55,16.55,0,0,1,5.37.18C1020.19,640.58,1020.64,633.26,1020.64,633.26Z"></path><path fill="#f7d3c9" d="M1345.65,801.24c-3.47,9.75-9.69,21.21-9.69,37s6.39,98.66,6.39,103.16h7.89c0-5.26,9.82-74.26,3.25-99.24A244.5,244.5,0,0,1,1372,807.2Z"></path><path fill="#003e7a" d="M1345.92,951.77a3.35,3.35,0,0,1,2.84,2.71h2.17a11.87,11.87,0,0,0,1-8.19c-.71-2.9-1.45-2.2-2.21-1.45-1.72,1.4-8.73,1.86-9.28-.5-1.81.27-20.44,5.64-20.44,7.36,0,2.79,2.19,2.78,3.68,2.78C1341.3,954.48,1339,953.4,1345.92,951.77Z"></path><path fill="#f7d3c9" d="M1342.35 941.38c.6-2.65 8.28-4.65 7.89 0a6.09 6.09 0 00.4 3h0c-1.72 1.4-17.76 6.36-20.41 2.92C1332.07 946.27 1342.35 944.2 1342.35 941.38zM1427.47 819.05h0l.5-19.44-30.61 5.07s9.76 19.83 13.53 25.44a11.77 11.77 0 003.25 3.24c13.12 8.77 78.47 44.82 82.22 47.32l4.38-6.55C1496.43 871.23 1449.13 828.79 1427.47 819.05z"></path><path fill="#003e7a" d="M1507,883.49a3.33,3.33,0,0,1,3.83-.86c.93-1.38,1.17-1.75,1.2-1.8a11.85,11.85,0,0,0-6.24-5.39c-2.81-1-2.64,0-2.44,1,.21,2.2-3.31,8.29-5.57,7.43-.78,1.66-6.69,20.13-5.25,21.08,2.32,1.56,3.53-.27,4.36-1.51C1506.68,888.83,1504.48,890.16,1507,883.49Z"></path><path fill="#f7d3c9" d="M1496.37,880.67c-1.87-2,.74-9.47,4.38-6.55a6.24,6.24,0,0,0,2.69,1.31h0c.2,2.21-4.6,18.31-8.93,18.59C1494.71,891.93,1498.71,882.24,1496.37,880.67Z"></path><path fill="#fcba06" d="M1416,722.41h-36.81c-12.58,9.58-24,49.21-54.83,68.74,24.41,15,42.07,21.22,65.16,22.91,21.35,1.56,32.87-.75,58.78-16.53-8.54-4.6-19.71-18.14-21.78-36.81C1424.31,741.11,1421,722.41,1416,722.41Z"></path><path fill="#362e94" d="M1381.7,600.67c.68,4.16-5.18,33.86-13.06,48.5,4.19,1.06,18.4,1.19,23.16-2.81,3-8.77-1.88-41.5-4.38-48.89C1382.91,597.47,1381.7,600.67,1381.7,600.67Z"></path><path fill="#f8d8d0" d="M1318.12,550c1-1,3.56,9.33,3.51,8.39-.52-8.62-.25-14.22.41-14.22.92,0,2.12,11,2.12,13.94,0-2.9.15-10.8,1.85-12.67.58-.65,1.06,10.08,1.06,13.08,0-3.29.63-12.66,2.19-12.49s.8,10,.19,13.21c0,0,4.79-6,4.79-3.68,0,1.47-2.88,4.28-2.88,10.19,0,4.13-1.24,4.5-1.27,6.06,7.51,41.16,39.47,67.42,47,70.23,0,0,4.68,13.45-5.07,20-38.73-30.22-51.63-80.14-51.83-90.72l-.17-.08C1319.42,566.09,1317.34,550.74,1318.12,550Z"></path><path fill="#6b67e9" d="M1377.49,723.86c-2.57,0-4.67.37-3.49-10.68s2.4-14.66.52-20.67-6.88-11.64-8.26-19.27c1-7.77,7.64-21.92,9.39-28.8s19.66-9.14,30.67-9.14,14.4,11.27,15.78,22.66,4.38,67-3.62,66.1C1407.6,722.89,1377.49,723.86,1377.49,723.86Z"></path><path fill="#fcba06" d="M1296,537a72.53,72.53,0,1,1,96.16,35.71A72.52,72.52,0,0,1,1296,537Z"></path><path fill="#e19100" d="M1306.06,532.36a61.5,61.5,0,1,0,30.28-81.54A61.55,61.55,0,0,0,1306.06,532.36Z"></path><path fill="#ed9f00" d="M1311.11,530.05a55.94,55.94,0,1,0,27.54-74.17A56,56,0,0,0,1311.11,530.05Z"></path><path fill="#fcba06" d="M1360,502.47a11,11,0,1,1,5.42-14.59l9.08-4.16a21,21,0,0,0-23-11.84l-3.29-7.16-9.07,4.16,3.28,7.17a21,21,0,0,0,21.76,35.49,11,11,0,1,1-5.41,14.59l-9.08,4.16a21,21,0,0,0,23,11.84l3,6.6,9.08-4.15-3-6.61a21,21,0,0,0-21.77-35.5Z"></path><path fill="#f8d8d0" d="M1408,641.92c24.88-29.64,17.34-69.16,12.29-84.37l-.23-.71h0c-3-4.21-11.55-15-11.24-16.1.4-1.4,6.93,4.82,6.42,4-4-6.07-7.83-8.88-6.58-10.59.54-.74,7.25,6.58,8.66,9.12-1.4-2.54-6.41-9.52-5.31-11.72.2-.85,6.6,8,8,10.67-1.58-2.87-6.2-10.85-4.84-11.75s6.15,7.84,7.27,11.24c.7-.24-1.6-3.41-.71-5.19.74-1.47,3.9,2.8,4.79,9.61.55,4.14.91,6.54,1.69,8,8,18.24,12.19,46.42,10.55,56.95-1.9,19.69-8.11,37.69-14.29,46C1412.46,673.19,1398.42,653.3,1408,641.92Z"></path><path fill="#f8d8d0" d="M1388.21,637.14c1.49,1.49,14.34,1.61,16.77-1.83a54.37,54.37,0,0,1,1.31-12.52c1-4.27,3.76-8.92,2.16-18.87s-8-18.57-18.9-15.59c-9.64,2.63-8.5,20.84-8.1,26.34.62,8.31,1.84,12.91,9.72,12.34A20.39,20.39,0,0,1,1388.21,637.14Z"></path><path fill="#362e94" d="M1391.71,596.87c0,6.51,3,20.14,12.31,20.79-1.91,8.18-2.67,19.65-14.6,38,8.26,2.75,17-6.58,24.39-18,2.45-3.78,6-18.83,4.59-30.16-1.87-14.65-12.08-28.42-27.35-25.66s-16.21,15.21-13,17.4C1382.65,602.39,1388.32,600.25,1391.71,596.87Z"></path><path fill="#fcba06" d="M395.3,479.55A57.67,57.67,0,1,1,462,526.45,57.67,57.67,0,0,1,395.3,479.55Z"></path><path fill="#e19100" d="M403.94,478.05a48.9,48.9,0,1,0,39.77-56.58A48.94,48.94,0,0,0,403.94,478.05Z"></path><path fill="#ed9f00" d="M408.29,477.29a44.48,44.48,0,1,0,36.18-51.47A44.54,44.54,0,0,0,408.29,477.29Z"></path><path fill="#fcba06" d="M451.47,466a8.75,8.75,0,1,1,7.11-10.12l7.83-1.37a16.71,16.71,0,0,0-15.31-13.76L450,434.55l-7.82,1.36,1.08,6.18a16.67,16.67,0,0,0,9.56,31.69,8.75,8.75,0,1,1-7.12,10.13l-7.82,1.36A16.71,16.71,0,0,0,453.21,499l1,5.69,7.82-1.36-1-5.7A16.67,16.67,0,0,0,451.47,466Z"></path><path fill="#ffd3c9" d="M422.36,529.64c.29-2.77-5-5.47-2.67-11.92s2.54-9.21,4.7-9.36.67,8.39,1.31,10.85c.42,1.57,5.69,1.94,7.88,5,.6,0,4.21,1.57,5.09,1.51-1.33,3-4.44,4.44-5.72,6.91C427.76,534.13,422.36,529.64,422.36,529.64Z"></path><path fill="#dde2f8" d="M341.77 614.6l11.38 34.32s54.86-35.14 64.59-47.43l-20.19-14.33C390.21 593.6 357.84 604.46 341.77 614.6zM421.34 529.64s-18.69 53.55-23.79 57.52l20.19 14.33c10.91-24.23 14.59-54.45 15.71-68.62C433.45 532.87 426.47 529.66 421.34 529.64z"></path><path fill="#ffd3c9" d="M178.27,715c-.53,1.67-1.2,3.77-2,3.88a5,5,0,0,0-4.57,4c-1.9,8.09,0,9.3,1.57,8.78.42,1.37,1.77,2.11,2.86,1.44.74,1.75,2,1.67,2.89,1.11a1.7,1.7,0,0,0,1.26,1.38c2.24.25,3.29-1.24,5.08-2.17.77-.39.92,1,2,.38,1.91-1.06,3-3.54,3.46-5.2.71-2.33-1.64-4.93-1.78-6.55a6.55,6.55,0,0,1,.73-3.22Z"></path><path fill="#dde2f8" d="M351.67,613.7c-11.48-7-43.85-10.4-55.85-10.93l-16.43-1.28c-11.73,5.16-58.8,31.27-70.27,44.57-11.65,13.5-32.06,68.53-32.06,68.53l13.54,4.55c5.15-11.53,28.16-48.5,34.83-55.06s44.91-18.79,47.09-19.49c-6,15.21-14,39.43-17.74,53.22,5.63,2.39,59.22,20.7,59.22,20.7C319.4,709.44,374.86,635,351.67,613.7Z"></path><path fill="#ced3f8" d="M322.94 705.08c9.39-14.17 23.41-36.52 30.28-56.21 1.91-1.22 43.76-28.12 59.8-42.57-9.59 5.81-51 34.68-54.16 34.7-4.32 0-2.62-10.65-5.12-10.56-4.46.16-5.62 27.16-20.15 54.57C332 688.11 327.63 696.2 322.94 705.08zM285.38 643.15c-1.32-3.74-12.86 1.44-12.86 1.44-5 12.66-11.39 31.56-15.53 45.5C261.67 681.22 286.7 646.89 285.38 643.15z"></path><path fill="#362e94" d="M293,750c-24.85,40.71-40.46,58.21-61.14,82.88a24.3,24.3,0,0,1-12,8.15C183.57,851.43,128,858.69,112.7,861.3c0,0-1.12-7.83-1.61-11.29,21-13.91,51.84-34.54,94.19-41.28,9.62-30.24,33.29-88,49.5-110.92C268.84,704.34,293,750,293,750Z"></path><path fill="url(#d)" d="M235.48,782.18c-2.69,43.93-22.34,49.21-38.15,52.84s-47.94,18.5-62.1,22.79c23.89-3.68,59-9.45,84.61-16.77a24.3,24.3,0,0,0,12-8.15C252.55,808.22,268.16,790.72,293,750c0,0-5.63-10.64-13-22.38l-25.2-29.82a174.5,174.5,0,0,0-10.93,18.37C238,734.49,236.78,760.9,235.48,782.18Z"></path><path fill="#fcccc0" d="M107,850.6l4.14-.59,1.61,11.29a28.47,28.47,0,0,0-7.33,2.37C103.82,860.9,106.12,856.19,107,850.6Z"></path><path fill="#20196f" d="M107,850.6c-.83,5.59-3.13,10.3-1.58,13.07-.91,1.72-5.87,25.8-7.14,28.36s-3.87,2.63-4.24.11c-.52-3.7-3.52-34.3-3.52-34.3-.76-.52-1.5-.93-1.5-.93L88,850C91.27,847.38,102.14,846.4,107,850.6Z"></path><path fill="#fcccc0" d="M359.71,919.51c0-2.3.15-7.82.15-7.82L371,914.08c-.61,4.19,1,7,1.49,8.57C369.56,923.86,365.16,921,359.71,919.51Z"></path><path fill="#20196f" d="M359.71,919.51c5.45,1.5,9.85,4.35,12.79,3.14,1.59,1.11,24.9,8.94,27.29,10.51s2.15,4.16-.4,4.21c-3.73.08-34.48-.62-34.48-.62-.61.69-1.1,1.38-1.1,1.38l-7,.14C354.62,934.69,355,923.79,359.71,919.51Z"></path><path fill="#423eaf" d="M314,718.51c41.51,35.29,58.5,51.87,71.67,69.74,2.93,4,4.38,7.84,3.45,12.93-9.35,51.29-15.28,97.66-18.11,112.9l-11.15-2.39c-5.78-24.57-11.72-65.32-5.64-97.51-45.09-18.34-81.91-44.67-95.47-66.7-10.47-17-9.41-34.08-4-49.67Z"></path><path fill="#fdc9c0" d="M337.54,600.09c-.24,3.37,1.32,8.77,1.32,8.77-3.14,5.28-12.38,1.55-21.47-4.35,3.1-7,5.11-19.58,5.11-19.58Z"></path><path fill="#ffd3c9" d="M354.53,568.83c-.35,6.3-3.16,25.45-8.33,31-4.23,4.6-10.46,4-19.32-1.67S322,574.84,322,569.46C322,560.93,355.05,559.69,354.53,568.83Z"></path><path fill="#362e94" d="M359.42,563.33c3.31-2.11,13.4-11.69,4.44-9.5,2.72-3,.4-13.17-9.33-4.26s-17,3.12-17,3.12c3-1.06,7.86-9.49-3.78-3.47s-15.94,9.1-14.27,17.46-4,26.31-1.41,29.44c1.19,1.47,3.71-1.39,4.7-8.83.94-7,5.37-2.27,5.61-8.22a2.17,2.17,0,0,1-1.78.9c-1.3-.06-2.29-1.5-2.2-3.2s1.21-3,2.52-3a2,2,0,0,1,1.42.75c-.09-5.36.05-9.94,3.17-11,3.86-1.32,20.8,7.81,27.38,4.62S363.5,562.54,359.42,563.33Z"></path><path fill="#fff" d="M332.45 611.3c-8.54-2.61-15.2-11.27-15.2-11.27l-3.84 4.64c3.65 4.21 7.44 10.12 15.16 13.16A20 20 0 00332.45 611.3zM334.77 611.39l1.74 6.44c1.77-.34 3.84-5.18 3.24-8.43s-1.49-3.1-1.49-3.1C338.22 607.13 337.46 611.25 334.77 611.39z"></path></g></svg>