<svg xmlns="http://www.w3.org/2000/svg" viewBox="0 0 2000 2000" id="woman-putting-dollar-coin-in-wallet"><g data-name="Secondary shapes"><ellipse cx="1659.84" cy="1667.6" fill="#e9efff" rx="264.93" ry="32.41"></ellipse><ellipse cx="363.39" cy="1635.2" fill="#e9efff" rx="295.56" ry="32.41"></ellipse><path fill="#dde2f8" d="M1745.12 816.19c32.49 82.88 114.89 95.09 206.25 43.68-44.26-68.94-139.14-114.16-206.25-43.68Z"></path><path fill="#e9edf7" d="M1925.87 858.45h-.43c-30.84-4.84-71.29-14.6-107-23.2-29.34-7.08-57.06-13.77-73.75-16.31a2.75 2.75 0 0 1 .83-5.44c16.92 2.59 44.75 9.3 74.21 16.4 35.59 8.59 75.93 18.31 106.54 23.12a2.75 2.75 0 0 1-.42 5.46zM364.45 998.35c76.77-92.12 37.71-197.31-82.26-271.81-52.67 96.98-44.48 238.32 82.26 271.81z"></path><path fill="#ced3f8" d="M364.45 1001.1a2.74 2.74 0 0 1-2.58-1.8c-7.92-21.61-18-58.78-28.76-98.14-13-47.61-27.66-101.57-41.87-140.88a2.75 2.75 0 1 1 5.17-1.87c14.28 39.52 29 93.59 42 141.3C349.1 939 359.2 976 367 997.41a2.74 2.74 0 0 1-1.64 3.52 2.6 2.6 0 0 1-.91.17Z"></path><path fill="#e9edf7" d="M1725.82 823.07c113.77 19.52 182.56-63.76 186.75-199.63-106.2 2.9-219.98 77.9-186.75 199.63Z"></path><path fill="#fff" d="M1725.82 825.82a2.75 2.75 0 0 1-2.11-4.5c14.19-17 40.27-43.39 67.89-71.31 33.4-33.76 71.26-72 97.14-102.82a2.75 2.75 0 0 1 4.21 3.54c-26 31-64 69.31-97.44 103.15-27.53 27.83-53.54 54.11-67.57 71a2.74 2.74 0 0 1-2.12.94Z"></path><path fill="#f6f6fb" d="M379 1117.72c17.6-23.73 41.48-96.52-10.42-135.09-23.48-17.46-30.67-20.65-42.22-18.33-7.52 1.51-13.08 6.6-18.76 2.79-10.38-7 15.73-45.83-19.52-74.78s-61.62-8.75-71-16.68-2.11-25.82-22.7-32.92-32.94 26.5-60.67 21c-28.84-5.69-78.75-4.54-84.16 22.85S66.64 917.23 75 934.43s-3.66 71 39 79.37c42.34 8.36 59.26 5.25 68.09 58.58s58.35 75.23 83.95 68.52 19.94 7.55 7.05 16.19 8.87 18.44 27.84 14.6 55.93-24.19 78.07-53.97Z"></path><path fill="#fff" d="M387.69 1132.43a2.75 2.75 0 0 1-2.34-1.29c-77.49-124-200-198.76-288.79-227.37a2.75 2.75 0 1 1 1.68-5.23C188 927.44 311.74 1003 390 1128.23a2.73 2.73 0 0 1-.87 3.78 2.68 2.68 0 0 1-1.44.42Z"></path><path fill="#fff" d="M172.68 935.78a2.75 2.75 0 0 1-2.74-2.53c-.58-7.2.88-36.89 8.55-53.18a2.75 2.75 0 1 1 5 2.34c-7.11 15.13-8.58 43.78-8 50.4a2.75 2.75 0 0 1-2.52 3zm-56.26 13.03a2.75 2.75 0 0 1-1.87-4.76c5.77-5.36 27.42-19.81 37.9-23.25a2.75 2.75 0 1 1 1.71 5.22c-9.33 3.07-30.49 17.06-35.87 22.06a2.74 2.74 0 0 1-1.87.73zm133.43 35.55a2.74 2.74 0 0 1-2.71-2.3c-1.23-7.52-5-30.41 9.74-60.94a2.75 2.75 0 1 1 4.95 2.38c-12.5 26-11.28 45.36-9.27 57.67a2.76 2.76 0 0 1-2.27 3.16zm-80.02 4.19a2.74 2.74 0 0 1-1.53-5c10.52-7 41-24.08 52.16-25a2.75 2.75 0 0 1 .46 5.48c-8.43.71-36.44 15.32-49.56 24.12a2.77 2.77 0 0 1-1.53.4zm96.17 62.23a2.75 2.75 0 0 1-1.54-5c1.64-1.09 3.38-2.31 5.22-3.59 9.63-6.74 21.62-15.13 34.13-17.2a2.75 2.75 0 0 1 .9 5.43c-11.28 1.86-22.7 9.85-31.88 16.27-1.87 1.3-3.64 2.54-5.31 3.66a2.69 2.69 0 0 1-1.52.43zm66.28 8.44a2.74 2.74 0 0 1-2.63-2c-4.07-13.45-2.29-40.26 4-59.76a2.75 2.75 0 0 1 5.24 1.68c-5.87 18.29-7.67 44.16-3.94 56.49a2.76 2.76 0 0 1-1.84 3.43 2.69 2.69 0 0 1-.83.16z"></path><path fill="#807dfb" d="M1227.15 1026.46a2.74 2.74 0 0 1-2.18-4.41c1-1.34 104.32-135 286.56-194.91a2.75 2.75 0 1 1 1.72 5.22c-180.64 59.43-282.9 191.69-283.91 193a2.74 2.74 0 0 1-2.19 1.1Z"></path><path fill="#807dfb" d="M1508.71 863.37a12.47 12.47 0 0 1-4.16-.76c-8-2.89-16-14.15-17.37-24.58a2.75 2.75 0 1 1 5.45-.74c1.13 8.35 7.7 18 13.79 20.15a5.33 5.33 0 0 0 5.91-1.07 4.27 4.27 0 0 0 1.65-3.51c-.27-5.56-10.14-13-14.35-16.21l-.85-.64a2.75 2.75 0 1 1 3.33-4.37l.83.63c5.64 4.26 16.13 12.2 16.52 20.33a9.77 9.77 0 0 1-3.41 7.81 10.68 10.68 0 0 1-7.34 2.96zm-53.99-8.47a2.73 2.73 0 0 1-2.19-1.1c-3.72-4.92-10-22.69-6-32.31a10.41 10.41 0 0 1 8.59-6.63c5.22-.7 8.23 1.65 9.86 3.75 6.09 7.82 2.87 25.07.51 30.94a2.75 2.75 0 0 1-5.1-2c2.35-5.85 4.29-20.34.26-25.52-.71-.9-2-2.05-4.79-1.67a5 5 0 0 0-4.26 3.3c-3 7.26 2.22 22.8 5.3 26.88a2.74 2.74 0 0 1-.53 3.85 2.79 2.79 0 0 1-1.65.51zm-7.23 45.23a8.92 8.92 0 0 1-3.35-.65c-7.24-2.93-9.77-14.65-12.22-26-.79-3.64-1.53-7.09-2.38-9.86a2.75 2.75 0 0 1 5.26-1.59c.91 3 1.68 6.53 2.49 10.29 1.84 8.53 4.37 20.22 8.91 22 1.48.6 3.43.08 5.81-1.51 3.21-2.15 4.82-4.81 4.92-8.11.26-8.4-9.28-19.53-16.14-24.75a2.75 2.75 0 0 1 3.33-4.37c5.22 4 18.68 17 18.31 29.29-.16 5.06-2.7 9.38-7.36 12.51a13.83 13.83 0 0 1-7.58 2.75zm-57.25-11.61a2.75 2.75 0 0 1-2.73-2.76c0-10.57-5.49-19.31-10.38-27-5.82-9.18-11.83-18.68-1.31-26.23 3.93-2.82 8.16-3.11 12.21-.82 12.12 6.83 19.85 36.57 19.09 46.1a2.75 2.75 0 1 1-5.48-.44c.66-8.25-6.7-35.45-16.32-40.88-2.16-1.22-4.11-1.06-6.3.51-5.79 4.15-4 8.23 2.75 18.81 5 7.93 11.29 17.8 11.23 30a2.75 2.75 0 0 1-2.76 2.71zm14.6 64.53a16.54 16.54 0 0 1-5.88-1.32c-12.78-5-37.8-26.89-38-49.21a2.76 2.76 0 0 1 2.72-2.78 2.75 2.75 0 0 1 2.75 2.72c.18 17.38 18.44 35.53 30.72 42.32 5.55 3.07 8 2.88 8.4 2.65 2-2.18 2.46-5.77 1.18-10.62-4-15.07-22.67-35.69-32.84-38.85a2.75 2.75 0 0 1 1.63-5.25c12.86 4 32.32 26.73 36.53 42.7 2.23 8.48-.15 13.28-2.53 15.82a6.13 6.13 0 0 1-4.68 1.82zm-77.04-22.31a2.75 2.75 0 0 1-1.18-.27c-26.77-12.89-35.82-42.93-38-51.83-1-4-2.94-13.65-.59-16.75a4.27 4.27 0 0 1 3.3-1.6c7.74-.44 32.16 15.44 38.58 22.13 7.3 7.6 13.6 14.16 16.25 33.63a2.75 2.75 0 0 1-5.45.74c-2.4-17.69-7.59-23.09-14.76-30.56-6.45-6.72-27.82-19.6-33.54-20.43-.76 7.59 7.8 45.87 36.55 59.72a2.75 2.75 0 0 1-1.2 5.22zM1357.33 1008.78c-8.45 0-24.71-18.16-29.75-24.54-8-10.17-25.77-35.34-25.95-35.6a2.75 2.75 0 0 1 4.5-3.16c.18.25 17.81 25.3 25.76 35.35 9.45 12 21.91 22.47 25.27 22.47h.12c2.1-2.86 2.54-6.77 1.31-11.63-5.2-20.61-36.57-49-43.51-52.15a2.75 2.75 0 1 1 2.27-5c9 4.08 41.13 34.26 46.57 55.82 1.68 6.64.88 12.17-2.37 16.44a5.14 5.14 0 0 1-4.17 2zm-72.4-42.54a2.7 2.7 0 0 1-1.66-.56c-.83-.63-20.31-15.5-28.8-26.3-7-8.85-20.57-38.41-16.78-43.39 1.83-2.4 5.19-2.5 17 4.12a197.66 197.66 0 0 1 21.02 13.89c13 9.87 18.08 29.14 21.14 40.65a2.75 2.75 0 0 1-5.32 1.41c-2.87-10.83-7.68-29-19.15-37.69-10.93-8.32-24.77-16.34-29.89-18 1.15 6.55 9.29 26.73 16.3 35.65 8.07 10.26 27.61 25.18 27.8 25.33a2.74 2.74 0 0 1-1.66 4.93zm16.67 65.49c-7 0-18.1-10.84-29.86-22.92l-1.69-1.73c-8.08-8.27-10.59-16-11.28-21a2.75 2.75 0 0 1 5.45-.74c.47 3.45 2.36 10.36 9.76 17.92l1.7 1.74c18.37 18.88 24.34 22 26.11 21.24 1.16-1.53 1.41-3.59.77-6.34-3.29-14.22-28.49-37.11-34-39.87a2.75 2.75 0 0 1 2.46-4.91c7.11 3.57 33.11 27.28 36.88 43.54 1 4.38.42 8-1.75 10.89a5.48 5.48 0 0 1-4.19 2.2zm-64.75-17.02a2.75 2.75 0 0 1-2.66-2.07c-1.22-4.77-6.83-11.48-11.35-16.88a74.29 74.29 0 0 1-5.79-7.46 2.73 2.73 0 0 1 .68-3.62c3.79-2.86 9.11-3.37 15-1.41 8.16 2.72 15.24 9.43 17.22 16.32a2.75 2.75 0 1 1-5.28 1.51c-1.49-5.16-7.24-10.47-13.68-12.61a13.53 13.53 0 0 0-7.49-.59c1 1.3 2.26 2.79 3.55 4.34 4.87 5.82 10.93 13.06 12.45 19a2.74 2.74 0 0 1-2 3.34 2.71 2.71 0 0 1-.65.13z"></path><path fill="#6b67e9" d="M983 740.89c63.16-28.23 69.63-92.65 26.38-161.7-51.88 36.88-83.51 112.18-26.38 161.7Z"></path><path fill="#dde2f8" d="M994.88 850.57c128.76-2.05 187-107.53 163.62-257.37-115.83 25.07-225.14 130.8-163.62 257.37Z"></path><path fill="#e9edf7" d="M994.87 853.31a2.67 2.67 0 0 1-1.33-.35 2.73 2.73 0 0 1-1.06-3.73c12-21.57 35.2-55.85 59.72-92.14 29.68-43.91 63.31-93.68 85.35-132.78a2.75 2.75 0 1 1 4.79 2.7c-22.16 39.3-55.85 89.16-85.58 133.16-24.46 36.19-47.56 70.37-59.48 91.73a2.74 2.74 0 0 1-2.41 1.41Z"></path><path fill="#e9edf7" d="M973.13 1053.89c-30.66-19.89-50.63-77.39-34.85-109.66s49.34-26 53-45.87-20.75-55.31-4.63-77.62c28.65-39.66 84.59 18.42 108.69-8.63s-9.12-57.43 9.45-86.25 62 21.79 96.42-1.86 116.79-60.52 132.37-10.45c12.31 39.57-39.9 33.9-46 50.72-6.94 19.19 16.35 30.92 4.07 50.39-17.35 27.52-57.9 12.94-68.41 37.88s19 45.09-10.43 65.29c-36.43 25-73.06-34.38-100.66 16.71s47 57.05 34.41 91c-13.74 37-77.57 5.2-80.74 31.92-4.28 36.34-45.14 27.28-92.69-3.57Z"></path><path fill="#fff" d="M965.44 1050.67a2.75 2.75 0 0 1-2.5-3.9c1.1-2.39 1.81-6.55 2.62-11.37 1.94-11.54 4.61-27.34 16.07-35.21 5.86-4 12.38-7.17 18.68-10.22 10.23-4.94 20.81-10.06 28.9-19 16.71-18.55 19.73-38.42 22.4-56 2.05-13.43 4-26.11 11.86-35.75 7.36-9 15.52-8.9 24.15-8.83 8 .08 16.2.17 26-6.53 9.36-6.41 11.11-11.81 13.14-18 2.34-7.23 5-15.41 19.38-25.28 12.3-8.45 21-8.28 29.45-8.12 8.06.17 15.65.31 27.14-6.8 22.38-13.86 29.41-31.79 34.54-44.88 3.35-8.55 6-15.3 11.59-18.73 12.69-7.78 22.41-1.27 22.81-1a2.75 2.75 0 1 1-3.12 4.53c-.27-.18-7.27-4.71-16.82 1.15-4 2.46-6.37 8.46-9.34 16-5.41 13.81-12.83 32.72-36.77 47.54-12.87 8-22 7.79-30.13 7.63-7.93-.17-15.39-.3-26.25 7.15-12.83 8.81-15 15.43-17.26 22.44-2.14 6.6-4.35 13.42-15.25 20.9-11.19 7.68-21.11 7.58-29.13 7.49-8.22-.09-14.15-.15-19.84 6.81-6.92 8.47-8.66 19.88-10.67 33.1-2.79 18.29-6 39-23.76 58.8-8.81 9.77-19.88 15.12-30.58 20.3-6.41 3.1-12.45 6-18 9.81-9.54 6.55-11.88 20.43-13.76 31.58-.88 5.21-1.64 9.71-3.05 12.76a2.73 2.73 0 0 1-2.5 1.63Z"></path><path fill="#f0c9c0" d="M412.17 765.63c12.63-18.65 34-16 51.06-4.06C489.06 779.6 566 814.66 589 816.88c31.93 3.09 152.18-23.28 162-29.7s11.53-10.78 15.91-14.09a56.73 56.73 0 0 0 4.77-4.34c1.09 3.54 4 12 4 12 8.61-2.72 49.78-8.51 47.17.92s-16.57 30.68-40.85 35.45c-16.24 3.19-32.28-1.78-42.19 1.67-56.38 19.62-120.74 42.77-157.18 38.65C536.55 853 451 818.53 433.33 807s-28.82-30.07-21.16-41.37Z"></path><path fill="#20196f" d="M413 595.83c11.41-9.51 59.17-21.6 80.3 7.35s12.35 114.54-8.6 164.45c-12-6-52.93-11.41-52.93-11.41Z"></path><path fill="#6b67e9" d="M337.27 976c2.34-118.34 4.77-171.83 33.15-216.42 8.63-13.54 18.46-23.77 24.57-33.55 14.9 9.31 39.77 8.9 53.7 5.69a9.06 9.06 0 0 0 1 2.81c20.22 35.5 68.43 95.09 49.41 118.69-26.79 33.22-53.64 69.28-48.34 127.19Z"></path><path fill="#f7d3c9" d="M395 726.06c8.61-20.2 6.32-39.92 2.52-53.29 0 0-8-19.15.25-47 10.56-35.59 59.81-41.6 80.52-22.94 17.49 18.1 14.77 30.71 12.47 56.67 0 0 3.65 25.76 3.43 27.36-.34 2.33-7.32.19-7.94 1.2s-2.11 15.6-8 20.43-21.43-3.15-24.2 1.16c-2.06 3.21-6.71 14.88-5.35 22.13-13.91 3.22-38.78 3.59-53.7-5.72zm135.16 506.37c8.31 27.3 23.94 59.65 21.9 103.08s-30.56 256.58-31.14 269l-21.72-1c.68-14.47-17.24-191.5 4.09-259.42a675.32 675.32 0 0 0-46.3-98.61z"></path><path fill="#362e94" d="M509.74 1632.65c-3.26-.16-7.49 3.27-8.18 7.08l-6-.28a32.6 32.6 0 0 1-1.69-22.67c2.31-7.9 4.28-5.89 6.25-3.71 4.56 4.06 23.8 6.24 25.62-.18 5 1 55.56 18.16 55.33 22.9-.36 7.69-6.38 7.38-10.49 7.19-48.49-2.28-41.92-4.98-60.84-10.33Z"></path><path fill="#f7d3c9" d="M520.92 1604.5c-1.32-7.4-22.21-13.88-21.72-1a17.38 17.38 0 0 1-1.49 8.1c4.55 4.07 48.09 19.81 55.82 10.67-4.94-2.99-32.98-10.02-32.61-17.77zm-151.37-316.21-10.86-52.49 85.52-1.21s-16.79 58.57-24.28 75.65a32.35 32.35 0 0 1-7.22 10.36c-31.3 30.2-191 159.94-199.91 168.57-5-5.22-15.1-15.64-15.1-15.64 10.3-9.97 117.83-148.23 171.85-185.24z"></path><path fill="#362e94" d="M185.32 1502c-2.27-2.35-7.7-2.76-10.82-.46l-4.14-4.29a32.58 32.58 0 0 1 14.32-17.66c7.11-4.16 7.15-1.35 7.1 1.59.52 6.08 13 20.86 18.76 17.45 2.93 4.11 28 51.32 24.55 54.61-5.53 5.35-9.71 1-12.56-2-33.75-34.94-27.13-32.38-37.21-49.24Z"></path><path fill="#f7d3c9" d="M212.76 1489.15c4.11-6.28-6.65-25.33-15.1-15.64a17.42 17.42 0 0 1-6.64 4.87c.52 6.08 21.41 47.4 33.3 46-1.56-5.5-17.14-29.84-11.56-35.23Z"></path><path fill="#fcba06" d="M337.27 976c14.49 0 113.5 4.41 113.5 4.41 34.68 26.4 64.8 163.9 149.7 217.73-67.3 41.41-116 58.5-179.62 63.16-58.86 4.3-93.13-.1-164.56-43.58 23.55-12.68 43.75-41.2 58.21-80 19.68-52.72-16.85-111.13 22.77-161.72Z"></path><path fill="#362e94" d="M1583.55 1058.73c0 73.73.27 404.21.27 555.17h26.78c15.05-37.42 115.35-484 125.52-555.17Z"></path><path fill="#f0ccc0" d="M1610.6 1623.7v-9.8h-26.78a66.54 66.54 0 0 1-3.07 17.82c6.96 2.68 17.15-4.23 29.85-8.02Z"></path><path fill="#20196f" d="M1610.6 1623.7c-12.7 3.79-22.89 10.7-29.85 8-3.7 2.68-58 22.22-63.55 26s-4.83 9.88 1.16 9.88c8.76 0 80.89-3.17 80.89-3.17a44.58 44.58 0 0 1 2.65 3.17h16.49c4.92-8.5 3.61-34.08-7.79-43.88Z"></path><path fill="#f0ccc0" d="M1807.57 1623.7v-9.8h-26.79a66.24 66.24 0 0 1-3.06 17.82c6.96 2.68 17.15-4.23 29.85-8.02Z"></path><path fill="#20196f" d="M1807.57 1623.7c-12.7 3.79-22.89 10.7-29.85 8-3.7 2.68-58 22.22-63.55 26s-4.82 9.88 1.17 9.88c8.75 0 80.89-3.17 80.89-3.17 1.46 1.59 2.64 3.17 2.64 3.17h16.49c4.91-8.5 3.58-34.08-7.79-43.88Z"></path><path fill="#423eaf" d="M1781.13 1058.73c1.52 28 26.44 404.21 26.44 555.17h-26.78c-15-37.42-142.06-484-152.23-555.17Z"></path><path fill="#ed9f00" d="M1640.59 750.29c-35.08 21.75-70.93 143-101.37 182.72-17.79 23.22-89.67 80.43-117.67 95.2a109.57 109.57 0 0 1 8 20.93c18.64-5.67 117.26-37.46 154-74.21 25.07-25.06 43.21-56.58 65-98 17.82-34.04-7.96-126.64-7.96-126.64Z"></path><path fill="#f0ccc0" d="M1421.55 1028.21c-12 10.49-25.77 3.1-39.57 10.25s-15.9 8-13.41 10.61 20.33-5.4 19.18-2.5c-2 5-40.24 14.78-40.35 20.44-.07 3.9 23.62-3.45 34.12-8.13-4.2 9-41.23 12.29-38.59 17.42 1.76 3.43 33.55-1.9 42.1-10.13-3.74 8.46-35.64 12.59-35 17.68.56 4.1 29.58-1.9 37.66-9.17-4.89 7-20.25 10.51-18.61 13.57 2 3.77 26-6.3 43.2-18.32 13.58-9.5 9.6-13.45 17.23-20.79-1.51-11.37-7.96-20.93-7.96-20.93Z"></path><path fill="#fcba06" d="M1430.62 1054.25s-10.87-28.77-11.85-30.54c5-3.89 17.09-9.5 17.25-10 2.79 5 16.92 34 16.63 35-2.77 1.29-22.03 5.54-22.03 5.54zm350.51 4.48h-197.58c5.15-71.42 6.7-253.07 39.46-293 38.77-47.29 66.56-41.83 104.56-3.84 51.24 51.2 61.43 237.29 53.56 296.84z"></path><path fill="#ed9f00" d="m1622.47 1058.85-11-.23c1.53-72.16 3.23-112.18 4.47-141.4.69-16.18 1.23-29 1.58-42.71 1.41-56 24.16-113.88 35.45-131l9.19 6c-9.34 14.17-32.27 70.35-33.66 125.26-.35 13.85-.89 26.67-1.58 42.9-1.24 29.18-2.92 69.14-4.45 141.18Z"></path><path fill="#f0ccc0" d="M1698.51 687.85c-1.17 9.54-1.62 45.84 6.47 56.23-5.83 4.43-36.6 10.66-59.62 1.44 4.94-6.09 12.76-10.2 6.46-21-6.87-11.79-18.5 4-27.71-15.26-10.75-22.52-14-66.93-3.34-79.3 11.92-13.85 35.7-30.79 67.85-11.91 26.24 15.37 12.28 50.41 9.89 69.8Z"></path><path fill="#20196f" d="M1674.32 666.05c-7.3.11-3.57-19-8.93-23.59-6.34-5.38-27.53-8.5-48.07-6.23s-33.36-24.54-20.24-35.67 25.1 4.2 34.89.94c11.4-3.81 9.39-17.73 26.34-16.27 15.66 1.34 8.56 15.91 18.51 18.5 10.26 2.66 25.33-11 37.86 5.13 9.3 11.92-4.68 18.9-3.19 32.17.93 8.29 21.57 32.75-.68 43.12s-17.12-12.38-16-21.78-3.08-15.59-7.79-15.78-2.28 19.32-12.7 19.46Z"></path><path fill="#ed9f00" d="M1702.05 735.33c-5.46 2.73-39.51 8.7-51.22 1.87a33.75 33.75 0 0 0-5.47 8.32c8.16 4.89 38.77 10.08 60.17-.93-1.36-3.7-3.48-9.26-3.48-9.26Z"></path><path fill="#ffd03e" d="M1726.59 760.35c35.88 30.13 109.23 124.59 109.23 194.07s-58.77 135.3-78.06 154.59l-23.43-23.43c14.28-14.27 52.18-108.65 45.15-135.19s-40.46-55.3-70.13-85-32.53-54.62-27.35-73.39 29.62-44.21 44.59-31.65Z"></path><path fill="#f0ccc0" d="M1734.33 1085.58c-6.76 0-11.18.26-17.17 6.24 6 3.13 40.6 17.19 40.6 17.19Z"></path><path fill="#ed9f00" d="M1757.94 1110.4s-25.15-26.29-27-27.76a160.19 160.19 0 0 1 13.48-19.59c5.36 4.19 33 28 33.14 29.19-2.43 2.76-19.62 18.16-19.62 18.16Z"></path><path fill="#6b67e9" d="M1396.54 365.19c71.81-37.71 223.92 66.94 228.72 105.32 2.81 22.52-13.28 39.19-57.65 49.76l-.19 52.59-40.13-47.39c-46.59 5.5-78.85-2.59-102.2-7.33-59.51-12.08-62.89-134.92-28.55-152.95Z"></path><path fill="#fff" d="M1446 422.89c7.32-1.88 9.29 40.3 20.19 44.08s73.61-53.64 80.08-48.49c9 7.19-68 68.17-83.26 62.88-14.67-5.08-25.08-56.36-17.01-58.47Z"></path><path fill="#5652cc" d="M623.64 1054v602.56c0 19 35.79 34.42 80 34.42h731a30.6 30.6 0 0 0 30.59-30.59V1119a30.6 30.6 0 0 0-30.59-30.59h-731c-44.21-.04-80-15.41-80-34.41Z"></path><path fill="#20196f" d="M623.64 1054c0 19 35.79 34.41 80 34.41H1402v-38.23a30.58 30.58 0 0 0-30.58-30.59H703.59c-44.16-.04-79.95 15.41-79.95 34.41Z"></path><path fill="#362e94" d="M1349.74 1060.08h-646.2c-26.53 0-50 5.57-64.58 14.13 14.53 8.58 38 14.15 64.58 14.16h676.67a30.56 30.56 0 0 0-30.47-28.29Z"></path><path fill="#20196f" d="M1465.21 1252v49.66c20.18 0 36.54-8.18 36.54-18.27s-16.36-19.14-36.54-31.39Z"></path><path fill="#807dfb" d="M1465.21 1301.68h-134.92a94.86 94.86 0 1 0 0 189.72h134.92c20.18 0 36.54-8.18 36.54-18.27v-189.72c0 10.09-16.36 18.27-36.54 18.27Z"></path><path fill="#c4cae9" style="mix-blend-mode:multiply" d="M1291.77 1405.71a47.7 47.7 0 1 1 47.7 47.7 47.71 47.71 0 0 1-47.7-47.7Z"></path><path fill="#e9edf7" d="M1282.6 1396.54a47.7 47.7 0 1 1 47.69 47.7 47.7 47.7 0 0 1-47.69-47.7Z"></path><path fill="#fff" d="M1295.28 1388.66c-3.79-3.78-.78-12.93 6.72-20.42s16.63-10.51 20.42-6.72-5 7.17-12.48 14.66-10.88 16.26-14.66 12.48Z"></path><path fill="#ffd03e" d="M1434.62 1151h-11a5.5 5.5 0 1 1 0-11h11a5.5 5.5 0 1 1 0 11zm-44.75 0h-22.51a5.5 5.5 0 1 1 0-11h22.51a5.5 5.5 0 0 1 0 11zm-56.28 0h-22.51a5.5 5.5 0 0 1 0-11h22.51a5.5 5.5 0 1 1 0 11zm-56.27 0h-22.51a5.5 5.5 0 1 1 0-11h22.51a5.5 5.5 0 1 1 0 11zm-56.27 0h-22.51a5.5 5.5 0 1 1 0-11h22.51a5.5 5.5 0 0 1 0 11zm-56.28 0h-22.51a5.5 5.5 0 0 1 0-11h22.51a5.5 5.5 0 1 1 0 11zm-56.27 0H1086a5.5 5.5 0 1 1 0-11h22.51a5.5 5.5 0 0 1 0 11zm-56.28 0h-22.5a5.5 5.5 0 1 1 0-11h22.5a5.5 5.5 0 1 1 0 11zm-56.22 0h-22.56a5.5 5.5 0 1 1 0-11H996a5.5 5.5 0 1 1 0 11zm-56.27 0h-22.56a5.5 5.5 0 1 1 0-11h22.51a5.5 5.5 0 0 1 0 11zm-56.28 0h-22.56a5.5 5.5 0 0 1 0-11h22.51a5.5 5.5 0 1 1 0 11zm-56.27 0h-22.56a5.5 5.5 0 1 1 0-11h22.51a5.5 5.5 0 1 1 0 11zm-56.27 0h-22.56a5.5 5.5 0 1 1 0-11h22.51a5.5 5.5 0 0 1 0 11zm-56.33 0h-11a5.5 5.5 0 1 1 0-11h11a5.5 5.5 0 1 1 0 11zm720.04 488.27h-11a5.5 5.5 0 1 1 0-11h11a5.5 5.5 0 1 1 0 11zm-44.75 0h-22.51a5.5 5.5 0 1 1 0-11h22.51a5.5 5.5 0 0 1 0 11zm-56.28 0h-22.51a5.5 5.5 0 0 1 0-11h22.51a5.5 5.5 0 1 1 0 11zm-56.27 0h-22.51a5.5 5.5 0 1 1 0-11h22.51a5.5 5.5 0 1 1 0 11zm-56.27 0h-22.51a5.5 5.5 0 1 1 0-11h22.51a5.5 5.5 0 0 1 0 11zm-56.28 0h-22.51a5.5 5.5 0 0 1 0-11h22.51a5.5 5.5 0 1 1 0 11zm-56.27 0H1086a5.5 5.5 0 1 1 0-11h22.51a5.5 5.5 0 0 1 0 11zm-56.28 0h-22.5a5.5 5.5 0 1 1 0-11h22.5a5.5 5.5 0 1 1 0 11zm-56.27 0h-22.51a5.5 5.5 0 1 1 0-11H996a5.5 5.5 0 1 1 0 11zm-56.27 0h-22.51a5.5 5.5 0 1 1 0-11h22.51a5.5 5.5 0 0 1 0 11zm-56.28 0h-22.51a5.5 5.5 0 0 1 0-11h22.51a5.5 5.5 0 1 1 0 11zm-56.27 0h-22.51a5.5 5.5 0 1 1 0-11h22.51a5.5 5.5 0 1 1 0 11zm-56.27 0h-22.51a5.5 5.5 0 1 1 0-11h22.51a5.5 5.5 0 0 1 0 11zm-56.28 0h-11a5.5 5.5 0 1 1 0-11h11a5.5 5.5 0 1 1 0 11z"></path><path fill="#fcba06" d="M620.34 868.8c-10.06-115.28 75.22-216.88 190.5-226.94s216.88 75.22 226.94 190.51-75.22 216.85-190.5 226.91S630.4 984.07 620.34 868.8Z"></path><path fill="#c67500" d="M659.48 865.39c8.16 93.5 90.86 162.92 184.38 154.76s162.94-90.86 154.78-184.36S907.76 672.83 814.26 681s-162.94 90.88-154.78 184.39Z"></path><path fill="#e19100" d="M673.08 864.2c7.51 86 83.58 149.85 169.59 142.34S992.54 923 985 837s-83.55-149.91-169.55-142.4-149.87 83.59-142.37 169.6Z"></path><path fill="#fcba06" d="M827.88 837.07a31.78 31.78 0 1 1 28.9-34.41l28.73-2.51a60.63 60.63 0 0 0-51.14-54.55l-2-22.68-28.72 2.51 2 22.67a60.57 60.57 0 0 0 24.74 117.7 31.78 31.78 0 1 1-28.89 34.42l-28.72 2.51a60.65 60.65 0 0 0 51.12 54.57l1.83 20.91 28.72-2.51-1.82-20.91a60.58 60.58 0 0 0-24.75-117.72Z"></path><path fill="#f7d3c9" d="M392.61 748.45c19.69-10.94 37.54 1.1 47.39 19.44 14.9 27.74 67.71 93.76 87.23 106.13 27.09 17.18 146.3 48 158 46.68s15.16-4.42 20.56-5.39c2.4-.44 19.67-3.14 19.81-1.31s-17.07 5.75-16.34 10.35 49.12 16.65 42.53 23.88-28.63 19.87-52.45 13.16c-15.93-4.49-28-16.17-38.4-17.57-59.16-7.94-127-16.35-157.69-36.49-39.07-24.82-99.89-94.18-110.4-112.46s-12.17-39.8-.24-46.42Z"></path><path fill="#20196f" d="M487.92 615.63c-18.21-.38-30.66 1.28-50.43 40.25C418.6 693.09 422.35 769 422.35 769c-17.77-10.3-76.46-45.7-76.46-45.7 7.3-47.17 34.06-134.73 97.17-137.67 29.94-1.44 37.99 14.24 44.86 30Z"></path><path fill="#ffd03e" d="m215.63 509-29.22-11.61a6.89 6.89 0 0 0-6.81 1l-24.67 19.51a6.89 6.89 0 0 0-2.55 6.39l4.56 31.12a6.89 6.89 0 0 0 4.27 5.4l29.22 11.61a6.89 6.89 0 0 0 6.81-1l24.67-19.51a6.86 6.86 0 0 0 2.54-6.39l-4.55-31.12a6.89 6.89 0 0 0-4.27-5.4Z"></path><path fill="#dde2f8" d="m1233.23 162.15 14.93-29.33a6.88 6.88 0 0 1 9.26-3l29.33 14.93a6.89 6.89 0 0 1 3 9.26l-14.93 29.33a6.88 6.88 0 0 1-9.26 3l-29.33-14.93a6.89 6.89 0 0 1-3-9.26Z"></path><path fill="#ffd03e" d="m1882 1430.79 17.31 45.76a6.89 6.89 0 0 0 11.77 1.92l31-37.87a6.88 6.88 0 0 0-4.22-11.15l-48.29-7.89a6.88 6.88 0 0 0-7.57 9.23Z"></path><path fill="#6b67e9" d="m530.19 1812.55-33.42 35.73a6.88 6.88 0 0 0 3.47 11.4l47.65 11.08a6.88 6.88 0 0 0 8.15-8.7l-14.24-46.81a6.88 6.88 0 0 0-11.61-2.7Z"></path></g></svg>